<svg width="106" height="62" viewBox="0 0 106 62" fill="none" xmlns="http://www.w3.org/2000/svg">
<path d="M0.0254919 37.1833V33.0476C0.0254919 32.551 0.190774 32.2204 0.522087 31.8899C0.852633 31.5586 1.18394 31.3933 1.67977 31.3933H52.799V2.27732C52.799 1.28492 53.4608 0.623047 54.4532 0.623047H72.1551C75.2983 0.623047 75.133 1.45018 83.5704 16.0087C85.7212 19.6486 89.0298 19.4824 90.5188 19.6486C96.8053 20.3104 101.603 25.1079 102.43 31.2293H104.25C105.242 31.2293 105.904 31.8911 105.904 32.8835V41.6515C105.904 42.6439 105.242 43.3057 104.25 43.3057H102.595C102.265 46.7795 99.452 49.4271 95.8122 49.4271H89.5257C89.5257 56.3755 83.901 62 76.7875 62C69.839 62 64.2145 56.3753 64.0492 49.4271H38.0762C38.0762 56.3755 32.4515 62 25.3379 62C18.3895 62 12.765 56.3753 12.5997 49.4271H9.2911C4.82416 49.4271 2.83929 45.9533 1.68093 43.8023C0.521733 41.3203 -0.140116 41.6508 0.0251468 37.1838L0.0254919 37.1833ZM102.595 39.996V34.5366H98.9555C97.4666 34.5366 96.1428 35.6943 96.1428 37.3494C96.1428 38.8384 97.3005 40.1621 98.9555 40.1621L102.595 39.996ZM76.9519 58.8556C82.0808 58.8556 86.3816 54.554 86.3816 49.4259C86.3816 44.297 82.08 39.9962 76.9519 39.9962C71.8231 39.9962 67.5222 44.2978 67.5222 49.4259C67.5222 54.5548 71.8233 58.8556 76.9519 58.8556V58.8556ZM56.1069 46.2827H64.7095C66.1985 40.8233 70.996 36.853 76.9519 36.853C82.9079 36.853 87.7053 40.8233 89.1944 46.2827H95.8115C97.4658 46.2827 98.9548 44.9589 99.2853 43.4699H98.9547C95.6461 43.4699 92.8334 40.8233 92.8334 37.3486C92.8334 34.04 95.48 31.2273 98.9547 31.2273H99.12C98.2929 26.7603 94.8184 23.2864 90.1869 22.9552C86.0512 22.6246 82.908 21.3009 80.7572 17.6611C75.4632 8.56191 73.147 4.2609 72.4851 3.92963H72.1545H56.1069L56.1069 46.2827ZM25.667 58.8556C30.7959 58.8556 35.0967 54.554 35.0967 49.4259C35.0967 44.297 31.2915 40.1613 25.667 40.1613C20.2076 40.1613 16.2373 44.297 16.2373 49.4259C16.2373 54.7199 20.5383 58.8556 25.667 58.8556ZM4.98767 42.3121C6.3114 44.7936 7.46914 46.2825 9.78509 46.2825H13.4249C14.9139 39.8307 20.5385 36.8528 25.6674 36.8528C30.7963 36.8528 36.4208 39.8307 37.9098 46.2825H52.6338V34.7018H3.33368V37.3484C3.33368 40.6577 3.33368 39.4992 4.98795 42.3119L4.98767 42.3121Z" fill="#00A4EA"/>
<path d="M72.984 9.55492L80.0975 21.4661C80.4281 21.9627 80.4281 22.6238 80.0975 23.1204C79.767 23.617 79.2704 23.9475 78.6086 23.9475H59.749C58.7566 23.9475 58.0947 23.2856 58.0947 22.2932V10.3821C58.0947 9.38966 58.7566 8.72778 59.749 8.72778H71.4948C72.1567 8.89306 72.6525 9.05833 72.9838 9.55492H72.984ZM70.6678 12.2015H61.5686V20.8041H75.796L70.6678 12.2015Z" fill="#00A4EA"/>
<path d="M62.3949 29.2418H65.5381C66.5305 29.2418 67.1924 29.9037 67.1924 30.8961C67.1924 31.8885 66.5305 32.5504 65.5381 32.5504H62.3949C61.4025 32.5504 60.7406 31.8885 60.7406 30.8961C60.7406 29.9037 61.4025 29.2418 62.3949 29.2418Z" fill="#00A4EA"/>
</svg>
