<svg width="37" height="37" viewBox="0 0 37 37" fill="none" xmlns="http://www.w3.org/2000/svg">
<path d="M13.1552 5.75562H22.1996C22.6558 5.75562 23.0217 5.38569 23.0217 4.93347C23.0217 4.47723 22.6558 4.11133 22.1996 4.11133H13.1552C12.7029 4.11133 12.333 4.47725 12.333 4.93347C12.333 5.38571 12.7029 5.75562 13.1552 5.75562Z" fill="#6DCB81"/>
<path d="M13.1552 9.86695H22.1996C22.6558 9.86695 23.0217 9.49702 23.0217 9.0448C23.0217 8.58856 22.6558 8.22266 22.1996 8.22266H13.1552C12.7029 8.22266 12.333 8.58857 12.333 9.0448C12.333 9.49704 12.7029 9.86695 13.1552 9.86695Z" fill="#6DCB81"/>
<path d="M14.8011 31.2441H4.93445C4.48222 31.2441 4.1123 31.6101 4.1123 32.0663C4.1123 32.5185 4.48224 32.8884 4.93445 32.8884H14.8011C15.2573 32.8884 15.6232 32.5185 15.6232 32.0663C15.6232 31.61 15.2573 31.2441 14.8011 31.2441Z" fill="#6DCB81"/>
<path d="M4.93445 28.7781H13.9789C14.4351 28.7781 14.801 28.4082 14.801 27.9559C14.801 27.4997 14.4351 27.1338 13.9789 27.1338H4.93445C4.48222 27.1338 4.1123 27.4997 4.1123 27.9559C4.1123 28.4082 4.48224 28.7781 4.93445 28.7781Z" fill="#6DCB81"/>
<path d="M4.93441 24.6662H13.9788C14.4351 24.6662 14.801 24.2963 14.801 23.8441V22.6107C14.801 20.7731 13.8719 19.1531 12.4575 18.1913C12.8977 17.5828 13.1566 16.8386 13.1566 16.0329C13.1566 13.9937 11.5 12.333 9.4568 12.333C7.41762 12.333 5.75695 13.994 5.75695 16.0329C5.75695 16.8387 6.0202 17.5828 6.45982 18.191C5.04545 19.1531 4.1123 20.7731 4.1123 22.6107V23.8441C4.1123 24.2963 4.48224 24.6662 4.93445 24.6662H4.93441ZM9.45647 13.9774C10.5912 13.9774 11.512 14.8982 11.512 16.0329C11.512 17.1677 10.5912 18.0885 9.45647 18.0885C8.32607 18.0885 7.40092 17.1677 7.40092 16.0329C7.40092 14.8985 8.32607 13.9774 9.45647 13.9774ZM5.75663 22.6107C5.75663 21.176 6.57877 19.9343 7.77114 19.3217C8.27671 19.5807 8.85229 19.733 9.45677 19.733C10.0653 19.733 10.6408 19.581 11.1464 19.3217C12.3385 19.9343 13.1567 21.176 13.1567 22.6107V23.0219H5.7567L5.75663 22.6107Z" fill="#6DCB81"/>
<path d="M27.1334 18.0971V2.46681C27.1334 1.10611 26.0276 0 24.6666 0H9.04436C8.82642 0 8.6168 0.0863185 8.46481 0.238304L0.242607 8.46051C0.0863186 8.61679 0 8.82642 0 9.04436V34.5332C0 35.8939 1.11007 37 2.46681 37H26.7223C31.9391 37 36.1778 32.7573 36.1778 27.5445C36.1776 22.4673 32.157 18.315 27.1334 18.097L27.1334 18.0971ZM8.22229 2.80744V7.39976C8.22229 7.852 7.85637 8.22191 7.40014 8.22191H2.80782L8.22229 2.80744ZM2.4666 35.3556C2.01437 35.3556 1.64446 34.9857 1.64446 34.5335V9.86686H7.39985C8.76055 9.86686 9.86666 8.76112 9.86666 7.40006V1.64466H24.6666C25.1229 1.64466 25.4888 2.01459 25.4888 2.46681V18.1712C20.8595 18.7757 17.2666 22.7469 17.2666 27.5445C17.2666 30.7841 18.9069 33.6495 21.4023 35.3556H2.4666ZM26.7221 35.3556C22.4177 35.3556 18.911 31.8487 18.911 27.5445C18.911 23.2361 22.4179 19.7334 26.7221 19.7334C31.0305 19.7334 34.5332 23.236 34.5332 27.5445C34.5332 31.8486 31.0306 35.3556 26.7221 35.3556Z" fill="#6DCB81"/>
<path d="M30.3279 24.0832L25.1521 29.2591L23.1212 27.2241C22.7963 26.9035 22.2784 26.9035 21.9577 27.2241C21.6371 27.5447 21.6371 28.0669 21.9577 28.3876L24.5725 31.0023C24.7328 31.1626 24.9424 31.2449 25.152 31.2449C25.3657 31.2449 25.5756 31.1626 25.7359 31.0023L31.4913 25.2469C31.8119 24.9263 31.8119 24.4041 31.4913 24.0835C31.1707 23.7626 30.6485 23.7626 30.3278 24.0832L30.3279 24.0832Z" fill="#6DCB81"/>
</svg>
