<svg width="37" height="37" viewBox="0 0 37 37" fill="none" xmlns="http://www.w3.org/2000/svg">
<path d="M13.1552 5.75574H22.1996C22.6558 5.75574 23.0217 5.38581 23.0217 4.9336C23.0217 4.47735 22.6558 4.11145 22.1996 4.11145H13.1552C12.7029 4.11145 12.333 4.47737 12.333 4.9336C12.333 5.38583 12.7029 5.75574 13.1552 5.75574Z" fill="#6DCB81"/>
<path d="M13.1552 9.86683H22.1996C22.6558 9.86683 23.0217 9.4969 23.0217 9.04468C23.0217 8.58844 22.6558 8.22253 22.1996 8.22253H13.1552C12.7029 8.22253 12.333 8.58845 12.333 9.04468C12.333 9.49692 12.7029 9.86683 13.1552 9.86683Z" fill="#6DCB81"/>
<path d="M14.8011 31.2445H4.93445C4.48222 31.2445 4.1123 31.6104 4.1123 32.0667C4.1123 32.5189 4.48224 32.8888 4.93445 32.8888H14.8011C15.2573 32.8888 15.6232 32.5189 15.6232 32.0667C15.6232 31.6104 15.2573 31.2445 14.8011 31.2445Z" fill="#6DCB81"/>
<path d="M4.93445 28.778H13.9789C14.4351 28.778 14.801 28.408 14.801 27.9558C14.801 27.4996 14.4351 27.1337 13.9789 27.1337H4.93445C4.48222 27.1337 4.1123 27.4996 4.1123 27.9558C4.1123 28.4081 4.48224 28.778 4.93445 28.778Z" fill="#6DCB81"/>
<path d="M4.93441 24.6667H13.9788C14.4351 24.6667 14.801 24.2967 14.801 23.8445V22.6111C14.801 20.7735 13.8719 19.1535 12.4575 18.1918C12.8977 17.5832 13.1566 16.8391 13.1566 16.0333C13.1566 13.9941 11.5 12.3334 9.4568 12.3334C7.41762 12.3334 5.75695 13.9944 5.75695 16.0333C5.75695 16.8391 6.0202 17.5832 6.45982 18.1915C5.04545 19.1535 4.1123 20.7735 4.1123 22.6111V23.8445C4.1123 24.2968 4.48224 24.6667 4.93445 24.6667H4.93441ZM9.45647 13.9778C10.5912 13.9778 11.512 14.8986 11.512 16.0334C11.512 17.1681 10.5912 18.0889 9.45647 18.0889C8.32607 18.0889 7.40092 17.1681 7.40092 16.0334C7.40092 14.8989 8.32607 13.9778 9.45647 13.9778ZM5.75663 22.6111C5.75663 21.1764 6.57877 19.9347 7.77114 19.3222C8.27671 19.5811 8.85229 19.7334 9.45677 19.7334C10.0653 19.7334 10.6408 19.5814 11.1464 19.3222C12.3385 19.9347 13.1567 21.1764 13.1567 22.6111V23.0223H5.7567L5.75663 22.6111Z" fill="#6DCB81"/>
<path d="M27.1334 18.0971V2.46681C27.1334 1.10611 26.0276 0 24.6666 0H9.04436C8.82642 0 8.6168 0.0863185 8.46481 0.238304L0.242607 8.46051C0.0863186 8.61679 0 8.82642 0 9.04436V34.5332C0 35.8939 1.11007 37 2.46681 37H26.7223C31.9391 37 36.1778 32.7573 36.1778 27.5445C36.1776 22.4673 32.157 18.315 27.1334 18.097L27.1334 18.0971ZM8.22229 2.80744V7.39976C8.22229 7.852 7.85637 8.22191 7.40014 8.22191H2.80782L8.22229 2.80744ZM2.4666 35.3556C2.01437 35.3556 1.64446 34.9857 1.64446 34.5335V9.86686H7.39985C8.76055 9.86686 9.86666 8.76112 9.86666 7.40006V1.64466H24.6666C25.1229 1.64466 25.4888 2.01459 25.4888 2.46681V18.1712C20.8595 18.7757 17.2666 22.7469 17.2666 27.5445C17.2666 30.7841 18.9069 33.6495 21.4023 35.3556H2.4666ZM26.7221 35.3556C22.4177 35.3556 18.911 31.8487 18.911 27.5445C18.911 23.2361 22.4179 19.7334 26.7221 19.7334C31.0305 19.7334 34.5332 23.236 34.5332 27.5445C34.5332 31.8486 31.0306 35.3556 26.7221 35.3556Z" fill="#6DCB81"/>
<path d="M30.3279 24.0832L25.1521 29.2591L23.1212 27.2242C22.7963 26.9036 22.2784 26.9036 21.9577 27.2242C21.6371 27.5448 21.6371 28.067 21.9577 28.3876L24.5725 31.0024C24.7328 31.1627 24.9424 31.245 25.152 31.245C25.3657 31.245 25.5756 31.1627 25.7359 31.0024L31.4913 25.247C31.8119 24.9264 31.8119 24.4042 31.4913 24.0835C31.1707 23.7626 30.6485 23.7626 30.3278 24.0833L30.3279 24.0832Z" fill="#6DCB81"/>
</svg>
