<svg width="127" height="56" viewBox="0 0 127 56" fill="none" xmlns="http://www.w3.org/2000/svg">
<path d="M107.207 32.1738C107.387 32.1738 107.566 32.1773 107.742 32.1899C112.958 32.4675 117.102 36.7844 117.102 42.0687C117.102 47.5361 112.671 51.9669 107.208 51.9669C101.74 51.9669 97.3093 47.5361 97.3093 42.0687C97.3093 36.788 101.456 32.4676 106.672 32.1899C106.852 32.1773 107.03 32.1738 107.208 32.1738H107.207ZM21.9267 32.1738C27.3929 32.1738 31.8214 36.6082 31.8214 42.0685C31.8214 47.5358 27.3905 51.9667 21.9267 51.9667C16.4629 51.9667 12.0285 47.5358 12.0285 42.0685C12.0285 36.6059 16.4629 32.1738 21.9267 32.1738V32.1738ZM56.9145 38.4185H45.2718L43.5157 32.1948L55.1735 32.1913L56.9145 38.4185ZM42.1857 3.65475V13.15C42.2202 17.1216 45.1624 20.8892 49.2398 21.2359C49.3619 21.2555 81.6011 21.2658 81.6011 21.2658C84.0331 21.2658 84.0331 17.6155 81.6011 17.6155L49.8589 17.6086C47.8058 17.6086 45.8678 15.6476 45.8436 13.1397V3.65479H69.5162C71.9228 3.69624 74.0818 4.67385 75.6757 6.26984L90.1996 20.6912C90.2745 20.7626 90.3447 20.8236 90.423 20.8812C90.7166 21.1207 91.1093 21.2612 91.5998 21.2612H120.373C121.785 21.2612 122.931 22.4046 122.931 23.8187L122.84 28.5293H41.0995C39.9906 28.5834 38.9588 29.4839 39.3469 30.8507L42.1335 40.7386C42.3166 41.4583 42.9073 42.0571 43.8965 42.0571H88.3468C90.7787 42.0571 90.7787 38.4104 88.3468 38.4104H60.7073L58.9663 32.1854L97.9454 32.182C95.3074 34.6485 93.6631 38.1664 93.6631 42.0572C93.6631 49.5432 99.7315 55.6081 107.212 55.6081C114.695 55.6081 120.76 49.5432 120.76 42.0572C120.76 38.1593 119.112 34.6484 116.478 32.182H124.37L124.508 32.1716C125.442 32.2292 126.434 31.6431 126.457 30.3856L126.575 23.8326C126.575 20.4022 123.792 17.6077 120.362 17.6077H92.279L78.2538 3.68832C76.0187 1.4383 72.9397 0.0483444 69.5542 0H30.9052C27.506 0.0483621 24.4476 1.43132 22.2182 3.65383L8.13879 17.6422C7.62867 17.6456 7.10704 17.6456 7.03564 17.6491C3.13448 17.7677 7.31031e-05 20.9689 7.31031e-05 24.9013C7.31031e-05 28.8959 3.24032 32.1397 7.25232 32.1397L12.6852 32.1662C10.0379 34.6396 8.38428 38.1633 8.38428 42.0715C8.38428 49.5575 14.4527 55.6224 21.9328 55.6224C29.4129 55.6224 35.4813 49.5575 35.4813 42.0715C35.4813 34.5949 29.4129 28.5298 21.9328 28.5298H21.7036L7.25252 28.5171C5.25698 28.5171 3.64024 26.8992 3.64024 24.9048C3.64024 22.907 5.25581 21.2926 7.25252 21.2926H31.412C35.5552 21.0058 38.5537 17.2104 38.5835 13.1975V7.37202C38.5835 4.93661 34.9332 4.93661 34.9332 7.37202V13.1734C34.9171 15.6871 32.9757 17.6514 30.9156 17.6514L13.3345 17.641L24.8092 6.25386C26.3729 4.68438 28.5367 3.69983 30.9454 3.65839L42.1857 3.65475ZM107.209 40.2904C108.192 40.2904 108.988 41.0861 108.988 42.0695C108.988 43.0563 108.192 43.852 107.209 43.852C106.226 43.852 105.43 43.0563 105.43 42.0695C105.431 41.0884 106.229 40.2904 107.209 40.2904ZM107.209 36.6401C104.208 36.6401 101.776 39.0755 101.776 42.0694C101.776 45.0703 104.208 47.5055 107.209 47.5055C110.206 47.5055 112.642 45.0701 112.642 42.0694C112.644 39.0732 110.211 36.6401 107.209 36.6401ZM107.209 32.1747C107.029 32.1747 106.851 32.1782 106.675 32.1908H107.744C107.569 32.1782 107.393 32.1747 107.209 32.1747ZM21.9282 36.6401C18.9308 36.6401 16.4953 39.0755 16.4953 42.0694C16.4953 45.0703 18.9307 47.5055 21.9282 47.5055C24.9232 47.5055 27.361 45.0701 27.361 42.0694C27.361 39.0732 24.9245 36.6401 21.9282 36.6401V36.6401ZM21.9282 40.2904C22.9093 40.2904 23.7073 41.0861 23.7073 42.0695C23.7073 43.0563 22.9081 43.852 21.9282 43.852C20.9448 43.852 20.1457 43.0563 20.1457 42.0695C20.1457 41.0884 20.9459 40.2904 21.9282 40.2904Z" fill="#6DCB81"/>
</svg>
