<svg width="91" height="63" viewBox="0 0 91 63" fill="none" xmlns="http://www.w3.org/2000/svg">
<path d="M9.11626 52.3321C10.2575 58.4913 15.6741 63 21.9545 63C28.2574 63 33.6524 58.4804 34.8045 52.3214H56.0058C59.1739 52.3214 59.1739 47.5136 56.0058 47.5136C38.6363 47.5136 22.3642 47.5136 4.99448 47.5245C6.00286 40.2581 11.5748 34.4087 18.7971 33.0689C21.7102 32.5481 21.2234 28.0949 18.3211 28.0949C16.2611 28.0949 14.5766 26.4112 14.5766 24.3621C14.5766 22.3685 16.3267 20.6175 18.3211 20.6175H31.7467C34.5269 20.6175 35.2137 22.0795 35.5128 24.6495L37.9607 38.9721C38.1492 40.1575 39.1793 40.988 40.3313 40.988L60.4486 40.9988C61.7776 40.9988 62.8632 39.9132 62.8632 38.5725L57.4019 5.19598H61.4006L69.5093 31.206C69.8971 32.4578 71.2154 33.1664 72.4671 32.8009C75.5355 31.9919 78.9478 32.0367 81.9936 32.9114C83.6109 33.3874 85.1509 34.0967 86.5464 34.9937C89.2161 36.6998 91.8086 32.6455 89.1496 30.9394C87.3771 29.8097 85.4168 28.901 83.3344 28.303C80.0227 27.3279 76.8431 27.1733 73.4532 27.6825L65.4666 2.07204C65.1452 1.04204 64.1924 0.377515 63.1732 0.377515L46.3354 0.366699C43.1566 0.366699 43.1566 5.19604 46.3354 5.19604H52.5278L57.6122 36.1573H42.3699L40.2875 23.917C39.6563 18.9539 36.9426 15.786 31.7469 15.786H18.3213C13.6797 15.786 9.74743 19.7074 9.74743 24.3599C9.74743 26.6416 10.6669 28.7357 12.1405 30.2748C4.72957 33.9968 -6.85498e-05 41.5848 -6.85498e-05 49.9152C-6.85498e-05 51.2558 1.07476 52.3415 2.41461 52.3415L2.61396 52.3307H9.11618L9.11626 52.3321ZM14.0793 52.3321L29.8424 52.3213C28.8008 55.7776 25.5887 58.1591 21.9555 58.1591C18.3332 58.1591 15.121 55.7885 14.0795 52.3322L14.0793 52.3321ZM77.0205 36.8574C69.809 36.8574 63.9496 42.7175 63.9496 49.9174C63.9496 57.1399 69.8098 63 77.0205 63C84.243 63 90.0914 57.1399 90.0914 49.9174C90.0914 42.7059 84.243 36.8574 77.0205 36.8574ZM77.0205 41.6867C81.5733 41.6867 85.2621 45.3755 85.2621 49.9174C85.2621 54.4702 81.5733 58.159 77.0205 58.159C72.4677 58.159 68.779 54.4809 68.779 49.9174C68.779 45.3646 72.4571 41.6867 77.0205 41.6867Z" fill="#538AEC"/>
</svg>
