<svg width="93" height="70" viewBox="0 0 93 70" fill="none" xmlns="http://www.w3.org/2000/svg">
<path d="M86.4956 47.7774C86.958 47.5506 87.2834 47.0862 87.2834 46.5352V38.932C87.2834 38.1616 86.66 37.5375 85.889 37.5375H81.7894C80.8472 37.5375 79.9749 37.8086 79.2125 38.2488C79.5494 35.0378 79.6017 31.8601 79.3601 28.7223C79.3628 28.6847 79.3816 28.6525 79.3816 28.6135C79.3816 28.5115 79.344 28.4223 79.3239 28.327C78.7823 21.9445 77.0497 15.7236 74.1164 9.70786C77.614 9.2569 80.3359 6.29207 80.3359 2.67304V1.83822C80.3359 1.06782 79.7125 0.443726 78.9414 0.443726L19.2256 0.445068C10.0526 0.445068 2.58963 7.90801 2.58963 17.081V50.6428C0.900548 53.0036 0 55.7773 0 58.7112C0 59.4816 0.623427 60.1057 1.39449 60.1057H4.22309C4.22242 60.1708 4.21437 60.2352 4.21437 60.3003C4.21437 65.6488 8.55752 70 13.8966 70C19.245 70 23.5963 65.6481 23.5963 60.3003C23.5963 60.2352 23.5882 60.1708 23.5875 60.1057C84.3325 60.0218 63.3821 60.0506 67.914 60.0446C67.9113 60.1298 67.902 60.215 67.902 60.3003C67.902 65.6488 72.2451 70 77.5841 70C82.9326 70 87.2839 65.6481 87.2839 60.3003C87.2839 60.2144 87.2745 60.1298 87.2718 60.0446L90.6278 60.0439C91.3982 60.0439 92.0223 59.4205 92.0223 58.6494C92.0216 54.1888 89.8393 50.2382 86.496 47.776L86.4956 47.7774ZM70.9817 57.2571H27.722C27.616 56.2444 27.3892 55.2505 27.0657 54.2862H62.562C63.3324 54.2862 63.9565 53.6628 63.9565 52.8917L63.9558 30.0086H76.6928C77.1961 39.4802 74.8689 48.6037 70.9827 57.257L70.9817 57.2571ZM13.9063 44.7999C10.977 44.7999 7.89278 45.7528 5.37959 47.7097V33.9179H24.3698C27.7164 33.9179 30.4383 36.6398 30.4383 39.9863V51.4973H25.7977C23.3852 47.5245 18.8736 44.8 13.9063 44.8V44.7999ZM61.167 9.80354V51.4981H55.9737V40.649C56.6327 40.4335 57.2467 40.0832 57.76 39.5773C58.6069 38.7304 59.074 37.6002 59.074 36.3963C59.074 33.918 57.0574 31.9028 54.5791 31.9028H44.6392L44.6399 9.80658L61.167 9.80354ZM71.0385 9.80153C73.9852 15.5003 75.7991 21.2802 76.4702 27.2198H63.956L63.9553 9.80324L71.0385 9.80153ZM44.6405 51.4978V40.8895H53.186V51.4978H44.6405ZM54.5797 38.1013H44.6399V34.6915H54.5797C55.5206 34.6915 56.2856 35.4565 56.2856 36.396C56.2863 37.3758 55.4971 38.1012 54.5797 38.1012V38.1013ZM41.8515 39.4958V51.4986H33.2268V39.9876C33.2268 35.1035 29.2534 31.1301 24.3693 31.1301H22.5775V13.6139C22.5775 11.5154 24.2914 9.80946 26.3978 9.80946L41.8506 9.80678C41.8513 27.6494 41.8513 28.0067 41.8513 39.4946L41.8515 39.4958ZM81.7903 40.3279H84.4961V45.1421H81.7903C80.4629 45.1421 79.3831 44.0624 79.3831 42.7349C79.3825 41.4076 80.4622 40.3277 81.7903 40.3277V40.3279ZM19.2261 3.2357H77.5143C77.2379 5.36372 75.4133 7.01381 73.2114 7.01381C6.92094 7.02522 75.148 7.01314 26.399 7.02187C22.7537 7.02187 19.7896 9.97931 19.7896 13.6145V31.1307L5.37891 31.1314V17.0837C5.37891 9.44759 11.5903 3.23618 19.2264 3.23618L19.2261 3.2357ZM13.9065 47.5897C19.5288 47.5897 24.2155 51.7658 24.9281 57.2585C11.5831 57.3464 37.7571 57.3195 2.87311 57.3195C3.52405 52.0221 8.04379 47.5896 13.9056 47.5896L13.9065 47.5897ZM20.8078 60.3032C20.8078 64.1143 17.7074 67.2145 13.8965 67.2145C10.0948 67.2145 7.00254 64.1141 7.00254 60.3032C7.00254 60.2381 7.00388 60.1737 7.00522 60.1086H20.8052C20.8065 60.1737 20.8078 60.2374 20.8078 60.3032H20.8078ZM77.5843 67.2145C73.7826 67.2145 70.6903 64.1141 70.6903 60.3032C70.6903 60.2381 70.6917 60.1737 70.693 60.1086H84.4929C84.4943 60.1737 84.4956 60.2381 84.4956 60.3032C84.4956 64.1143 81.3952 67.2145 77.5843 67.2145H77.5843ZM74.0444 57.2585C75.394 54.1272 76.6308 50.5698 77.3616 47.9312H78.5138C83.9536 47.9312 88.4592 52.0026 89.145 57.2585H74.0444Z" fill="#EA8660"/>
<path d="M71.1303 33.8912H67.4609C66.6905 33.8912 66.0664 34.5147 66.0664 35.2857C66.0664 36.0561 66.6898 36.6802 67.4609 36.6802H71.1303C71.9007 36.6802 72.5248 36.0568 72.5248 35.2857C72.5241 34.5147 71.9007 33.8912 71.1303 33.8912Z" fill="#EA8660"/>
</svg>
