<svg width="17" height="17" viewBox="0 0 17 17" fill="none" xmlns="http://www.w3.org/2000/svg">
<g clip-path="url(#clip0_1_140)">
<path d="M13.521 0H11.138C10.4755 0.00184718 9.84073 0.265832 9.37228 0.734274C8.90384 1.20271 8.63985 1.83753 8.638 2.5V4.883C8.63985 5.54547 8.90384 6.18029 9.37228 6.64873C9.84073 7.11717 10.4755 7.38115 11.138 7.383H13.517C14.1795 7.38115 14.8143 7.11717 15.2827 6.64873C15.7512 6.18029 16.0152 5.54547 16.017 4.883V2.5C16.0152 1.83822 15.7517 1.20401 15.2841 0.735679C14.8166 0.267352 14.1828 0.00290116 13.521 0V0ZM14.773 4.883C14.7727 5.21497 14.6407 5.53327 14.406 5.76801C14.1713 6.00274 13.853 6.13474 13.521 6.135H11.138C10.806 6.13474 10.4877 6.00274 10.253 5.76801C10.0183 5.53327 9.88625 5.21497 9.88599 4.883V2.5C9.88731 2.16872 10.0198 1.85145 10.2544 1.61758C10.489 1.3837 10.8067 1.25226 11.138 1.252H13.517C13.8488 1.25147 14.1673 1.38256 14.4025 1.61652C14.6378 1.85048 14.7707 2.1682 14.772 2.5L14.773 4.883Z" fill="white"/>
<path d="M4.883 0H2.5C1.83753 0.00184718 1.20271 0.265832 0.734274 0.734274C0.265832 1.20271 0.00184718 1.83753 0 2.5L0 4.883C0.00184718 5.54547 0.265832 6.18029 0.734274 6.64873C1.20271 7.11717 1.83753 7.38115 2.5 7.383H4.883C5.54547 7.38115 6.18029 7.11717 6.64873 6.64873C7.11717 6.18029 7.38115 5.54547 7.383 4.883V2.5C7.38115 1.83753 7.11717 1.20271 6.64873 0.734274C6.18029 0.265832 5.54547 0.00184718 4.883 0V0ZM6.135 4.883C6.13474 5.21497 6.00274 5.53327 5.76801 5.76801C5.53327 6.00274 5.21497 6.13474 4.883 6.135H2.5C2.16872 6.13368 1.85145 6.00122 1.61758 5.7666C1.3837 5.53197 1.25226 5.21428 1.252 4.883V2.5C1.25332 2.16942 1.38522 1.85275 1.61899 1.61899C1.85275 1.38522 2.16942 1.25332 2.5 1.252H4.883C5.21428 1.25226 5.53197 1.3837 5.7666 1.61758C6.00122 1.85145 6.13368 2.16872 6.135 2.5V4.883Z" fill="white"/>
<path d="M4.883 8.638H2.5C1.83753 8.63985 1.20271 8.90384 0.734274 9.37228C0.265832 9.84073 0.00184718 10.4755 0 11.138L0 13.517C0.00184718 14.1795 0.265832 14.8143 0.734274 15.2827C1.20271 15.7512 1.83753 16.0152 2.5 16.017H4.883C5.54547 16.0152 6.18029 15.7512 6.64873 15.2827C7.11717 14.8143 7.38115 14.1795 7.383 13.517V11.138C7.38115 10.4755 7.11717 9.84073 6.64873 9.37228C6.18029 8.90384 5.54547 8.63985 4.883 8.638V8.638ZM6.135 13.521C6.13474 13.853 6.00274 14.1713 5.76801 14.406C5.53327 14.6407 5.21497 14.7727 4.883 14.773H2.5C2.16803 14.7727 1.84973 14.6407 1.61499 14.406C1.38026 14.1713 1.24826 13.853 1.248 13.521V11.138C1.24932 10.8067 1.38178 10.4895 1.6164 10.2556C1.85103 10.0217 2.16872 9.89028 2.5 9.89001H4.883C5.21428 9.89028 5.53197 10.0217 5.7666 10.2556C6.00122 10.4895 6.13368 10.8067 6.135 11.138V13.521Z" fill="white"/>
<path d="M15.398 12.895C15.232 12.895 15.0728 12.9609 14.9554 13.0783C14.838 13.1957 14.772 13.355 14.772 13.521C14.7717 13.853 14.6397 14.1713 14.405 14.406C14.1703 14.6407 13.852 14.7727 13.52 14.773H11.138C10.806 14.7727 10.4877 14.6407 10.253 14.406C10.0183 14.1713 9.88625 13.853 9.88599 13.521V11.138C9.88625 10.806 10.0183 10.4877 10.253 10.253C10.4877 10.0183 10.806 9.88625 11.138 9.88599H13.517C13.7606 9.886 13.999 9.95704 14.2029 10.0904C14.4068 10.2238 14.5674 10.4138 14.665 10.637C14.735 10.7834 14.859 10.8969 15.0111 10.9536C15.1631 11.0103 15.3312 11.0057 15.4799 10.9409C15.6287 10.8761 15.7464 10.756 15.8084 10.606C15.8703 10.4561 15.8716 10.2879 15.812 10.137C15.6172 9.69058 15.2962 9.31082 14.8885 9.04434C14.4807 8.77787 14.0041 8.63627 13.517 8.637H11.138C10.4755 8.63884 9.84073 8.90284 9.37228 9.37128C8.90384 9.83972 8.63985 10.4745 8.638 11.137V13.516C8.63985 14.1785 8.90384 14.8133 9.37228 15.2817C9.84073 15.7502 10.4755 16.0141 11.138 16.016H13.517C14.1795 16.0141 14.8143 15.7502 15.2827 15.2817C15.7512 14.8133 16.0152 14.1785 16.017 13.516C16.0157 13.352 15.9501 13.1952 15.8344 13.079C15.7186 12.9629 15.562 12.8968 15.398 12.895V12.895Z" fill="white"/>
</g>
<defs>
<clipPath id="clip0_1_140">
<rect width="16.025" height="16.025" fill="white"/>
</clipPath>
</defs>
</svg>
