<svg width="21" height="20" viewBox="0 0 21 20" fill="none" xmlns="http://www.w3.org/2000/svg">
<g clip-path="url(#clip0_1_35)">
<path d="M9.29339 9.93016L10.384 10.543L10.9968 9.45239L9.90624 8.83955L9.29339 9.93016Z" fill="white"/>
<path d="M13.654 12.384L14.982 13.131L6.882 17.689V8.57199L8.208 9.317L8.82099 8.228L5.628 6.43399V19.828L17.534 13.128L14.267 11.291L13.654 12.384Z" fill="white"/>
<path d="M12.0868 10.0684L11.474 11.159L12.5646 11.7718L13.1774 10.6812L12.0868 10.0684Z" fill="white"/>
<path d="M1.251 5.003H10V7.503H11.251V3.752H0V15.007H4.377V13.756H1.251V5.003Z" fill="white"/>
<path d="M18.626 2.536C18.0654 1.81482 17.3604 1.21854 16.5562 0.785309C15.752 0.352073 14.8663 0.0914056 13.9556 0.0199711C13.0449 -0.0514634 12.1294 0.0679066 11.2674 0.37045C10.4055 0.672993 9.61624 1.15205 8.95 1.777L9.80801 2.689C10.3166 2.21093 10.9143 1.83769 11.5671 1.59062C12.2198 1.34355 12.9149 1.22747 13.6126 1.24901C14.3102 1.27055 14.9968 1.4293 15.6331 1.71618C16.2694 2.00306 16.8429 2.41246 17.321 2.921C17.7991 3.42955 18.1723 4.02727 18.4194 4.68006C18.6665 5.33285 18.7825 6.0279 18.761 6.72555C18.7395 7.4232 18.5807 8.10977 18.2938 8.74607C18.0069 9.38236 17.5975 9.95593 17.089 10.434C16.9663 10.5493 16.8387 10.6583 16.706 10.761L17.473 11.749C18.8475 10.6801 19.7411 9.10899 19.9573 7.38127C20.1736 5.65354 19.6947 3.91068 18.626 2.536V2.536Z" fill="white"/>
</g>
<defs>
<clipPath id="clip0_1_35">
<rect width="20.009" height="19.828" fill="white"/>
</clipPath>
</defs>
</svg>
