<svg width="17" height="17" viewBox="0 0 17 17" fill="none" xmlns="http://www.w3.org/2000/svg">
<g clip-path="url(#clip0_1_44)">
<path d="M13.383 1.036V0H12.429V0.954H11.475V0H10.521V0.954H9.568V1.908H10.522V4.768H9.568V5.722H10.522V6.676H11.476V5.722H12.43V6.676H13.384V5.64C13.6052 5.5617 13.8037 5.43013 13.962 5.25692C14.1203 5.08371 14.2335 4.87419 14.2916 4.64686C14.3497 4.41954 14.3509 4.18139 14.2952 3.95347C14.2395 3.72555 14.1285 3.51485 13.972 3.34C14.1285 3.16515 14.2395 2.95445 14.2952 2.72653C14.3509 2.49861 14.3497 2.26046 14.2916 2.03314C14.2335 1.80581 14.1203 1.59629 13.962 1.42308C13.8037 1.24987 13.6052 1.1183 13.384 1.04L13.383 1.036ZM11.476 1.908H12.906C13.0325 1.908 13.1538 1.95826 13.2433 2.04771C13.3327 2.13717 13.383 2.25849 13.383 2.385C13.383 2.51151 13.3327 2.63284 13.2433 2.72229C13.1538 2.81174 13.0325 2.862 12.906 2.862H11.476V1.908ZM12.906 4.769H11.476V3.815H12.906C13.0325 3.815 13.1538 3.86526 13.2433 3.95471C13.3327 4.04416 13.383 4.16549 13.383 4.292C13.383 4.41851 13.3327 4.53984 13.2433 4.62929C13.1538 4.71874 13.0325 4.769 12.906 4.769V4.769Z" fill="white"/>
<path d="M16.275 8.106V7.629H8.615V-5.59464e-07H8.138C6.61083 -0.00201644 5.1141 0.427104 3.82 1.238L2.582 -5.59464e-07H0V0.953999H2.187L3.032 1.799C2.08629 2.55587 1.3228 3.51563 0.797982 4.60732C0.273167 5.69901 0.000451165 6.89471 0 8.106C0.00340094 10.2661 0.860904 12.3373 2.38545 13.8677C3.91 15.398 5.97788 16.2634 8.138 16.275C9.66008 16.278 11.1516 15.8475 12.438 15.034L13.665 16.275H16.28V15.321H14.059L13.218 14.471C14.1717 13.7068 14.9416 12.738 15.4707 11.6363C15.9998 10.5346 16.2747 9.32816 16.275 8.106V8.106ZM3.71 2.478L4.91 3.678L5.582 3L4.514 1.932C5.47395 1.3709 6.55144 1.04118 7.661 0.968999V7.908L2.725 12.845C2.08351 12.1111 1.59843 11.2542 1.29941 10.3265C1.00039 9.39875 0.893713 8.41981 0.985907 7.44947C1.0781 6.47913 1.36723 5.53779 1.83561 4.683C2.30399 3.8282 2.94178 3.07791 3.71 2.478V2.478ZM11.748 14.343C10.4473 15.1048 8.93905 15.4357 7.43893 15.2884C5.9388 15.1411 4.52369 14.5232 3.396 13.523L8.335 8.582H15.306C15.2399 9.59677 14.9602 10.5861 14.4853 11.4853C14.0103 12.3845 13.3509 13.1733 12.55 13.8L11.338 12.574L10.66 13.245L11.748 14.343Z" fill="white"/>
</g>
<defs>
<clipPath id="clip0_1_44">
<rect width="16.275" height="16.275" fill="white"/>
</clipPath>
</defs>
</svg>
