<svg width="17" height="17" viewBox="0 0 17 17" fill="none" xmlns="http://www.w3.org/2000/svg">
<g clip-path="url(#clip0_1_48)">
<path d="M4.487 12.049C4.3619 12.0487 4.24199 11.9989 4.15353 11.9105C4.06507 11.822 4.01526 11.7021 4.015 11.577V4.649C4.015 4.52369 4.06478 4.40351 4.15339 4.3149C4.242 4.22628 4.36218 4.17651 4.4875 4.17651C4.61281 4.17651 4.73299 4.22628 4.8216 4.3149C4.91021 4.40351 4.96 4.52369 4.96 4.649V11.576C4.96013 11.6382 4.94799 11.6997 4.92426 11.7572C4.90054 11.8146 4.8657 11.8668 4.82175 11.9108C4.77781 11.9547 4.72561 11.9895 4.66816 12.0133C4.61071 12.037 4.54915 12.0491 4.487 12.049V12.049Z" fill="white"/>
<path d="M11.734 12.049C11.6088 12.049 11.4888 11.9993 11.4002 11.9108C11.3117 11.8222 11.262 11.7022 11.262 11.577V4.649C11.262 4.52369 11.3118 4.40351 11.4004 4.3149C11.489 4.22628 11.6092 4.17651 11.7345 4.17651C11.8598 4.17651 11.98 4.22628 12.0686 4.3149C12.1572 4.40351 12.207 4.52369 12.207 4.649V11.576C12.207 11.7015 12.1572 11.8218 12.0685 11.9105C11.9798 11.9992 11.8595 12.049 11.734 12.049Z" fill="white"/>
<path d="M8.113 15.671C7.9879 15.6707 7.86799 15.6209 7.77953 15.5325C7.69107 15.444 7.64126 15.3241 7.641 15.199V1.028C7.641 0.902681 7.69079 0.782499 7.7794 0.693888C7.86801 0.605277 7.98819 0.555496 8.1135 0.555496C8.23882 0.555496 8.359 0.605277 8.44761 0.693888C8.53622 0.782499 8.58601 0.902681 8.58601 1.028V15.198C8.58601 15.3234 8.53616 15.4438 8.44746 15.5325C8.35875 15.6212 8.23845 15.671 8.113 15.671Z" fill="white"/>
<path d="M14.367 16.226H1.859C1.36612 16.2255 0.893589 16.0294 0.545073 15.6809C0.196558 15.3324 0.000529404 14.8599 0 14.367L0 1.859C0.000529404 1.36612 0.196558 0.893589 0.545073 0.545073C0.893589 0.196558 1.36612 0.000529404 1.859 0L14.367 0C14.8599 0.000529404 15.3324 0.196558 15.6809 0.545073C16.0294 0.893589 16.2255 1.36612 16.226 1.859V14.367C16.2255 14.8599 16.0294 15.3324 15.6809 15.6809C15.3324 16.0294 14.8599 16.2255 14.367 16.226V16.226ZM1.859 1.014C1.63497 1.01426 1.4202 1.10338 1.26179 1.26179C1.10338 1.4202 1.01426 1.63497 1.014 1.859V14.367C1.01426 14.591 1.10338 14.8058 1.26179 14.9642C1.4202 15.1226 1.63497 15.2117 1.859 15.212H14.367C14.591 15.2117 14.8058 15.1226 14.9642 14.9642C15.1226 14.8058 15.2117 14.591 15.212 14.367V1.859C15.2117 1.63497 15.1226 1.4202 14.9642 1.26179C14.8058 1.10338 14.591 1.01426 14.367 1.014H1.859Z" fill="white"/>
<path d="M15.198 12.207H1.028C0.902681 12.207 0.782499 12.1572 0.693888 12.0686C0.605277 11.98 0.555496 11.8598 0.555496 11.7345C0.555496 11.6092 0.605277 11.489 0.693888 11.4004C0.782499 11.3118 0.902681 11.262 1.028 11.262H15.198C15.3233 11.262 15.4435 11.3118 15.5321 11.4004C15.6207 11.489 15.6705 11.6092 15.6705 11.7345C15.6705 11.8598 15.6207 11.98 15.5321 12.0686C15.4435 12.1572 15.3233 12.207 15.198 12.207V12.207Z" fill="white"/>
<path d="M15.198 4.964H1.028C0.902681 4.964 0.782499 4.91422 0.693888 4.82561C0.605277 4.737 0.555496 4.61681 0.555496 4.49149C0.555496 4.36618 0.605277 4.246 0.693888 4.15739C0.782499 4.06878 0.902681 4.019 1.028 4.019H15.198C15.3233 4.019 15.4435 4.06878 15.5321 4.15739C15.6207 4.246 15.6705 4.36618 15.6705 4.49149C15.6705 4.61681 15.6207 4.737 15.5321 4.82561C15.4435 4.91422 15.3233 4.964 15.198 4.964V4.964Z" fill="white"/>
</g>
<defs>
<clipPath id="clip0_1_48">
<rect width="16.226" height="16.226" fill="white"/>
</clipPath>
</defs>
</svg>
