<svg width="17" height="17" viewBox="0 0 17 17" fill="none" xmlns="http://www.w3.org/2000/svg">
<g clip-path="url(#clip0_1_56)">
<path d="M0.478 2.865C0.604773 2.865 0.726355 2.81464 0.815997 2.725C0.905639 2.63535 0.956 2.51377 0.956 2.387V0.955H2.388C2.51086 0.949376 2.62683 0.896612 2.71178 0.807679C2.79674 0.718746 2.84414 0.600489 2.84414 0.4775C2.84414 0.354511 2.79674 0.236254 2.71178 0.147321C2.62683 0.0583884 2.51086 0.00562393 2.388 0L0.478 0C0.351227 0 0.229645 0.0503606 0.140003 0.140003C0.0503606 0.229645 0 0.351227 0 0.478L0 2.388C0.000264854 2.5146 0.0507423 2.63592 0.140356 2.72535C0.22997 2.81478 0.3514 2.865 0.478 2.865V2.865Z" fill="white"/>
<path d="M2.388 15.345H0.954996V13.912C0.957951 13.8474 0.947789 13.783 0.925125 13.7225C0.902461 13.662 0.867766 13.6067 0.823135 13.56C0.778504 13.5132 0.724864 13.4761 0.665457 13.4507C0.60605 13.4252 0.542109 13.4121 0.477496 13.4121C0.412884 13.4121 0.348943 13.4252 0.289536 13.4507C0.230129 13.4761 0.176489 13.5132 0.131858 13.56C0.0872272 13.6067 0.0525315 13.662 0.0298676 13.7225C0.00720368 13.783 -0.00295803 13.8474 -3.51557e-06 13.912V15.822C-3.51557e-06 15.9488 0.0503571 16.0704 0.139999 16.16C0.229642 16.2496 0.351223 16.3 0.477996 16.3H2.388C2.51086 16.2944 2.62682 16.2416 2.71178 16.1527C2.79673 16.0637 2.84414 15.9455 2.84414 15.8225C2.84414 15.6995 2.79673 15.5812 2.71178 15.4923C2.62682 15.4034 2.51086 15.3506 2.388 15.345V15.345Z" fill="white"/>
<path d="M15.823 13.435C15.7602 13.435 15.6981 13.4474 15.6401 13.4714C15.5821 13.4954 15.5294 13.5306 15.485 13.575C15.4406 13.6194 15.4054 13.6721 15.3814 13.7301C15.3574 13.7881 15.345 13.8502 15.345 13.913V15.346H13.912C13.7891 15.3516 13.6732 15.4044 13.5882 15.4933C13.5033 15.5822 13.4558 15.7005 13.4558 15.8235C13.4558 15.9465 13.5033 16.0648 13.5882 16.1537C13.6732 16.2426 13.7891 16.2954 13.912 16.301H15.822C15.9488 16.301 16.0704 16.2506 16.16 16.161C16.2496 16.0713 16.3 15.9498 16.3 15.823V13.913C16.3 13.7864 16.2498 13.665 16.1603 13.5753C16.0709 13.4857 15.9496 13.4353 15.823 13.435V13.435Z" fill="white"/>
<path d="M15.823 -3.51557e-06H13.913C13.8484 -0.00295803 13.784 0.00720368 13.7235 0.0298676C13.663 0.0525315 13.6077 0.0872272 13.561 0.131858C13.5143 0.176489 13.4771 0.230129 13.4517 0.289536C13.4263 0.348943 13.4131 0.412884 13.4131 0.477496C13.4131 0.542109 13.4263 0.60605 13.4517 0.665457C13.4771 0.724864 13.5143 0.778504 13.561 0.823135C13.6077 0.867766 13.663 0.902461 13.7235 0.925125C13.784 0.947789 13.8484 0.957951 13.913 0.954996H15.346V2.388C15.3516 2.51086 15.4044 2.62682 15.4933 2.71178C15.5822 2.79673 15.7005 2.84414 15.8235 2.84414C15.9465 2.84414 16.0648 2.79673 16.1537 2.71178C16.2426 2.62682 16.2954 2.51086 16.301 2.388V0.477996C16.301 0.351223 16.2506 0.229642 16.161 0.139999C16.0713 0.0503571 15.9498 -3.51557e-06 15.823 -3.51557e-06V-3.51557e-06Z" fill="white"/>
<path d="M5.04 6.902L12.299 2.784L11.17 2.141L3.911 6.259L5.04 6.902Z" fill="white"/>
<path d="M1.391 4.548C1.39102 4.63228 1.41332 4.71505 1.45565 4.78794C1.49797 4.86082 1.55881 4.92121 1.63201 4.963L2.94201 5.71L10.201 1.592L8.391 0.555C8.31894 0.513969 8.23743 0.492393 8.1545 0.492393C8.07157 0.492393 7.99007 0.513969 7.918 0.555L1.636 4.129C1.56141 4.17052 1.49932 4.23131 1.45623 4.30501C1.41313 4.37871 1.39061 4.46262 1.391 4.548V4.548Z" fill="white"/>
<path d="M14.661 4.133L13.261 3.333L6.00201 7.451L7.91 8.538C7.98203 8.57913 8.06356 8.60076 8.14651 8.60076C8.22946 8.60076 8.31097 8.57913 8.383 8.538L14.661 4.96C14.7344 4.9184 14.7955 4.85807 14.838 4.78516C14.8804 4.71226 14.9028 4.62938 14.9028 4.545C14.9028 4.46062 14.8804 4.37775 14.838 4.30484C14.7955 4.23193 14.7344 4.1716 14.661 4.13V4.133Z" fill="white"/>
<path d="M14.664 7.71L13.217 6.88599L8.859 9.37C8.64286 9.49329 8.39833 9.55813 8.1495 9.55813C7.90067 9.55813 7.65614 9.49329 7.44 9.37L3.082 6.883L1.635 7.70699C1.56184 7.7488 1.50104 7.80922 1.45875 7.8821C1.41646 7.95498 1.39419 8.03774 1.39419 8.122C1.39419 8.20626 1.41646 8.28902 1.45875 8.3619C1.50104 8.43478 1.56184 8.49518 1.635 8.53699L7.913 12.115C7.98507 12.156 8.06657 12.1776 8.1495 12.1776C8.23243 12.1776 8.31393 12.156 8.386 12.115L14.664 8.53699C14.7372 8.49518 14.798 8.43478 14.8402 8.3619C14.8825 8.28902 14.9048 8.20626 14.9048 8.122C14.9048 8.03774 14.8825 7.95498 14.8402 7.8821C14.798 7.80922 14.7372 7.7488 14.664 7.70699V7.71Z" fill="white"/>
<path d="M14.905 11.703C14.905 11.6187 14.8827 11.536 14.8404 11.4631C14.798 11.3902 14.7372 11.3298 14.664 11.288L13.217 10.464L8.859 12.948C8.64295 13.071 8.39861 13.1357 8.15 13.1357C7.90138 13.1357 7.65705 13.071 7.441 12.948L3.082 10.464L1.635 11.288C1.56184 11.3298 1.50104 11.3902 1.45875 11.4631C1.41646 11.536 1.39419 11.6187 1.39419 11.703C1.39419 11.7873 1.41646 11.87 1.45875 11.9429C1.50104 12.0158 1.56184 12.0762 1.635 12.118L7.913 15.696C7.98503 15.7371 8.06655 15.7588 8.1495 15.7588C8.23245 15.7588 8.31396 15.7371 8.386 15.696L14.664 12.118C14.7372 12.0762 14.798 12.0158 14.8404 11.9429C14.8827 11.8701 14.905 11.7873 14.905 11.703V11.703Z" fill="white"/>
</g>
<defs>
<clipPath id="clip0_1_56">
<rect width="16.3" height="16.3" fill="white"/>
</clipPath>
</defs>
</svg>
