<svg width="17" height="17" viewBox="0 0 17 17" fill="none" xmlns="http://www.w3.org/2000/svg">
<g clip-path="url(#clip0_1_153)">
<path d="M13.382 8.492C12.8639 8.50364 12.371 8.71762 12.0087 9.08814C11.6464 9.45866 11.4435 9.95629 11.4435 10.4745C11.4435 10.9927 11.6464 11.4903 12.0087 11.8609C12.371 12.2314 12.8639 12.4454 13.382 12.457H16.191H16.224H16.257C16.4323 12.457 16.6004 12.3874 16.7244 12.2634C16.8484 12.1394 16.918 11.9713 16.918 11.796V6.609C16.9174 6.1905 16.8173 5.77814 16.6261 5.4059C16.4348 5.03365 16.1579 4.71219 15.818 4.468L13.574 0.780001C13.5286 0.705462 13.4689 0.640647 13.3984 0.589295C13.3278 0.537942 13.2478 0.501069 13.1629 0.480802C13.078 0.460535 12.99 0.457276 12.9038 0.471212C12.8177 0.485149 12.7352 0.516005 12.661 0.562001L11 1.59L10.256 0.325001C10.2112 0.249887 10.1519 0.184412 10.0816 0.13237C10.0113 0.0803282 9.93141 0.0427546 9.84649 0.0218264C9.76157 0.000898197 9.67334 -0.00296837 9.58691 0.0104508C9.50048 0.0238699 9.41758 0.0543078 9.343 0.100001L2.977 3.965H1.983C1.81067 3.9648 1.64522 3.89742 1.52179 3.77716C1.39836 3.65691 1.32669 3.49326 1.322 3.321C1.32669 3.14874 1.39836 2.98509 1.52179 2.86484C1.64522 2.74458 1.81067 2.6772 1.983 2.677H3.205C3.38031 2.677 3.54844 2.60736 3.6724 2.4834C3.79636 2.35944 3.866 2.19131 3.866 2.016C3.866 1.84069 3.79636 1.67256 3.6724 1.5486C3.54844 1.42464 3.38031 1.355 3.205 1.355H1.983C1.53719 1.35551 1.10451 1.50601 0.75461 1.78226C0.404709 2.05852 0.157933 2.44447 0.054 2.878C0.018384 2.96041 7.05681e-06 3.04923 0 3.139L0 14.274C0.000794022 14.9747 0.279507 15.6465 0.774994 16.142C1.27048 16.6375 1.94228 16.9162 2.643 16.917H14.274C14.8288 16.9177 15.3697 16.7435 15.8199 16.4194C16.2701 16.0952 16.6067 15.6374 16.782 15.111C16.8342 14.9456 16.8193 14.7662 16.7405 14.6117C16.6617 14.4571 16.5253 14.3398 16.3607 14.2849C16.1961 14.2301 16.0166 14.2421 15.8608 14.3184C15.705 14.3948 15.5855 14.5293 15.528 14.693C15.4399 14.9556 15.2713 15.1839 15.0463 15.3454C14.8212 15.5069 14.551 15.5935 14.274 15.593H2.643C2.29246 15.5927 1.95636 15.4534 1.7085 15.2055C1.46063 14.9576 1.32126 14.6215 1.321 14.271V5.171C1.53327 5.24611 1.75683 5.28433 1.982 5.284H14.274C14.4482 5.28361 14.6207 5.3176 14.7817 5.38404C14.9427 5.45047 15.089 5.54804 15.2122 5.67114C15.3353 5.79425 15.433 5.94046 15.4996 6.1014C15.5661 6.26234 15.6003 6.43484 15.6 6.609V8.492H13.382ZM15.6 11.135H13.382C13.2067 11.135 13.0386 11.0654 12.9146 10.9414C12.7906 10.8174 12.721 10.6493 12.721 10.474C12.721 10.2987 12.7906 10.1306 12.9146 10.0066C13.0386 9.88264 13.2067 9.813 13.382 9.813H15.6V11.135ZM5.522 3.965L9.458 1.573L10.158 2.764C10.1712 2.79862 10.1872 2.83207 10.206 2.864C10.2204 2.88659 10.236 2.90829 10.253 2.929L10.868 3.969L5.522 3.965ZM12.407 3.965L11.676 2.728L12.792 2.036L13.968 3.965H12.407Z" fill="white"/>
</g>
<defs>
<clipPath id="clip0_1_153">
<rect width="16.917" height="16.918" fill="white"/>
</clipPath>
</defs>
</svg>
