<svg width="17" height="16" viewBox="0 0 17 16" fill="none" xmlns="http://www.w3.org/2000/svg">
<g clip-path="url(#clip0_1_2)">
<g clip-path="url(#clip1_1_2)">
<path d="M14.731 15.157C14.1579 14.6628 13.5133 14.2582 12.819 13.957C12.7438 13.9224 12.6625 13.903 12.5798 13.9C12.4971 13.8971 12.4146 13.9106 12.3371 13.9398C12.2597 13.9689 12.1888 14.0132 12.1286 14.07C12.0684 14.1268 12.0201 14.195 11.9864 14.2706C11.9528 14.3463 11.9345 14.4278 11.9326 14.5106C11.9308 14.5933 11.9453 14.6756 11.9755 14.7527C12.0057 14.8297 12.0509 14.9 12.1085 14.9595C12.1661 15.0189 12.2349 15.0664 12.311 15.099C12.8893 15.3478 13.4267 15.6826 13.905 16.092C14.1707 16.3263 14.3835 16.6145 14.529 16.9375C14.6745 17.2605 14.7495 17.6108 14.749 17.965V19.121C14.7487 19.2867 14.6828 19.4455 14.5657 19.5627C14.4485 19.6798 14.2897 19.7457 14.124 19.746H1.875C1.70932 19.7457 1.55051 19.6798 1.43335 19.5627C1.3162 19.4455 1.25027 19.2867 1.25 19.121V17.969C1.25004 17.6154 1.32532 17.2659 1.47084 16.9437C1.61636 16.6214 1.82878 16.3338 2.094 16.1C3.77313 14.7874 5.87211 14.1299 8 14.25C9.09723 14.2514 10.1593 13.863 10.9968 13.1542C11.8344 12.4454 12.393 11.4621 12.573 10.3798C12.7531 9.29744 12.5429 8.18631 11.9799 7.24451C11.417 6.30271 10.5379 5.59144 9.49928 5.2375C8.4607 4.88357 7.33018 4.90998 6.30927 5.31202C5.28835 5.71406 4.44339 6.4656 3.92503 7.43266C3.40667 8.39972 3.2486 9.51945 3.47899 10.5922C3.70939 11.665 4.31328 12.6211 5.183 13.29C3.74161 13.5712 2.39501 14.2132 1.269 15.156C0.869624 15.5077 0.549849 15.9405 0.331021 16.4256C0.112192 16.9107 -0.000657902 17.4368 2.8852e-06 17.969V19.125C0.000532298 19.6221 0.198246 20.0987 0.549762 20.4502C0.901278 20.8018 1.37788 20.9995 1.875 21H14.125C14.6221 20.9995 15.0987 20.8018 15.4502 20.4502C15.8018 20.0987 15.9995 19.6221 16 19.125V17.969C16.0005 17.437 15.8876 16.911 15.6688 16.4261C15.45 15.9412 15.1303 15.5086 14.731 15.157V15.157ZM4.625 9.625C4.625 8.95749 4.82294 8.30497 5.19379 7.74995C5.56464 7.19494 6.09175 6.76235 6.70845 6.50691C7.32515 6.25146 8.00375 6.18463 8.65843 6.31485C9.31312 6.44508 9.91449 6.76651 10.3865 7.23852C10.8585 7.71052 11.1799 8.31189 11.3102 8.96657C11.4404 9.62126 11.3735 10.2999 11.1181 10.9166C10.8627 11.5333 10.4301 12.0604 9.87505 12.4312C9.32004 12.8021 8.66751 13 8 13C7.10522 12.9989 6.24739 12.643 5.61469 12.0103C4.98198 11.3776 4.62606 10.5198 4.625 9.625V9.625Z" fill="white"/>
</g>
</g>
<defs>
<clipPath id="clip0_1_2">
<rect width="16.302" height="15.962" fill="white"/>
</clipPath>
<clipPath id="clip1_1_2">
<rect width="16" height="16" fill="white" transform="translate(0 5)"/>
</clipPath>
</defs>
</svg>
