<svg width="16" height="16" viewBox="0 0 16 16" fill="none" xmlns="http://www.w3.org/2000/svg">
<g clip-path="url(#clip0_1_6)">
<path d="M14.731 10.157C14.1579 9.66276 13.5133 9.25817 12.819 8.957C12.7438 8.92237 12.6625 8.90301 12.5798 8.90005C12.4971 8.89709 12.4146 8.91059 12.3371 8.93977C12.2597 8.96895 12.1888 9.01322 12.1286 9.07002C12.0684 9.12681 12.0201 9.195 11.9864 9.27063C11.9528 9.34625 11.9345 9.42781 11.9326 9.51056C11.9308 9.59331 11.9453 9.6756 11.9755 9.75267C12.0057 9.82973 12.0509 9.90003 12.1085 9.95949C12.1661 10.0189 12.2349 10.0664 12.311 10.099C12.8893 10.3478 13.4267 10.6826 13.905 11.092C14.1707 11.3263 14.3835 11.6145 14.529 11.9375C14.6745 12.2605 14.7495 12.6108 14.749 12.965V14.121C14.7487 14.2867 14.6828 14.4455 14.5657 14.5627C14.4485 14.6798 14.2897 14.7457 14.124 14.746H1.875C1.70932 14.7457 1.55051 14.6798 1.43335 14.5627C1.3162 14.4455 1.25027 14.2867 1.25 14.121V12.969C1.25004 12.6154 1.32532 12.2659 1.47084 11.9437C1.61636 11.6214 1.82878 11.3338 2.094 11.1C3.77313 9.78742 5.87211 9.12993 8 9.25C9.09723 9.25137 10.1593 8.86302 10.9968 8.1542C11.8344 7.44537 12.393 6.46214 12.573 5.37979C12.7531 4.29744 12.5429 3.18631 11.9799 2.24451C11.417 1.30271 10.5379 0.591436 9.49928 0.237502C8.4607 -0.116432 7.33018 -0.0900247 6.30927 0.312016C5.28835 0.714057 4.44339 1.4656 3.92503 2.43266C3.40667 3.39972 3.2486 4.51945 3.47899 5.59221C3.70939 6.66498 4.31328 7.62106 5.183 8.29C3.74161 8.57124 2.39501 9.21323 1.269 10.156C0.869624 10.5077 0.549849 10.9405 0.331021 11.4256C0.112192 11.9107 -0.000657902 12.4368 2.8852e-06 12.969V14.125C0.000532298 14.6221 0.198246 15.0987 0.549762 15.4502C0.901278 15.8018 1.37788 15.9995 1.875 16H14.125C14.6221 15.9995 15.0987 15.8018 15.4502 15.4502C15.8018 15.0987 15.9995 14.6221 16 14.125V12.969C16.0005 12.437 15.8876 11.911 15.6688 11.4261C15.45 10.9412 15.1303 10.5086 14.731 10.157V10.157ZM4.625 4.625C4.625 3.95749 4.82294 3.30497 5.19379 2.74995C5.56464 2.19494 6.09175 1.76235 6.70845 1.50691C7.32515 1.25146 8.00375 1.18463 8.65843 1.31485C9.31312 1.44508 9.91449 1.76651 10.3865 2.23852C10.8585 2.71052 11.1799 3.31189 11.3102 3.96657C11.4404 4.62126 11.3735 5.29986 11.1181 5.91656C10.8627 6.53326 10.4301 7.06036 9.87505 7.43121C9.32004 7.80206 8.66751 8 8 8C7.10522 7.99894 6.24739 7.64302 5.61469 7.01032C4.98198 6.37761 4.62606 5.51978 4.625 4.625V4.625Z" fill="white"/>
</g>
<defs>
<clipPath id="clip0_1_6">
<rect width="16" height="16" fill="white"/>
</clipPath>
</defs>
</svg>
