<svg width="16" height="17" viewBox="0 0 16 17" fill="none" xmlns="http://www.w3.org/2000/svg">
<g clip-path="url(#clip0_1_8)">
<path d="M15.115 15.561L13.281 13.788C13.6712 13.223 13.8805 12.5527 13.881 11.866C13.9053 11.1468 13.7142 10.4368 13.3323 9.82693C12.9504 9.21707 12.395 8.73518 11.7374 8.44305C11.0798 8.15092 10.3499 8.06187 9.64137 8.18732C8.9328 8.31276 8.27786 8.64699 7.76052 9.14714C7.24317 9.64729 6.887 10.2906 6.73768 10.9945C6.58836 11.6984 6.6527 12.4309 6.92243 13.098C7.19217 13.7651 7.65502 14.3364 8.25163 14.7387C8.84824 15.1411 9.55142 15.356 10.271 15.356C10.9769 15.358 11.6685 15.1566 12.263 14.776L14.097 16.549C14.2345 16.6804 14.4173 16.7537 14.6075 16.7537C14.7977 16.7537 14.9805 16.6804 15.118 16.549C15.1849 16.4854 15.2382 16.4088 15.2746 16.324C15.311 16.2392 15.3297 16.1478 15.3297 16.0555C15.3297 15.9632 15.311 15.8718 15.2746 15.787C15.2382 15.7022 15.1849 15.6256 15.118 15.562L15.115 15.561ZM10.273 13.961C9.86046 13.948 9.46089 13.8138 9.12422 13.575C8.78754 13.3363 8.52869 13.0036 8.38 12.6186C8.23132 12.2335 8.19938 11.8132 8.2882 11.4102C8.37702 11.0071 8.58264 10.6391 8.87939 10.3522C9.17613 10.0654 9.55083 9.87229 9.95667 9.79714C10.3625 9.722 10.7815 9.76811 11.1613 9.92973C11.5411 10.0913 11.8648 10.3613 12.0921 10.7058C12.3193 11.0504 12.44 11.4543 12.439 11.867C12.4285 12.4315 12.1946 12.9688 11.7886 13.3612C11.3825 13.7535 10.8375 13.9688 10.273 13.96V13.961Z" fill="white"/>
<path d="M0.722 16.753C0.815408 16.7546 0.908211 16.7377 0.99509 16.7034C1.08197 16.669 1.16122 16.6179 1.22829 16.5529C1.29536 16.4878 1.34894 16.4102 1.38596 16.3244C1.42297 16.2387 1.4427 16.1464 1.444 16.053V11.171C1.4427 11.0776 1.42297 10.9854 1.38596 10.8996C1.34894 10.8138 1.29536 10.7362 1.22829 10.6711C1.16122 10.6061 1.08197 10.555 0.99509 10.5206C0.908211 10.4863 0.815408 10.4694 0.722 10.471C0.628592 10.4694 0.535789 10.4863 0.44891 10.5206C0.362031 10.555 0.282784 10.6061 0.215712 10.6711C0.148639 10.7362 0.0950589 10.8138 0.0580428 10.8996C0.0210267 10.9854 0.00130229 11.0776 0 11.171L0 16.057C0.00367955 16.245 0.0817565 16.4238 0.217106 16.5543C0.352456 16.6847 0.534029 16.7562 0.722 16.753V16.753Z" fill="white"/>
<path d="M4.776 16.054V8.37801C4.776 8.18652 4.69993 8.00288 4.56453 7.86748C4.42913 7.73207 4.24549 7.65601 4.054 7.65601C3.86251 7.65601 3.67887 7.73207 3.54347 7.86748C3.40807 8.00288 3.332 8.18652 3.332 8.37801V16.056C3.332 16.2475 3.40807 16.4311 3.54347 16.5665C3.67887 16.7019 3.86251 16.778 4.054 16.778C4.24549 16.778 4.42913 16.7019 4.56453 16.5665C4.69993 16.4311 4.776 16.2475 4.776 16.056V16.054Z" fill="white"/>
<path d="M9.10699 4.19C9.10699 3.99852 9.03093 3.81487 8.89553 3.67947C8.76012 3.54407 8.57648 3.468 8.38499 3.468C8.19351 3.468 8.00986 3.54407 7.87446 3.67947C7.73906 3.81487 7.66299 3.99852 7.66299 4.19V8.453C8.08004 8.03526 8.56926 7.69647 9.10699 7.453V4.19Z" fill="white"/>
<path d="M11.717 3.06696e-06C11.5285 -0.00267111 11.3466 0.0695196 11.2113 0.200743C11.0759 0.331967 10.9982 0.511512 10.995 0.700003V7.036C11.4954 7.09847 11.9828 7.23989 12.439 7.455V0.700003C12.4358 0.511512 12.3581 0.331967 12.2227 0.200743C12.0874 0.0695196 11.9055 -0.00267111 11.717 3.06696e-06V3.06696e-06Z" fill="white"/>
</g>
<defs>
<clipPath id="clip0_1_8">
<rect width="15.327" height="16.753" fill="white"/>
</clipPath>
</defs>
</svg>
