<svg width="17" height="15" viewBox="0 0 17 15" fill="none" xmlns="http://www.w3.org/2000/svg">
<g clip-path="url(#clip0_1_31)">
<path d="M0.856993 11.418C0.969561 11.4182 1.08105 11.3961 1.18505 11.353C1.28905 11.3099 1.38351 11.2467 1.46299 11.167L6.28099 6.349L8.24499 8.313C8.32449 8.39255 8.41888 8.45566 8.52278 8.49871C8.62667 8.54177 8.73803 8.56393 8.85049 8.56393C8.96296 8.56393 9.07432 8.54177 9.17821 8.49871C9.28211 8.45566 9.3765 8.39255 9.45599 8.313L14.845 2.924V4.853C14.845 5.08016 14.9352 5.29801 15.0959 5.45864C15.2565 5.61926 15.4743 5.7095 15.7015 5.7095C15.9287 5.7095 16.1465 5.61926 16.3071 5.45864C16.4678 5.29801 16.558 5.08016 16.558 4.853V0.853001C16.5572 0.626496 16.4667 0.40954 16.3062 0.249657C16.1458 0.0897738 15.9285 -1.39105e-06 15.702 0H11.702C11.4748 0 11.257 0.0902372 11.0964 0.250862C10.9357 0.411487 10.8455 0.629341 10.8455 0.856499C10.8455 1.08366 10.9357 1.30151 11.0964 1.46214C11.257 1.62276 11.4748 1.713 11.702 1.713H13.631L8.84999 6.5L6.88599 4.536C6.8065 4.45645 6.71211 4.39334 6.60821 4.35028C6.50432 4.30723 6.39296 4.28507 6.28049 4.28507C6.16803 4.28507 6.05667 4.30723 5.95277 4.35028C5.84888 4.39334 5.75449 4.45645 5.67499 4.536L0.250994 9.96C0.13099 10.0797 0.0492326 10.2324 0.0160847 10.3986C-0.0170633 10.5648 -0.00011041 10.7372 0.0647965 10.8938C0.129703 11.0504 0.239642 11.1842 0.380674 11.2782C0.521707 11.3722 0.687483 11.4223 0.856993 11.422V11.418Z" fill="white"/>
<path d="M15.7 13.131H0.855997C0.628839 13.131 0.410983 13.2212 0.250359 13.3819C0.0897337 13.5425 -0.00050354 13.7603 -0.00050354 13.9875C-0.00050354 14.2147 0.0897337 14.4325 0.250359 14.5931C0.410983 14.7537 0.628839 14.844 0.855997 14.844H15.7C15.9272 14.844 16.145 14.7537 16.3056 14.5931C16.4663 14.4325 16.5565 14.2147 16.5565 13.9875C16.5565 13.7603 16.4663 13.5425 16.3056 13.3819C16.145 13.2212 15.9272 13.131 15.7 13.131V13.131Z" fill="white"/>
</g>
<defs>
<clipPath id="clip0_1_31">
<rect width="16.557" height="14.844" fill="white"/>
</clipPath>
</defs>
</svg>
