<svg width="16" height="16" viewBox="0 0 16 16" fill="none" xmlns="http://www.w3.org/2000/svg">
<g clip-path="url(#clip0_1_18)">
<path d="M12.174 0H3.141C2.3082 0.000794279 1.50973 0.331975 0.920855 0.920855C0.331975 1.50973 0.000794279 2.3082 0 3.141L0 12.175C0.000794279 13.0078 0.331975 13.8063 0.920855 14.3951C1.50973 14.984 2.3082 15.3152 3.141 15.316H12.175C13.0078 15.3152 13.8063 14.984 14.3951 14.3951C14.984 13.8063 15.3152 13.0078 15.316 12.175V3.141C15.3152 2.30803 14.9839 1.50941 14.3948 0.920502C13.8057 0.331594 13.007 0.000529503 12.174 0V0ZM14.417 12.174C14.4162 12.7686 14.1796 13.3387 13.7592 13.7592C13.3387 14.1796 12.7686 14.4162 12.174 14.417H3.141C2.54671 14.4157 1.97717 14.1789 1.55713 13.7585C1.13709 13.338 0.900792 12.7683 0.9 12.174V3.141C0.901321 2.54706 1.13785 1.97782 1.55783 1.55783C1.97782 1.13785 2.54706 0.901321 3.141 0.9H12.175C12.7696 0.900794 13.3397 1.13736 13.7602 1.55784C14.1806 1.97831 14.4172 2.54836 14.418 3.143L14.417 12.174Z" fill="white"/>
<path d="M9.143 3.696C9.1046 3.55321 9.02475 3.425 8.91353 3.32757C8.8023 3.23015 8.6647 3.16787 8.5181 3.1486C8.37149 3.12934 8.22247 3.15396 8.08985 3.21935C7.95723 3.28474 7.84697 3.38797 7.77299 3.516L7.658 3.716L7.543 3.516C7.44365 3.3443 7.28026 3.21903 7.08866 3.16766C6.89706 3.1163 6.69291 3.14303 6.521 3.242V3.242C6.3493 3.34135 6.22403 3.50474 6.17266 3.69634C6.12129 3.88794 6.14803 4.09209 6.247 4.264L6.794 5.211L4.776 8.706H3.306C3.10709 8.706 2.91632 8.78502 2.77567 8.92567C2.63501 9.06633 2.556 9.25709 2.556 9.456C2.556 9.65491 2.63501 9.84568 2.77567 9.98634C2.91632 10.127 3.10709 10.206 3.306 10.206H8.985L8.121 8.706H6.504L9.069 4.264C9.1183 4.17893 9.15023 4.08492 9.16293 3.98742C9.17564 3.88992 9.16886 3.79086 9.143 3.696Z" fill="white"/>
<path d="M12.01 8.705H10.539L8.86699 5.80499L8.00401 7.30499L10.604 11.805C10.6529 11.8901 10.7182 11.9647 10.7962 12.0244C10.8741 12.0842 10.9631 12.1279 11.058 12.153C11.1216 12.1702 11.1871 12.1789 11.253 12.179C11.3842 12.1787 11.5129 12.1439 11.6264 12.0781C11.7399 12.0123 11.834 11.9179 11.8995 11.8042C11.9649 11.6906 11.9993 11.5617 11.9992 11.4306C11.9991 11.2994 11.9646 11.1706 11.899 11.057L11.407 10.204H12.015C12.2139 10.204 12.4047 10.125 12.5453 9.98433C12.686 9.84368 12.765 9.65291 12.765 9.45399C12.765 9.25508 12.686 9.06433 12.5453 8.92368C12.4047 8.78302 12.2139 8.70399 12.015 8.70399L12.01 8.705Z" fill="white"/>
<path d="M3.567 10.798L3.42 11.053C3.32081 11.2254 3.29417 11.4301 3.34593 11.6222C3.39769 11.8142 3.52361 11.9778 3.696 12.077C3.86839 12.1762 4.07312 12.2029 4.26516 12.1511C4.4572 12.0993 4.62081 11.9734 4.72 11.801L5.29901 10.801L3.567 10.798Z" fill="white"/>
</g>
<defs>
<clipPath id="clip0_1_18">
<rect width="15.315" height="15.315" fill="white"/>
</clipPath>
</defs>
</svg>
