<svg width="22" height="17" viewBox="0 0 22 17" fill="none" xmlns="http://www.w3.org/2000/svg">
<path d="M12.0873 12.8349V11.6209C12.2608 11.5897 12.4308 11.5422 12.5953 11.4789C12.9629 11.3424 13.2826 11.1015 13.5153 10.7859C13.7271 10.4974 13.841 10.1487 13.8403 9.79087C13.844 9.50327 13.7701 9.22 13.6263 8.97087C13.4892 8.7309 13.2889 8.53308 13.0473 8.39887C12.817 8.27813 12.572 8.18803 12.3183 8.13087C12.5785 8.04954 12.8211 7.91995 13.0333 7.74887C13.2077 7.60263 13.3494 7.42138 13.4493 7.21687C13.5445 7.01773 13.5934 6.79961 13.5923 6.57887C13.5936 6.2744 13.4988 5.97728 13.3213 5.72987C13.125 5.46091 12.8547 5.25487 12.5433 5.13687C12.3957 5.08033 12.243 5.03813 12.0873 5.01087V3.81087H10.9393V4.92987H10.2003V3.81387H9.05131V4.92987H7.30031V5.86887H7.56831C7.69106 5.86029 7.81426 5.87697 7.93031 5.91787C7.98847 5.94519 8.03569 5.99135 8.06431 6.04887C8.09893 6.17375 8.11211 6.30359 8.10331 6.43287V10.2179C8.11191 10.3465 8.09872 10.4756 8.06431 10.5999C8.03686 10.6582 7.98929 10.7048 7.93031 10.7309C7.81373 10.7694 7.69081 10.785 7.56831 10.7769H7.30031V11.7159H9.05131V12.8319H10.2003V11.7169H10.9383V12.8339H12.0863L12.0873 12.8349ZM9.77931 6.02687H10.5233C10.8255 6.01369 11.1282 6.04059 11.4233 6.10687C11.5788 6.1512 11.715 6.24624 11.8103 6.37687C11.902 6.51131 11.9489 6.67123 11.9443 6.83387C11.9471 6.99671 11.8977 7.15617 11.8033 7.28887C11.6979 7.42884 11.5509 7.53178 11.3833 7.58287C11.1022 7.6608 10.8108 7.69454 10.5193 7.68287H9.77931V6.02687ZM10.6793 10.6339H10.1793C10.0785 10.6406 9.97718 10.6311 9.87931 10.6059C9.86011 10.5965 9.84308 10.5832 9.82931 10.5668C9.81554 10.5504 9.80532 10.5314 9.79931 10.5109C9.77934 10.3903 9.7713 10.268 9.77531 10.1459V8.67487H10.6543C10.9446 8.66229 11.235 8.69846 11.5133 8.78187C11.6834 8.84019 11.8308 8.95079 11.9343 9.09787C12.032 9.24998 12.0812 9.42819 12.0753 9.60887C12.0808 9.82855 12.0101 10.0434 11.8753 10.2169C11.7547 10.3773 11.5852 10.4942 11.3923 10.5499C11.1601 10.6095 10.921 10.6377 10.6813 10.6339H10.6793ZM5.31531 7.40487L2.98031 9.63387C2.89733 9.71303 2.78699 9.75709 2.67231 9.75687H2.66231C2.60377 9.75558 2.54607 9.74272 2.49253 9.71904C2.43898 9.69535 2.39065 9.66131 2.35031 9.61887L0.123311 7.28287C0.0416239 7.19721 -0.00268684 7.0826 0.000126204 6.96427C0.00293925 6.84593 0.0526457 6.73356 0.138311 6.65187C0.223976 6.57019 0.338582 6.52588 0.456917 6.52869C0.575253 6.5315 0.687624 6.58121 0.769311 6.66687L2.22831 8.19587C2.25472 6.41178 2.85405 4.68345 3.93783 3.26602C5.02161 1.84859 6.53241 0.817181 8.2472 0.324039C9.96198 -0.169102 11.7899 -0.0978383 13.4611 0.527312C15.1323 1.15246 16.5582 2.29837 17.5283 3.79587C17.5926 3.8952 17.6149 4.016 17.5901 4.13171C17.5653 4.24742 17.4956 4.34856 17.3963 4.41287C17.297 4.47719 17.1762 4.49941 17.0605 4.47466C16.9448 4.4499 16.8436 4.3802 16.7793 4.28087C15.9111 2.9395 14.6333 1.914 13.1357 1.35672C11.6382 0.799439 10.0009 0.740113 8.46694 1.18756C6.93301 1.635 5.58434 2.56534 4.6213 3.84036C3.65825 5.11538 3.1322 6.66706 3.12131 8.26487L4.70031 6.75787C4.74279 6.71749 4.79281 6.68587 4.84752 6.66482C4.90222 6.64377 4.96053 6.6337 5.01912 6.63519C5.07772 6.63668 5.13545 6.64969 5.18901 6.67348C5.24258 6.69728 5.29093 6.73139 5.33131 6.77387C5.37169 6.81636 5.40331 6.86638 5.42436 6.92108C5.44541 6.97578 5.45548 7.03409 5.45399 7.09269C5.45251 7.15128 5.4395 7.20901 5.4157 7.26257C5.39191 7.31614 5.35779 7.36449 5.31531 7.40487V7.40487ZM21.0093 9.90487C20.9679 9.94633 20.9187 9.97921 20.8646 10.0016C20.8104 10.0241 20.7524 10.0356 20.6938 10.0356C20.6352 10.0356 20.5772 10.0241 20.523 10.0016C20.4689 9.97921 20.4197 9.94633 20.3783 9.90487L18.8673 8.40487C18.8496 10.1925 18.2564 11.9269 17.1756 13.351C16.0948 14.7751 14.5839 15.813 12.867 16.3111C11.15 16.8091 9.31823 16.7407 7.64317 16.116C5.96811 15.4913 4.53889 14.3436 3.56731 12.8429C3.503 12.7436 3.48077 12.6227 3.50553 12.507C3.53028 12.3913 3.59999 12.2902 3.69931 12.2259C3.79863 12.1616 3.91944 12.1393 4.03515 12.1641C4.15086 12.1888 4.252 12.2586 4.31631 12.3579C5.18386 13.6989 6.46073 14.7245 7.95738 15.2824C9.45403 15.8402 11.0907 15.9005 12.6243 15.4544C14.158 15.0083 15.5069 14.0796 16.4709 12.806C17.4348 11.5325 17.9624 9.98205 17.9753 8.38487L16.4443 9.92987C16.403 9.9715 16.3539 10.0046 16.2998 10.0272C16.2457 10.0499 16.1877 10.0617 16.1291 10.0619C16.0704 10.0621 16.0123 10.0508 15.9581 10.0286C15.9038 10.0064 15.8544 9.97368 15.8128 9.93237C15.7712 9.89107 15.7381 9.84198 15.7154 9.78789C15.6928 9.7338 15.681 9.67578 15.6808 9.61714C15.6805 9.5585 15.6919 9.50039 15.7141 9.44613C15.7363 9.39186 15.769 9.3425 15.8103 9.30087L18.0823 7.00787C18.1237 6.9663 18.1728 6.93331 18.227 6.9108C18.2811 6.88829 18.3392 6.8767 18.3978 6.8767C18.4564 6.8767 18.5145 6.88829 18.5687 6.9108C18.6228 6.93331 18.672 6.9663 18.7133 7.00787L21.0073 9.27487C21.0494 9.31615 21.0829 9.36536 21.1059 9.41967C21.1288 9.47397 21.1408 9.53229 21.1411 9.59125C21.1414 9.65021 21.1299 9.70864 21.1075 9.76316C21.0851 9.81768 21.052 9.8672 21.0103 9.90887L21.0093 9.90487Z" fill="white"/>
</svg>
