<svg width="30" height="30" viewBox="0 0 30 30" fill="none" xmlns="http://www.w3.org/2000/svg">
<g clip-path="url(#clip0_1324_806)">
<path d="M26.8896 22.3794L24.0307 19.8459V4.18729C24.0307 4.03189 23.9689 3.88283 23.8591 3.77297L20.2577 0.171621C20.1478 0.0617578 19.9988 0 19.8434 0H5.9541C5.63049 0 5.36816 0.262324 5.36816 0.585938V2.45508H3.49902C3.17541 2.45508 2.91309 2.7174 2.91309 3.04102V25.1893C2.91309 25.5129 3.17541 25.7752 3.49902 25.7752H13.0629C12.8518 26.8153 12.7487 28.0211 12.7487 29.4141C12.7487 29.6957 12.9491 29.9374 13.2258 29.9898C13.2623 29.9967 13.2989 30.0001 13.335 30.0001C13.5721 30.0001 13.7908 29.8556 13.8801 29.6281C15.0559 26.6321 17.0138 26.0373 21.1269 25.9904V27.061C21.1269 27.2916 21.2621 27.5007 21.4724 27.5953C21.6826 27.69 21.9289 27.6524 22.1014 27.4995L26.8896 23.2564C27.0152 23.1452 27.087 22.9855 27.087 22.8179C27.087 22.6502 27.0152 22.4906 26.8896 22.3794V22.3794ZM20.4293 2.00051L22.0301 3.60141H20.4293V2.00051ZM6.54004 1.17188H19.2574V4.18729C19.2574 4.5109 19.5197 4.77322 19.8433 4.77322H22.8588V18.8074L22.1014 18.1363C21.9288 17.9834 21.6826 17.9459 21.4724 18.0405C21.2621 18.1351 21.1269 18.3442 21.1269 18.5748V20.0303C18.1616 20.0995 16.2361 20.71 14.9297 21.9831C14.8747 22.0368 14.8211 22.0921 14.7682 22.1482H6.54004V1.17188ZM13.3694 24.6033H4.08496V3.62695H5.36816V22.7341C5.36816 23.0578 5.63049 23.3201 5.9541 23.3201H13.9212C13.7073 23.7075 13.5235 24.1343 13.3694 24.6033ZM22.2988 25.7589V25.4013C22.2988 25.0777 22.0364 24.8154 21.7128 24.8154C19.4072 24.8154 17.5725 24.9399 16.1125 25.5473C15.2957 25.8872 14.6151 26.373 14.0477 27.0303C14.629 22.1638 17.2018 21.1955 21.7128 21.1955C22.0364 21.1955 22.2987 20.9332 22.2987 20.6096V19.8769L25.6175 22.8179L22.2988 25.7589ZM9.85668 14.2228C9.85668 13.8991 10.119 13.6368 10.4426 13.6368H18.5247C18.8483 13.6368 19.1106 13.8991 19.1106 14.2228C19.1106 14.5464 18.8483 14.8087 18.5247 14.8087H10.4426C10.119 14.8087 9.85668 14.5464 9.85668 14.2228ZM10.4426 18.5327C10.119 18.5327 9.85668 18.2704 9.85668 17.9468C9.85668 17.6232 10.119 17.3609 10.4426 17.3609H18.5247C18.8483 17.3609 19.1106 17.6232 19.1106 17.9468C19.1106 18.2704 18.8483 18.5327 18.5247 18.5327H10.4426ZM9.85668 10.4987C9.85668 10.175 10.119 9.91271 10.4426 9.91271H18.5247C18.8483 9.91271 19.1106 10.175 19.1106 10.4987C19.1106 10.8223 18.8483 11.0846 18.5247 11.0846H10.4426C10.119 11.0846 9.85668 10.8223 9.85668 10.4987ZM9.85668 6.77455C9.85668 6.45094 10.119 6.18861 10.4426 6.18861H18.5247C18.8483 6.18861 19.1106 6.45094 19.1106 6.77455C19.1106 7.09816 18.8483 7.36049 18.5247 7.36049H10.4426C10.119 7.36049 9.85668 7.09816 9.85668 6.77455Z" fill="white"/>
</g>
<defs>
<clipPath id="clip0_1324_806">
<rect width="30" height="30" fill="white"/>
</clipPath>
</defs>
</svg>
