<svg width="15" height="20" viewBox="0 0 15 20" fill="none" xmlns="http://www.w3.org/2000/svg">
<g clip-path="url(#clip0_1_66)">
<path d="M6.31562 2.5H2.3684V3.33346H6.31562V2.5Z" fill="white"/>
<path d="M3.15799 4.16654H2.3684V5H3.15799V4.16654Z" fill="white"/>
<path d="M4.7368 4.16654H3.94721V5H4.7368V4.16654Z" fill="white"/>
<path d="M14.8841 3.45538L11.7265 0.121923C11.6898 0.0832488 11.6463 0.0525758 11.5984 0.031656C11.5506 0.0107363 11.4992 -2.05148e-05 11.4474 2.9372e-08H1.1842C0.870131 2.9372e-08 0.568926 0.131696 0.346845 0.366117C0.124764 0.600537 0 0.918479 0 1.25V18.75C0 19.0815 0.124764 19.3995 0.346845 19.6339C0.568926 19.8683 0.870131 20 1.1842 20H13.8158C14.1299 20 14.4311 19.8683 14.6532 19.6339C14.8752 19.3995 15 19.0815 15 18.75V3.75C15 3.69526 14.9897 3.64107 14.9698 3.59052C14.95 3.53997 14.9208 3.49405 14.8841 3.45538V3.45538ZM14.2104 18.75C14.2104 18.8605 14.1688 18.9664 14.0948 19.0445C14.0208 19.1227 13.9205 19.1665 13.8158 19.1665H1.1842C1.07954 19.1665 0.979172 19.1227 0.905168 19.0445C0.831164 18.9664 0.789589 18.8605 0.789589 18.75V1.25C0.789589 1.13953 0.831164 1.03358 0.905168 0.955463C0.979172 0.877347 1.07954 0.833462 1.1842 0.833462H11.2834L14.2104 3.92308V18.75Z" fill="white"/>
<path d="M12.2366 3.33308C12.132 3.33308 12.0316 3.2892 11.9576 3.21108C11.8836 3.13296 11.842 3.02701 11.842 2.91654V0.416542H11.0524V2.91654C11.0524 3.24806 11.1772 3.56601 11.3993 3.80043C11.6213 4.03485 11.9226 4.16654 12.2366 4.16654H13.0262V3.33308H12.2366Z" fill="white"/>
<path d="M12.6316 14.1665H11.842V15H12.6316V14.1665Z" fill="white"/>
<path d="M11.0528 14.1665H10.2632V15H11.0528V14.1665Z" fill="white"/>
<path d="M8.68402 14.1665H2.3684V15H8.68402V14.1665Z" fill="white"/>
<path d="M12.6316 16.25H2.3684V17.0835H12.6316V16.25Z" fill="white"/>
<path d="M11.842 6.25H3.15762C2.94821 6.25 2.74738 6.33781 2.5993 6.49412C2.45122 6.65042 2.36803 6.86242 2.36803 7.08346V12.0835C2.36803 12.3045 2.45122 12.5165 2.5993 12.6728C2.74738 12.8291 2.94821 12.9169 3.15762 12.9169H11.8416C12.0511 12.9169 12.2519 12.8291 12.4 12.6728C12.548 12.5165 12.6312 12.3045 12.6312 12.0835V7.08346C12.6312 6.86248 12.5481 6.65055 12.4001 6.49425C12.2521 6.33796 12.0514 6.2501 11.842 6.25V6.25ZM11.842 12.0835H3.15762V7.08346H11.8416V12.0835H11.842Z" fill="white"/>
</g>
<defs>
<clipPath id="clip0_1_66">
<rect width="15" height="20" fill="white"/>
</clipPath>
</defs>
</svg>
