<svg width="15" height="15" viewBox="0 0 15 15" fill="none" xmlns="http://www.w3.org/2000/svg">
<g clip-path="url(#clip0_1_98)">
<path d="M14.288 11.493H12.634C12.5028 11.0448 12.2299 10.6512 11.8561 10.3712C11.4824 10.0912 11.028 9.93985 10.561 9.93985C10.094 9.93985 9.63959 10.0912 9.26586 10.3712C8.89212 10.6512 8.6192 11.0448 8.488 11.493H0.621C0.456301 11.493 0.298347 11.5584 0.181887 11.6749C0.0654266 11.7914 0 11.9493 0 12.114C0 12.2787 0.0654266 12.4366 0.181887 12.5531C0.298347 12.6696 0.456301 12.735 0.621 12.735H8.488C8.6192 13.1832 8.89212 13.5768 9.26586 13.8568C9.63959 14.1368 10.094 14.2881 10.561 14.2881C11.028 14.2881 11.4824 14.1368 11.8561 13.8568C12.2299 13.5768 12.5028 13.1832 12.634 12.735H14.288C14.4527 12.735 14.6107 12.6696 14.7271 12.5531C14.8436 12.4366 14.909 12.2787 14.909 12.114C14.909 11.9493 14.8436 11.7914 14.7271 11.6749C14.6107 11.5584 14.4527 11.493 14.288 11.493ZM10.561 13.046C10.3767 13.046 10.1965 12.9914 10.0432 12.8889C9.88994 12.7865 9.77049 12.641 9.69994 12.4707C9.6294 12.3004 9.61095 12.113 9.64691 11.9322C9.68287 11.7514 9.77163 11.5853 9.90198 11.455C10.0323 11.3246 10.1984 11.2359 10.3792 11.1999C10.56 11.164 10.7474 11.1824 10.9177 11.253C11.088 11.3235 11.2335 11.443 11.3359 11.5962C11.4383 11.7495 11.493 11.9297 11.493 12.114C11.4927 12.3611 11.3945 12.598 11.2197 12.7727C11.045 12.9475 10.8081 13.0457 10.561 13.046V13.046Z" fill="white"/>
<path d="M14.288 1.553H12.634C12.5028 1.10482 12.2299 0.711226 11.8561 0.431214C11.4824 0.151203 11.028 -0.000144958 10.561 -0.000144958C10.094 -0.000144958 9.63959 0.151203 9.26586 0.431214C8.89212 0.711226 8.6192 1.10482 8.488 1.553H0.621C0.539449 1.553 0.458697 1.56906 0.383354 1.60027C0.30801 1.63148 0.239552 1.67722 0.181887 1.73489C0.124222 1.79255 0.078479 1.86101 0.0472708 1.93636C0.0160626 2.0117 0 2.09245 0 2.174C0 2.25555 0.0160626 2.33631 0.0472708 2.41165C0.078479 2.48699 0.124222 2.55545 0.181887 2.61312C0.239552 2.67078 0.30801 2.71652 0.383354 2.74773C0.458697 2.77894 0.539449 2.795 0.621 2.795H8.488C8.6192 3.24319 8.89212 3.63678 9.26586 3.91679C9.63959 4.1968 10.094 4.34815 10.561 4.34815C11.028 4.34815 11.4824 4.1968 11.8561 3.91679C12.2299 3.63678 12.5028 3.24319 12.634 2.795H14.288C14.4527 2.795 14.6107 2.72958 14.7271 2.61312C14.8436 2.49666 14.909 2.3387 14.909 2.174C14.909 2.0093 14.8436 1.85135 14.7271 1.73489C14.6107 1.61843 14.4527 1.553 14.288 1.553V1.553ZM10.561 3.106C10.3767 3.106 10.1965 3.05134 10.0432 2.94893C9.88994 2.84652 9.77049 2.70096 9.69994 2.53066C9.6294 2.36036 9.61095 2.17297 9.64691 1.99218C9.68287 1.81139 9.77163 1.64532 9.90198 1.51498C10.0323 1.38464 10.1984 1.29587 10.3792 1.25991C10.56 1.22395 10.7474 1.24241 10.9177 1.31295C11.088 1.38349 11.2335 1.50294 11.3359 1.65621C11.4383 1.80948 11.493 1.98967 11.493 2.174C11.4927 2.4211 11.3945 2.65801 11.2197 2.83273C11.045 3.00746 10.8081 3.10574 10.561 3.106V3.106Z" fill="white"/>
<path d="M14.288 6.52299H6.422C6.2908 6.07481 6.01788 5.68123 5.64414 5.40121C5.27041 5.1212 4.81599 4.96985 4.349 4.96985C3.88201 4.96985 3.42759 5.1212 3.05386 5.40121C2.68012 5.68123 2.4072 6.07481 2.276 6.52299H0.621C0.456301 6.52299 0.298347 6.58843 0.181887 6.7049C0.0654266 6.82136 0 6.9793 0 7.144C0 7.3087 0.0654266 7.46665 0.181887 7.58311C0.298347 7.69957 0.456301 7.765 0.621 7.765H2.276C2.4072 8.21318 2.68012 8.60678 3.05386 8.8868C3.42759 9.16681 3.88201 9.31815 4.349 9.31815C4.81599 9.31815 5.27041 9.16681 5.64414 8.8868C6.01788 8.60678 6.2908 8.21318 6.422 7.765H14.289C14.4537 7.765 14.6117 7.69957 14.7281 7.58311C14.8446 7.46665 14.91 7.3087 14.91 7.144C14.91 6.9793 14.8446 6.82136 14.7281 6.7049C14.6117 6.58843 14.4537 6.52299 14.289 6.52299H14.288ZM4.348 8.076C4.16367 8.076 3.98348 8.02134 3.83021 7.91893C3.67694 7.81652 3.55749 7.67096 3.48694 7.50066C3.4164 7.33036 3.39795 7.14296 3.43391 6.96217C3.46987 6.78138 3.55863 6.61533 3.68898 6.48499C3.81932 6.35464 3.98539 6.26587 4.16618 6.2299C4.34697 6.19394 4.53436 6.2124 4.70466 6.28294C4.87496 6.35348 5.02052 6.47294 5.12293 6.62621C5.22534 6.77947 5.28 6.95967 5.28 7.144C5.27974 7.39092 5.1816 7.62769 5.00709 7.80238C4.83257 7.97708 4.59593 8.07547 4.349 8.076H4.348Z" fill="white"/>
</g>
<defs>
<clipPath id="clip0_1_98">
<rect width="14.91" height="14.288" fill="white"/>
</clipPath>
</defs>
</svg>
