<svg width="23" height="23" viewBox="0 0 23 23" fill="none" xmlns="http://www.w3.org/2000/svg">
<g clip-path="url(#clip0_1_109)">
<path d="M22.2835 15.8878C21.5692 15.8904 20.8612 15.7606 20.2004 15.5057C19.5396 15.2508 18.9388 14.8759 18.4326 14.4025C17.9265 13.9334 17.5251 13.3743 17.2517 12.7578C16.9784 12.1414 16.8386 11.4799 16.8406 10.8121C16.8406 10.6335 16.765 10.4622 16.6306 10.3359C16.4961 10.2096 16.3137 10.1386 16.1235 10.1386C15.9333 10.1386 15.7509 10.2096 15.6164 10.3359C15.4819 10.4622 15.4064 10.6335 15.4064 10.8121C15.4084 11.48 15.2687 12.1416 14.9953 12.7581C14.722 13.3747 14.3205 13.9339 13.8143 14.4031C13.3081 14.8764 12.7073 15.2513 12.0465 15.5062C11.3857 15.7611 10.6778 15.891 9.96342 15.8885C9.77322 15.8885 9.59082 15.9594 9.45634 16.0857C9.32185 16.212 9.24629 16.3833 9.24629 16.562C9.24629 16.7406 9.32185 16.9119 9.45634 17.0382C9.59082 17.1645 9.77322 17.2355 9.96342 17.2355C11.4035 17.2345 12.7851 17.7699 13.8055 18.7242C14.8258 19.6786 15.4015 20.9741 15.4064 22.3265C15.4064 22.5051 15.4819 22.6764 15.6164 22.8027C15.7509 22.929 15.9333 23 16.1235 23C16.3137 23 16.4961 22.929 16.6306 22.8027C16.765 22.6764 16.8406 22.5051 16.8406 22.3265C16.8451 20.974 17.4207 19.6783 18.4411 18.7239C19.4615 17.7695 20.8434 17.2342 22.2835 17.2355C22.4737 17.2355 22.6561 17.1645 22.7906 17.0382C22.9251 16.9119 23.0007 16.7406 23.0007 16.562C23.0007 16.3833 22.9251 16.212 22.7906 16.0857C22.6561 15.9594 22.4737 15.8885 22.2835 15.8885V15.8878ZM16.1228 19.4641C15.4535 18.2091 14.3691 17.1917 13.032 16.5644C14.3669 15.9405 15.4512 14.9278 16.1228 13.6775C16.7945 14.9278 17.8787 15.9405 19.2136 16.5644C17.8763 17.1921 16.7918 18.2102 16.1228 19.466V19.4641Z" fill="white"/>
<path d="M9.81607 10.6186C8.80375 10.6211 7.83172 10.2463 7.11322 9.57657C6.39471 8.90682 5.98839 7.99676 5.98339 7.04602C5.98339 6.8674 5.90784 6.69609 5.77335 6.56979C5.63886 6.44348 5.45646 6.37253 5.26627 6.37253C5.07608 6.37253 4.89368 6.44348 4.75919 6.56979C4.6247 6.69609 4.54915 6.8674 4.54915 7.04602C4.54415 7.99665 4.13792 8.90662 3.41955 9.57635C2.70119 10.2461 1.72933 10.6209 0.71712 10.6186C0.526928 10.6186 0.344526 10.6896 0.21004 10.8159C0.0755535 10.9422 0 11.1135 0 11.2921C0 11.4708 0.0755535 11.6421 0.21004 11.7684C0.344526 11.8947 0.526928 11.9656 0.71712 11.9656C1.73111 11.9647 2.7041 12.3415 3.42263 13.0134C4.14115 13.6854 4.54652 14.5976 4.5498 15.5499C4.5498 15.6383 4.56835 15.7259 4.60439 15.8076C4.64043 15.8893 4.69325 15.9636 4.75984 16.0261C4.82643 16.0886 4.90549 16.1383 4.99249 16.1721C5.0795 16.206 5.17275 16.2234 5.26692 16.2234C5.3611 16.2234 5.45435 16.206 5.54135 16.1721C5.62836 16.1383 5.70741 16.0886 5.774 16.0261C5.84059 15.9636 5.89342 15.8893 5.92945 15.8076C5.96549 15.7259 5.98404 15.6383 5.98404 15.5499C5.98732 14.5976 6.39269 13.6854 7.11122 13.0134C7.82974 12.3415 8.80274 11.9647 9.81672 11.9656C10.0069 11.9656 10.1893 11.8947 10.3238 11.7684C10.4583 11.6421 10.5338 11.4708 10.5338 11.2921C10.5338 11.1135 10.4583 10.9422 10.3238 10.8159C10.1893 10.6896 10.0069 10.6186 9.81672 10.6186H9.81607ZM5.26888 13.0677C4.81062 12.3338 4.15971 11.7225 3.37829 11.2921C4.15891 10.8634 4.80957 10.254 5.26823 9.52205C5.72698 10.2543 6.37788 10.8639 7.15882 11.2927C6.37736 11.7231 5.72643 12.3344 5.26823 13.0683L5.26888 13.0677Z" fill="white"/>
<path d="M10.9863 4.65633C11.7317 4.65275 12.4482 4.92739 12.978 5.41985C13.5079 5.91231 13.8078 6.58227 13.8117 7.28236C13.8117 7.46099 13.8873 7.63229 14.0218 7.7586C14.1563 7.88491 14.3387 7.95586 14.5289 7.95586C14.719 7.95586 14.9014 7.88491 15.0359 7.7586C15.1704 7.63229 15.246 7.46099 15.246 7.28236C15.2492 6.58262 15.5477 5.91262 16.0759 5.41914C16.6042 4.92566 17.3192 4.64894 18.0642 4.64959C18.2544 4.64959 18.4368 4.57864 18.5713 4.45233C18.7058 4.32603 18.7814 4.15472 18.7814 3.97609C18.7814 3.79747 18.7058 3.62616 18.5713 3.49986C18.4368 3.37355 18.2544 3.3026 18.0642 3.3026C17.6949 3.30429 17.3289 3.23761 16.987 3.10638C16.6451 2.97515 16.3341 2.78193 16.0718 2.53777C15.8095 2.29362 15.6009 2.0033 15.4581 1.68342C15.3153 1.36354 15.241 1.02036 15.2394 0.673499C15.2394 0.585054 15.2209 0.497475 15.1849 0.415762C15.1488 0.33405 15.096 0.259804 15.0294 0.197263C14.9628 0.134723 14.8838 0.0851136 14.7968 0.0512671C14.7098 0.0174206 14.6165 0 14.5223 0C14.4282 0 14.3349 0.0174206 14.2479 0.0512671C14.1609 0.0851136 14.0818 0.134723 14.0152 0.197263C13.9487 0.259804 13.8958 0.33405 13.8598 0.415762C13.8238 0.497475 13.8052 0.585054 13.8052 0.673499C13.8019 1.37325 13.5035 2.04325 12.9752 2.53672C12.447 3.0302 11.732 3.30692 10.9869 3.30627C10.7967 3.30627 10.6143 3.37723 10.4798 3.50353C10.3454 3.62984 10.2698 3.80115 10.2698 3.97977C10.2698 4.15839 10.3454 4.3297 10.4798 4.456C10.6143 4.58231 10.7967 4.65327 10.9869 4.65327L10.9863 4.65633ZM14.5236 2.88074C14.8342 3.3122 15.2309 3.68295 15.6919 3.97242C15.228 4.26446 14.8294 4.63884 14.5184 5.07451C14.2086 4.64206 13.8123 4.27026 13.3515 3.97977C13.8154 3.68774 14.214 3.31336 14.5249 2.87768L14.5236 2.88074Z" fill="white"/>
</g>
<defs>
<clipPath id="clip0_1_109">
<rect width="23" height="23" fill="white"/>
</clipPath>
</defs>
</svg>
