<svg width="17" height="14" viewBox="0 0 17 14" fill="none" xmlns="http://www.w3.org/2000/svg">
<g clip-path="url(#clip0_1_114)">
<path d="M15.385 7.684C15.556 7.67851 15.7178 7.60541 15.835 7.48074C15.9522 7.35607 16.0151 7.19001 16.01 7.019V2.661C16.0297 1.97706 15.7777 1.31316 15.3092 0.814495C14.8407 0.315829 14.1938 0.0229823 13.51 0H2.5C1.81616 0.0229823 1.16926 0.315829 0.700763 0.814495C0.232268 1.31316 -0.0196891 1.97706 -3.13018e-06 2.661V10.345C-0.0196891 11.0289 0.232268 11.6928 0.700763 12.1915C1.16926 12.6902 1.81616 12.983 2.5 13.006H13.509C14.1928 12.983 14.8397 12.6902 15.3082 12.1915C15.7767 11.6928 16.0287 11.0289 16.009 10.345C16.0149 10.2592 16.0032 10.1731 15.9744 10.0921C15.9457 10.011 15.9006 9.93677 15.8419 9.8739C15.7833 9.81103 15.7123 9.76089 15.6334 9.72662C15.5546 9.69234 15.4695 9.67465 15.3835 9.67465C15.2975 9.67465 15.2124 9.69234 15.1336 9.72662C15.0547 9.76089 14.9837 9.81103 14.9251 9.8739C14.8664 9.93677 14.8213 10.011 14.7926 10.0921C14.7638 10.1731 14.7521 10.2592 14.758 10.345C14.768 10.6872 14.6419 11.0195 14.4074 11.2689C14.173 11.5184 13.8492 11.6648 13.507 11.676H2.5C2.15782 11.6648 1.83403 11.5184 1.59955 11.2689C1.36508 11.0195 1.23902 10.6872 1.249 10.345V2.8L6.684 6.4C7.07419 6.66341 7.53422 6.80415 8.005 6.80415C8.47578 6.80415 8.9358 6.66341 9.326 6.4L14.759 2.8V7.017C14.7562 7.10192 14.7702 7.18658 14.8001 7.26609C14.8301 7.34561 14.8755 7.41843 14.9336 7.48038C14.9918 7.54234 15.0616 7.59222 15.139 7.62716C15.2165 7.6621 15.3001 7.68141 15.385 7.684V7.684ZM8.666 5.266C8.47093 5.39777 8.2409 5.46818 8.0055 5.46818C7.77009 5.46818 7.54007 5.39777 7.345 5.266L1.773 1.58C1.98168 1.41838 2.23804 1.33047 2.502 1.33H13.509C13.773 1.33047 14.0293 1.41838 14.238 1.58L8.666 5.266Z" fill="white"/>
</g>
<defs>
<clipPath id="clip0_1_114">
<rect width="16.01" height="13.006" fill="white"/>
</clipPath>
</defs>
</svg>
