<svg width="19" height="20" viewBox="0 0 19 20" fill="none" xmlns="http://www.w3.org/2000/svg">
<path d="M14.3808 18.1248C14.3314 18.0353 14.2502 17.9701 14.1552 17.9435C14.0601 17.9169 13.9589 17.9311 13.8738 17.9831L13.8593 17.992C13.8152 18.0166 13.7762 18.0503 13.7448 18.0912C13.7133 18.1321 13.69 18.1792 13.6763 18.2298C13.6625 18.2803 13.6586 18.3333 13.6648 18.3855C13.6709 18.4377 13.6871 18.488 13.7121 18.5335C13.7372 18.579 13.7707 18.6187 13.8107 18.6502C13.8507 18.6817 13.8963 18.7044 13.9448 18.7169C13.9934 18.7294 14.0438 18.7315 14.0931 18.723C14.1424 18.7145 14.1895 18.6956 14.2317 18.6675L14.2462 18.6586C14.3312 18.6066 14.3932 18.5211 14.4184 18.421C14.4436 18.3209 14.4301 18.2144 14.3808 18.1248V18.1248Z" fill="white"/>
<path d="M17.7223 4.99994C16.7831 3.28714 15.3826 1.90603 13.6979 1.03128C12.0131 0.156521 10.1199 -0.172593 8.25749 0.0855539C6.39511 0.343701 4.64726 1.17751 3.23498 2.48155C1.8227 3.78558 0.809417 5.50127 0.323274 7.41164C-0.129627 9.19241 -0.106239 11.0703 0.390854 12.838C0.887947 14.6056 1.8394 16.1943 3.14014 17.4284C4.44087 18.6625 6.04026 19.494 7.76167 19.8313C9.48308 20.1685 11.2595 19.9982 12.8948 19.3392C12.9849 19.3007 13.0571 19.2265 13.0958 19.1326C13.1346 19.0387 13.1367 18.9325 13.1018 18.8369C13.0669 18.7413 12.9978 18.6639 12.9093 18.6214C12.8208 18.5789 12.72 18.5747 12.6286 18.6097C11.2505 19.1734 9.75867 19.358 8.29397 19.1461C6.82927 18.9341 5.44004 18.3327 4.25746 17.3984L4.59003 15.5714L4.74998 15.5167C5.04039 15.4161 5.28111 15.1985 5.41946 14.9114C5.5578 14.6244 5.58251 14.2914 5.48817 13.9852L5.37047 13.6039C5.34315 13.5164 5.34315 13.422 5.37047 13.3344C5.42142 13.1707 5.43875 12.9975 5.4213 12.8263C5.40386 12.655 5.35204 12.4896 5.26929 12.341C5.18654 12.1924 5.07474 12.064 4.9413 11.9643C4.80786 11.8647 4.65582 11.796 4.49527 11.7629L3.65749 11.5906L2.04772 10.2974C2.00027 10.2587 1.94462 10.2328 1.88554 10.2217C1.82646 10.2106 1.76572 10.2148 1.70851 10.2339L0.762686 10.5573C0.743102 10.202 0.743102 9.8457 0.762686 9.49034C0.800109 9.52719 0.823045 9.55389 0.839342 9.56787C0.876623 9.63255 0.930205 9.68508 0.994136 9.71964C1.05807 9.75419 1.12984 9.76941 1.20149 9.7636C1.42416 9.7516 1.6459 9.72507 1.86544 9.68416C2.1787 9.63523 2.49015 9.58058 2.49317 9.57994C2.55458 9.56906 2.6124 9.54208 2.66132 9.5015C2.71023 9.46092 2.74866 9.40803 2.77307 9.34771C2.79747 9.28739 2.80708 9.22158 2.80099 9.15632C2.7949 9.09107 2.77332 9.02848 2.73823 8.97431L2.28312 8.27146L2.935 7.78086C2.97847 7.74809 3.01471 7.70582 3.04123 7.65694L4.04801 5.80384L4.45543 5.34437C4.65904 5.11334 4.79563 4.82581 4.84911 4.51571C4.90258 4.20561 4.8707 3.88587 4.75723 3.59422C4.6208 3.24738 4.3846 2.95425 4.08181 2.75601C5.59755 1.5006 7.46496 0.80799 9.39338 0.785978L8.72944 1.66105L6.27585 2.56663C6.22647 2.58483 6.18131 2.61383 6.14334 2.65173C6.10536 2.68963 6.07544 2.73556 6.05554 2.78651L5.36745 4.53793C5.34345 4.59916 5.33463 4.66581 5.34181 4.73162C5.34899 4.79743 5.37194 4.86024 5.4085 4.91415L6.41045 6.3923C6.24178 6.57163 6.09091 6.76859 5.96018 6.98014C5.88714 7.08944 5.81773 7.19303 5.77005 7.25086C5.72236 7.30869 5.68675 7.35063 5.64571 7.39893C5.40701 7.65701 5.20586 7.95081 5.04876 8.27082C4.87725 8.6442 4.80361 9.05904 4.83545 9.47243C4.86728 9.88582 5.00344 10.2827 5.22984 10.6222C5.45044 10.944 5.74988 11.1967 6.0962 11.3534C6.44253 11.51 6.82275 11.5648 7.19632 11.5118C7.31848 11.4944 7.43944 11.4687 7.55848 11.4349C7.87657 11.3523 7.97737 11.3441 8.07937 11.4445C8.12887 11.4934 8.1337 11.5029 8.13249 11.6688C8.12777 11.7988 8.13893 11.9288 8.16569 12.0558C8.224 12.2613 8.33218 12.4473 8.47955 12.5954C8.53174 12.649 8.577 12.7097 8.61415 12.7758C8.66218 12.9061 8.683 13.0457 8.67518 13.1852C8.66737 13.3247 8.63112 13.4608 8.56888 13.5842L8.53991 13.677C8.44181 14.2186 8.54116 14.7793 8.81816 15.2473C8.88516 15.403 8.94854 15.5491 8.99019 15.6788C9.32397 16.721 9.57385 16.9599 9.77485 17.0559C9.87665 17.1044 9.98723 17.1291 10.099 17.1283C10.6381 17.0412 11.1229 16.7342 11.4486 16.2736C11.5714 16.1074 11.6505 15.9102 11.678 15.7017C11.6856 15.6413 11.7017 15.5824 11.7256 15.5269C11.7605 15.4679 11.8009 15.4127 11.8464 15.3623C11.9845 15.2123 12.0877 15.0307 12.1482 14.8317C12.1916 14.67 12.2791 14.5253 12.3999 14.4154L12.4819 14.3226C12.6623 14.1371 12.782 13.896 12.8237 13.6343C12.8655 13.3725 12.8272 13.1035 12.7143 12.8661C12.6008 12.481 12.7994 12.2344 13.2793 11.7641C13.498 11.5645 13.6955 11.3406 13.8684 11.0962C13.954 10.9897 14.0131 10.8624 14.0405 10.7259C14.0679 10.5894 14.0627 10.4478 14.0253 10.3139C13.8913 9.98602 13.5497 9.93264 13.2757 9.88688C13.1647 9.87599 13.0557 9.84927 12.9515 9.80745C12.7178 9.59049 12.5433 9.31192 12.4457 9.00037C12.4186 8.93682 12.392 8.87327 12.3648 8.81354C12.3166 8.70487 12.2683 8.57395 12.2176 8.43224C12.1002 8.04081 11.9141 7.67606 11.6689 7.35698C11.3589 7.10022 10.9929 6.92897 10.6042 6.85876C10.4732 6.82126 10.3495 6.78631 10.268 6.75454C10.1998 6.72797 10.1257 6.72311 10.0549 6.74055C9.91256 6.76612 9.77746 6.82497 9.65956 6.91277C9.60175 6.96283 9.55639 7.02696 9.52738 7.09961C9.37629 7.01555 9.23015 6.92196 9.08978 6.81936L9.08254 6.81427C9.1128 6.68984 9.10106 6.5582 9.04934 6.44187C8.84231 5.9805 8.15422 6.01609 8.01841 6.0288C7.94115 6.03579 7.84397 6.03897 7.74076 6.04278C7.5784 6.04914 7.39973 6.05549 7.22228 6.07646L7.23133 6.04977C7.29753 5.85681 7.41854 5.68998 7.57793 5.57197C7.73733 5.45395 7.92737 5.39046 8.12223 5.39013H8.33348C8.42926 5.38606 8.51984 5.34314 8.58624 5.27035C8.65264 5.19756 8.68972 5.10055 8.68972 4.99962C8.68972 4.89869 8.65264 4.80168 8.58624 4.72889C8.51984 4.6561 8.42926 4.61318 8.33348 4.60911H8.12223C7.83446 4.6096 7.55155 4.68729 7.3002 4.83484C7.04886 4.98239 6.83737 5.19493 6.68569 5.45241L6.13401 4.63453L6.67724 3.2447L9.07952 2.35946C9.14553 2.33457 9.2035 2.2905 9.24671 2.23236L10.3169 0.824743C11.708 0.962379 13.0477 1.44872 14.2238 2.24309C15.3999 3.03747 16.3783 4.11678 17.077 5.39077C17.4616 6.092 17.7557 6.84405 17.9516 7.62707L17.7941 7.7745C17.6924 7.87025 17.6106 7.98706 17.5538 8.11762C17.497 8.24819 17.4664 8.38969 17.4639 8.53328C17.4639 8.53328 17.4639 8.53964 17.4639 8.54281L17.2074 7.80056C17.1694 7.69016 17.1128 7.5879 17.0402 7.4987L16.5833 6.93502C16.496 6.82718 16.3874 6.7406 16.2652 6.68124C16.1429 6.62188 16.0099 6.59116 15.8753 6.59121H15.3158C15.2185 6.59113 15.123 6.61887 15.0395 6.67147C14.9561 6.72406 14.8877 6.79954 14.8418 6.88984C14.7959 6.98014 14.7741 7.08188 14.7788 7.18418C14.7835 7.28649 14.8145 7.38553 14.8685 7.47074L14.9253 7.56034C14.5623 7.88872 14.1476 8.14787 13.7 8.32611L12.9328 6.77932V6.43425C12.9329 6.38139 12.9228 6.32907 12.9031 6.28045C12.8833 6.23184 12.8544 6.18795 12.8181 6.15145L12.1276 5.46067C12.0894 5.42244 12.044 5.3932 11.9942 5.37488L11.375 5.14292C11.3287 5.12449 11.2794 5.11598 11.2299 5.1179C11.1805 5.11982 11.1319 5.13213 11.087 5.1541C11.0422 5.17608 11.0019 5.20727 10.9687 5.24586C10.9354 5.28444 10.9098 5.32964 10.8934 5.37878C10.877 5.42793 10.8701 5.48004 10.8731 5.53204C10.8761 5.58404 10.8889 5.63489 10.9108 5.6816C10.9327 5.72831 10.9633 5.76993 11.0007 5.80401C11.0381 5.8381 11.0816 5.86397 11.1287 5.8801L11.6749 6.08218L12.1928 6.60265V6.87655C12.1928 6.93963 12.2073 7.00177 12.2351 7.05767L13.1954 8.99402C13.2371 9.07831 13.3066 9.14367 13.3908 9.17784C13.4751 9.21201 13.5683 9.21262 13.6529 9.17958L13.9324 9.07091C14.5861 8.816 15.18 8.41589 15.6737 7.89779C15.7344 7.83391 15.7722 7.74987 15.7807 7.65996C15.7891 7.57005 15.7678 7.47983 15.7202 7.40465L15.7003 7.37351H15.8777C15.905 7.37353 15.932 7.37979 15.9568 7.39186C15.9816 7.40393 16.0037 7.42152 16.0214 7.44341L16.4783 8.00709C16.4932 8.0259 16.5046 8.04744 16.5121 8.07064L17.0167 9.52783C17.038 9.58951 17.0738 9.64454 17.1207 9.68783C17.1676 9.73112 17.224 9.76128 17.2849 9.77553C17.3458 9.78978 17.4091 9.78765 17.4689 9.76935C17.5288 9.75105 17.5834 9.71716 17.6275 9.67082L17.869 9.41662C18.0212 9.25487 18.1275 9.05146 18.1756 8.82942C18.3656 10.4085 18.1655 12.0125 17.5945 13.4864C17.0235 14.9602 16.101 16.254 14.9162 17.2427C14.8425 17.308 14.7958 17.4008 14.7859 17.5016C14.776 17.6025 14.8037 17.7034 14.8631 17.7831C14.9226 17.8629 15.0091 17.9152 15.1045 17.929C15.1999 17.9428 15.2966 17.9171 15.3743 17.8572C17.1697 16.37 18.396 14.2514 18.8283 11.8897C19.2607 9.52795 18.8701 7.08126 17.7283 4.99803L17.7223 4.99994ZM1.75016 11.0428L3.28025 12.2674C3.32541 12.3036 3.37786 12.3284 3.43356 12.3399L4.35584 12.5305C4.41318 12.5423 4.46749 12.5668 4.51516 12.6024C4.56282 12.638 4.60276 12.6838 4.63233 12.7369C4.66189 12.79 4.68041 12.849 4.68664 12.9102C4.69288 12.9714 4.6867 13.0332 4.6685 13.0917C4.59199 13.3367 4.59199 13.601 4.6685 13.846L4.7862 14.2273C4.81987 14.3369 4.81089 14.456 4.76121 14.5586C4.71153 14.6612 4.62522 14.7388 4.52122 14.7745L4.15243 14.9016C4.08927 14.9232 4.03276 14.9622 3.98881 15.0146C3.94486 15.0671 3.91507 15.1309 3.90255 15.1996L3.60498 16.8284C2.93732 16.1848 2.36734 15.4373 1.91493 14.6118C1.36352 13.6087 0.997729 12.5046 0.836927 11.3581L1.75016 11.0428ZM3.91281 4.81183L3.47642 5.30434C3.45693 5.32636 3.43992 5.35067 3.42571 5.37679L2.43462 7.19875L1.55339 7.8622C1.47463 7.92164 1.42108 8.01115 1.40416 8.11161C1.38724 8.21206 1.4083 8.3155 1.46285 8.39983L1.79241 8.90822C1.60228 8.93809 1.43025 8.96224 1.31859 8.97559L1.25038 8.90822C1.16226 8.8218 1.03973 8.70677 0.856846 8.53837C1.16122 6.54222 2.07938 4.70641 3.47038 3.3127C3.6051 3.357 3.72896 3.43185 3.83324 3.53198C3.93753 3.63212 4.01969 3.7551 4.07397 3.89227C4.13341 4.04573 4.14982 4.21391 4.12126 4.37689C4.09269 4.53987 4.02035 4.69081 3.91281 4.81183V4.81183ZM6.93678 6.94645C7.20435 6.85419 7.48536 6.81267 7.76671 6.8238C7.87898 6.81936 7.98521 6.81554 8.07998 6.80728C8.13261 6.80293 8.18548 6.80293 8.23812 6.80728C8.20526 6.89629 8.20449 6.99489 8.23596 7.08446C8.26743 7.17403 8.32896 7.24837 8.40893 7.29343C8.47834 7.33283 8.57552 7.40083 8.67813 7.47264C8.94782 7.70116 9.26618 7.8573 9.60585 7.92766C9.70035 7.93409 9.79499 7.91748 9.8824 7.87912C9.96981 7.84077 10.0476 7.7817 10.1098 7.7065L10.1255 7.68998C10.1664 7.65498 10.2002 7.61178 10.2251 7.56288L10.4104 7.6169C10.6624 7.67038 10.905 7.76493 11.1293 7.89715C11.3038 8.1457 11.4376 8.42321 11.5253 8.71821C11.5808 8.87009 11.6339 9.01372 11.693 9.14653C11.7184 9.20373 11.7431 9.26219 11.7685 9.32193C11.9152 9.77523 12.1854 10.1731 12.5453 10.4658C12.7354 10.5773 12.9459 10.6449 13.1628 10.6641L13.2437 10.6774C13.1028 10.8661 12.9451 11.0401 12.7729 11.1973C12.3135 11.6478 11.7419 12.2083 12.0051 13.1038C12.1294 13.5257 12.1349 13.5715 11.9351 13.8028L11.8584 13.8892C11.6613 14.0841 11.517 14.3306 11.4401 14.6035C11.4099 14.6981 11.3581 14.7834 11.2893 14.852C11.2107 14.9405 11.1411 15.0374 11.0816 15.1411C11.0144 15.2702 10.969 15.4106 10.9476 15.5561C10.941 15.6381 10.9144 15.7169 10.8704 15.7849C10.7351 15.9533 10.5773 16.1002 10.402 16.2209C10.3119 16.2938 10.2042 16.3389 10.0911 16.3511C9.906 16.0734 9.77059 15.7624 9.69155 15.4335C9.63783 15.2663 9.5642 15.0948 9.49237 14.9283C9.31305 14.6286 9.22852 14.2769 9.25094 13.9235L9.2787 13.8339C9.37012 13.6222 9.41947 13.393 9.42373 13.1605C9.42798 12.9279 9.38705 12.6969 9.30345 12.4816C9.23775 12.3285 9.14658 12.1891 9.03425 12.0698C8.97651 12.0128 8.92853 11.9457 8.8924 11.8715C8.88103 11.8064 8.87698 11.74 8.88033 11.6739C8.89361 11.5263 8.87455 11.3775 8.82464 11.2389C8.77473 11.1003 8.69528 10.9756 8.59242 10.8744C8.4267 10.7302 8.22709 10.6357 8.01463 10.6009C7.80218 10.5662 7.58474 10.5924 7.38525 10.6768C7.2961 10.7021 7.20561 10.7219 7.11424 10.7359C6.87228 10.7736 6.62515 10.7404 6.39988 10.6401C6.17462 10.5398 5.97991 10.3762 5.83705 10.1671C5.68714 9.94095 5.5974 9.67667 5.57713 9.40169C5.55686 9.12671 5.6068 8.85102 5.72176 8.60319C5.85038 8.35086 6.01302 8.11947 6.20463 7.91622C6.24748 7.86538 6.29094 7.8139 6.3344 7.76116C6.40683 7.67346 6.48651 7.55462 6.5704 7.42879C6.67541 7.2544 6.79827 7.09265 6.93678 6.94645Z" fill="white"/>
<path d="M15.2107 13.4469L15.0297 12.7383C15.0106 12.6627 14.9703 12.5949 14.9142 12.5436C14.8581 12.4923 14.7886 12.46 14.7148 12.4507C14.641 12.4415 14.5662 12.4558 14.5002 12.4918C14.4342 12.5277 14.38 12.5838 14.3446 12.6525C14.3042 12.7314 14.2674 12.8152 14.2317 12.8959C14.1837 13.0214 14.1215 13.1402 14.0464 13.2499C13.9809 13.3069 13.9074 13.3528 13.8285 13.3859C13.6876 13.4378 13.5592 13.5216 13.4524 13.6314C13.3456 13.7412 13.263 13.8743 13.2105 14.0214C13.1596 14.2002 13.1512 14.3893 13.1857 14.5724C13.2068 14.6481 13.2034 14.729 13.1761 14.8024L13.1724 14.8113C13.0614 15.0064 13.0003 15.2284 12.9951 15.4557C12.9899 15.6831 13.0408 15.9079 13.1429 16.1084C13.2064 16.2277 13.2975 16.3283 13.4078 16.4007C13.518 16.4731 13.6439 16.5151 13.7736 16.5227C13.8068 16.5228 13.8399 16.5201 13.8726 16.5144C14.2511 16.4509 14.5365 16.0347 14.7683 15.2098L15.2047 13.6611C15.2256 13.5917 15.2277 13.5175 15.2107 13.4469V13.4469ZM14.0597 14.9848C14.002 15.2342 13.9062 15.472 13.776 15.6889C13.7688 15.6794 13.7615 15.6693 13.7531 15.6565C13.6825 15.5504 13.7881 15.2886 13.8581 15.1151L13.8617 15.1062C13.9441 14.9008 13.9651 14.6738 13.9221 14.4554C13.906 14.3889 13.906 14.3192 13.9221 14.2527C13.9366 14.2038 14.0235 14.1568 14.1545 14.0901C14.2148 14.0608 14.2752 14.0265 14.341 13.989L14.0597 14.9848Z" fill="white"/>
<path d="M10.0139 4.63961L9.98912 4.63007C9.89722 4.59968 9.79769 4.60808 9.71157 4.65351C9.62545 4.69894 9.55948 4.77784 9.52759 4.87354C9.4957 4.96924 9.50039 5.07424 9.54067 5.16637C9.58095 5.25849 9.65366 5.33052 9.74345 5.36725L9.76821 5.37678C9.81461 5.39575 9.86415 5.40471 9.91391 5.40311C9.96367 5.40152 10.0126 5.3894 10.0578 5.36748C10.103 5.34557 10.1436 5.3143 10.1771 5.27554C10.2106 5.23678 10.2364 5.19132 10.2529 5.14186C10.2694 5.09241 10.2762 5.03997 10.2731 4.98766C10.2699 4.93536 10.2568 4.88425 10.2345 4.83739C10.2122 4.79054 10.1812 4.74888 10.1433 4.7149C10.1054 4.68092 10.0613 4.65532 10.0139 4.63961V4.63961Z" fill="white"/>
</svg>
