<svg width="30" height="30" viewBox="0 0 30 30" fill="none" xmlns="http://www.w3.org/2000/svg">
<path d="M5.73684 1C4.78158 1 4 1.78158 4 2.73684V27.0526C4 28.0079 4.78158 28.7895 5.73684 28.7895H24.2632C25.2184 28.7895 26 28.0079 26 27.0526V2.73684C26 1.78158 25.2184 1 24.2632 1H5.73684ZM24.8421 2.73684V27.0526C24.8421 27.371 24.5816 27.6316 24.2632 27.6316H5.73684C5.41842 27.6316 5.15789 27.371 5.15789 27.0526V2.73684C5.15789 2.41842 5.41842 2.15789 5.73684 2.15789H24.2632C24.5816 2.15789 24.8421 2.41842 24.8421 2.73684Z" fill="white"/>
<path d="M15.0002 9.10527C16.5981 9.10527 17.8949 7.80843 17.8949 6.21053C17.8949 4.61264 16.5981 3.3158 15.0002 3.3158C13.4023 3.3158 12.1055 4.61264 12.1055 6.21053C12.1055 7.80843 13.4023 9.10527 15.0002 9.10527ZM15.0002 4.47369C15.9555 4.47369 16.737 5.25527 16.737 6.21053C16.737 7.1658 15.9555 7.94737 15.0002 7.94737C14.0449 7.94737 13.2634 7.1658 13.2634 6.21053C13.2634 5.25527 14.0449 4.47369 15.0002 4.47369Z" fill="white"/>
<path d="M10.9476 14.3158H19.0529C19.3713 14.3158 19.6318 14.0553 19.6318 13.7368V12.0637C19.6318 10.7553 18.5665 9.6842 17.2523 9.6842H12.7423C11.4339 9.6842 10.3687 10.7495 10.3687 12.0637V13.7368C10.3687 14.0553 10.6292 14.3158 10.9476 14.3158ZM11.5265 12.0637C11.5265 11.3921 12.0765 10.8421 12.7481 10.8421H17.2581C17.9297 10.8421 18.4797 11.3921 18.4797 12.0637V13.1579H11.5265V12.0637Z" fill="white"/>
<path d="M21.9473 16.0526H8.05258C7.73416 16.0526 7.47363 16.3131 7.47363 16.6316C7.47363 16.95 7.73416 17.2105 8.05258 17.2105H21.9473C22.2657 17.2105 22.5263 16.95 22.5263 16.6316C22.5263 16.3131 22.2657 16.0526 21.9473 16.0526Z" fill="white"/>
<path d="M21.9473 18.9474H8.05258C7.73416 18.9474 7.47363 19.2079 7.47363 19.5263C7.47363 19.8448 7.73416 20.1053 8.05258 20.1053H21.9473C22.2657 20.1053 22.5263 19.8448 22.5263 19.5263C22.5263 19.2079 22.2657 18.9474 21.9473 18.9474Z" fill="white"/>
<path d="M21.9473 21.8422H8.05258C7.73416 21.8422 7.47363 22.1027 7.47363 22.4211C7.47363 22.7395 7.73416 23.0001 8.05258 23.0001H21.9473C22.2657 23.0001 22.5263 22.7395 22.5263 22.4211C22.5263 22.1027 22.2657 21.8422 21.9473 21.8422Z" fill="white"/>
<path d="M21.9473 24.7369H8.05258C7.73416 24.7369 7.47363 24.9975 7.47363 25.3159C7.47363 25.6343 7.73416 25.8948 8.05258 25.8948H21.9473C22.2657 25.8948 22.5263 25.6343 22.5263 25.3159C22.5263 24.9975 22.2657 24.7369 21.9473 24.7369Z" fill="white"/>
</svg>
