<svg width="30" height="30" viewBox="0 0 30 30" fill="none" xmlns="http://www.w3.org/2000/svg">
<path d="M20.7925 14.2075L15.94 22.6125C15.7463 22.9487 15.6325 23.325 15.61 23.7125C15.5775 24.2425 15.5075 25.4037 15.4425 26.5025C15.385 27.4475 15.8675 28.3438 16.6875 28.8175C17.5075 29.2913 18.525 29.26 19.315 28.7387C20.2337 28.1312 21.205 27.4913 21.6475 27.1988C21.9712 26.985 22.2412 26.6987 22.435 26.3625L27.2875 17.9575C27.9775 16.7612 27.5687 15.2325 26.3725 14.5425L24.2075 13.2925C23.0112 12.6025 21.4825 13.0112 20.7925 14.2075ZM25 9.97625V6.25C25 4.17875 23.3212 2.5 21.25 2.5H8.75C7.755 2.5 6.80125 2.895 6.09875 3.59875C5.395 4.30125 5 5.255 5 6.25V23.75C5 25.8212 6.67875 27.5 8.75 27.5H12.425C13.115 27.5 13.675 26.94 13.675 26.25C13.675 25.56 13.115 25 12.425 25H8.75C8.06 25 7.5 24.44 7.5 23.75V6.25C7.5 5.91875 7.63125 5.6 7.86625 5.36625C8.1 5.13125 8.41875 5 8.75 5H21.25C21.94 5 22.5 5.56 22.5 6.25V9.97625C22.5 10.6663 23.06 11.2263 23.75 11.2263C24.44 11.2263 25 10.6663 25 9.97625ZM22.9575 15.4575L25.1225 16.7075L20.27 25.1125L17.9375 26.6525L18.105 23.8625L22.9575 15.4575ZM11.25 21.25H13.9687C14.6587 21.25 15.2187 20.69 15.2187 20C15.2187 19.31 14.6587 18.75 13.9687 18.75H11.25C10.56 18.75 10 19.31 10 20C10 20.69 10.56 21.25 11.25 21.25ZM11.25 16.25H16.6875C17.3775 16.25 17.9375 15.69 17.9375 15C17.9375 14.31 17.3775 13.75 16.6875 13.75H11.25C10.56 13.75 10 14.31 10 15C10 15.69 10.56 16.25 11.25 16.25ZM11.25 11.25H18.75C19.44 11.25 20 10.69 20 10C20 9.31 19.44 8.75 18.75 8.75H11.25C10.56 8.75 10 9.31 10 10C10 10.69 10.56 11.25 11.25 11.25Z" fill="white"/>
</svg>
