<svg width="30" height="30" viewBox="0 0 30 30" fill="none" xmlns="http://www.w3.org/2000/svg">
<g clip-path="url(#clip0_1324_733)">
<path d="M29.7425 16.195L25.6408 12.0934C25.476 11.9286 25.2524 11.8359 25.0194 11.8359H18.8672C17.5748 11.8359 16.5234 12.8873 16.5234 14.1797V27.6562C16.5234 28.9486 17.5748 30 18.8672 30H27.6562C28.9486 30 30 28.9486 30 27.6562V16.8165C30 16.5833 29.9074 16.3598 29.7425 16.195ZM25.8984 14.8368L26.9991 15.9375H25.8984V14.8368ZM27.6562 28.2422H18.8672C18.5441 28.2422 18.2812 27.9793 18.2812 27.6562V14.1797C18.2812 13.8566 18.5441 13.5938 18.8672 13.5938H24.1406V16.8164C24.1406 17.3018 24.5341 17.6953 25.0195 17.6953H28.2422V27.6562C28.2422 27.9793 27.9793 28.2422 27.6562 28.2422Z" fill="white"/>
<path d="M9.11742 0.257461C8.9526 0.0925781 8.729 0 8.49592 0H2.34375C1.05141 0 0 1.05141 0 2.34375V15.8203C0 17.1127 1.05141 18.1641 2.34375 18.1641H11.1328C12.4252 18.1641 13.4766 17.1127 13.4766 15.8203V4.98053C13.4766 4.74738 13.3839 4.52385 13.2191 4.35908L9.11742 0.257461ZM9.375 3.00088L10.4757 4.10156H9.375V3.00088ZM11.1328 16.4062H2.34375C2.02066 16.4062 1.75781 16.1434 1.75781 15.8203V2.34375C1.75781 2.02066 2.02066 1.75781 2.34375 1.75781H7.61719V4.98047C7.61719 5.46586 8.0107 5.85938 8.49609 5.85938H11.7188V15.8203C11.7188 16.1434 11.4559 16.4062 11.1328 16.4062Z" fill="white"/>
<path d="M19.1246 6.18784C19.2962 6.35946 19.5211 6.4453 19.7461 6.4453C19.971 6.4453 20.1959 6.35946 20.3675 6.18784C20.7108 5.84465 20.7108 5.28813 20.3675 4.94489L19.5242 4.10155H19.7461C22.4923 4.10155 24.7265 6.33579 24.7265 9.08202C24.7265 9.56741 25.12 9.96092 25.6054 9.96092C26.0908 9.96092 26.4843 9.56741 26.4843 9.08202C26.4843 5.36653 23.4616 2.34374 19.7461 2.34374H19.5242L20.3676 1.50034C20.7108 1.15715 20.7108 0.60063 20.3676 0.257388C20.0244 -0.0857959 19.4679 -0.0857959 19.1246 0.257388L16.7809 2.60114C16.4376 2.94432 16.4376 3.50084 16.7809 3.84409L19.1246 6.18784Z" fill="white"/>
<path d="M10.8754 23.8121C10.5322 23.469 9.97564 23.469 9.6324 23.8121C9.28916 24.1553 9.28916 24.7119 9.6324 25.0551L10.4758 25.8984H10.2539C7.50768 25.8984 5.27344 23.6642 5.27344 20.918C5.27344 20.4326 4.87992 20.0391 4.39453 20.0391C3.90914 20.0391 3.51562 20.4326 3.51562 20.918C3.51562 24.6335 6.53842 27.6562 10.2539 27.6562H10.4758L9.63246 28.4996C9.28922 28.8428 9.28922 29.3994 9.63246 29.7426C9.80402 29.9142 10.029 30 10.2539 30C10.4788 30 10.7038 29.9142 10.8754 29.7425L13.2191 27.3988C13.5623 27.0556 13.5623 26.4991 13.2191 26.1558L10.8754 23.8121Z" fill="white"/>
<path d="M25.6055 19.4531H20.918C20.4326 19.4531 20.0391 19.8466 20.0391 20.332C20.0391 20.8174 20.4326 21.2109 20.918 21.2109H25.6055C26.0909 21.2109 26.4844 20.8174 26.4844 20.332C26.4844 19.8466 26.0909 19.4531 25.6055 19.4531Z" fill="white"/>
<path d="M25.6055 22.9688H20.918C20.4326 22.9688 20.0391 23.3623 20.0391 23.8477C20.0391 24.333 20.4326 24.7266 20.918 24.7266H25.6055C26.0909 24.7266 26.4844 24.333 26.4844 23.8477C26.4844 23.3623 26.0909 22.9688 25.6055 22.9688Z" fill="white"/>
<path d="M9.08203 7.61719H4.39453C3.90914 7.61719 3.51562 8.0107 3.51562 8.49609C3.51562 8.98148 3.90914 9.375 4.39453 9.375H9.08203C9.56742 9.375 9.96094 8.98148 9.96094 8.49609C9.96094 8.0107 9.56742 7.61719 9.08203 7.61719Z" fill="white"/>
<path d="M9.08203 11.1328H4.39453C3.90914 11.1328 3.51562 11.5263 3.51562 12.0117C3.51562 12.4971 3.90914 12.8906 4.39453 12.8906H9.08203C9.56742 12.8906 9.96094 12.4971 9.96094 12.0117C9.96094 11.5263 9.56742 11.1328 9.08203 11.1328Z" fill="white"/>
</g>
<defs>
<clipPath id="clip0_1324_733">
<rect width="30" height="30" fill="white"/>
</clipPath>
</defs>
</svg>
