<svg width="30" height="30" viewBox="0 0 30 30" fill="none" xmlns="http://www.w3.org/2000/svg">
<path d="M25.4841 2.70299C24.8759 2.0935 24.0671 1.75781 23.2065 1.75781H21.7529V1.46484C21.7529 0.657129 21.0958 0 20.2881 0H9.74121C8.9335 0 8.27637 0.657129 8.27637 1.46484V1.75781H6.81756C5.04445 1.75781 3.60029 3.20191 3.5983 4.97689L3.57422 26.7738C3.57328 27.6352 3.90768 28.4453 4.51582 29.0548C5.12403 29.6643 5.93291 30 6.79348 30H23.1824C24.9555 30 26.3997 28.5559 26.4016 26.7809L26.4258 4.98404C26.4268 4.12254 26.0923 3.31242 25.4841 2.70299V2.70299ZM10.0342 1.75781H19.9951V3.51562H10.0342V1.75781ZM24.6457 26.7789C24.6448 27.5858 23.9883 28.2422 23.1824 28.2422H6.79348C6.40231 28.2422 6.03463 28.0896 5.75819 27.8126C5.48174 27.5355 5.32975 27.1673 5.33016 26.7758L5.35424 4.97889C5.35512 4.17199 6.01154 3.51562 6.81756 3.51562H8.27637V3.80859C8.27637 4.61631 8.9335 5.27344 9.74121 5.27344H20.2881C21.0958 5.27344 21.7529 4.61631 21.7529 3.80859V3.51562H23.2065C23.5977 3.51562 23.9654 3.6682 24.2418 3.94523C24.5183 4.22227 24.6703 4.59053 24.6698 4.98205L24.6457 26.7789Z" fill="white"/>
<path d="M15.2988 11.7188H21.5432C22.0286 11.7188 22.4221 11.3252 22.4221 10.8398C22.4221 10.3545 22.0286 9.96094 21.5432 9.96094H15.2988C14.8134 9.96094 14.4199 10.3545 14.4199 10.8398C14.4199 11.3252 14.8134 11.7188 15.2988 11.7188V11.7188Z" fill="white"/>
<path d="M15.2988 17.5781H21.5432C22.0286 17.5781 22.4221 17.1846 22.4221 16.6992C22.4221 16.2138 22.0286 15.8203 21.5432 15.8203H15.2988C14.8134 15.8203 14.4199 16.2138 14.4199 16.6992C14.4199 17.1846 14.8134 17.5781 15.2988 17.5781V17.5781Z" fill="white"/>
<path d="M21.5684 21.6797H15.2988C14.8134 21.6797 14.4199 22.0732 14.4199 22.5586C14.4199 23.044 14.8134 23.4375 15.2988 23.4375H21.5684C22.0538 23.4375 22.4473 23.044 22.4473 22.5586C22.4473 22.0732 22.0538 21.6797 21.5684 21.6797Z" fill="white"/>
<path d="M11.5579 8.44676L9.53101 10.4736L9.05312 9.99568C8.70987 9.65244 8.15341 9.65244 7.81017 9.99568C7.46692 10.3389 7.46692 10.8954 7.81017 11.2386L8.90956 12.3381C9.07438 12.5029 9.29792 12.5955 9.53106 12.5955C9.76415 12.5955 9.98769 12.503 10.1525 12.3381L12.8009 9.68976C13.1441 9.34658 13.1441 8.79006 12.8009 8.44681C12.4576 8.10351 11.9012 8.10351 11.5579 8.44676V8.44676Z" fill="white"/>
<path d="M11.5579 14.7536L9.53101 16.7805L9.05312 16.3026C8.70987 15.9593 8.15341 15.9593 7.81017 16.3026C7.46692 16.6458 7.46692 17.2022 7.81017 17.5455L8.90956 18.645C9.07438 18.8098 9.29792 18.9024 9.53106 18.9024C9.76415 18.9024 9.98774 18.8099 10.1525 18.645L12.8009 15.9966C13.1441 15.6534 13.1441 15.0969 12.8009 14.7537C12.4576 14.4104 11.9011 14.4104 11.5579 14.7536V14.7536Z" fill="white"/>
<path d="M11.5579 20.613L9.53101 22.6398L9.05312 22.162C8.70987 21.8187 8.15341 21.8187 7.81017 22.162C7.46692 22.5051 7.46692 23.0616 7.81017 23.4049L8.90956 24.5044C9.07438 24.6692 9.29792 24.7618 9.53106 24.7618C9.76415 24.7618 9.98774 24.6692 10.1525 24.5044L12.8009 21.856C13.1441 21.5128 13.1441 20.9563 12.8009 20.613C12.4576 20.2698 11.9011 20.2698 11.5579 20.613V20.613Z" fill="white"/>
</svg>
