<svg width="14" height="18" viewBox="0 0 14 18" fill="none" xmlns="http://www.w3.org/2000/svg">
<g clip-path="url(#clip0_1_132)">
<path d="M9.309 8.78101H5.915V5.38101C5.91251 5.35936 5.90197 5.33944 5.88549 5.32518C5.86901 5.31092 5.84778 5.30337 5.826 5.30402C4.90975 5.32593 4.03912 5.7083 3.40305 6.36815C2.76698 7.028 2.41681 7.91209 2.42852 8.82852C2.44024 9.74496 2.8129 10.6198 3.46563 11.2632C4.11836 11.9065 4.9985 12.2665 5.915 12.265C6.82283 12.2651 7.69476 11.9104 8.34486 11.2768C8.99496 10.6431 9.37179 9.78055 9.395 8.87302C9.39568 8.86126 9.39397 8.84948 9.38996 8.83841C9.38596 8.82734 9.37974 8.8172 9.3717 8.80859C9.36366 8.79999 9.35396 8.79312 9.34318 8.78838C9.3324 8.78363 9.32077 8.78112 9.309 8.78101V8.78101Z" fill="white"/>
<path d="M13.547 3.305C13.5474 3.2178 13.5145 3.13374 13.455 3.07L13.449 3.064L10.537 0.1C10.4716 0.0439211 10.3907 0.00904666 10.305 0L1.03 0C0.7539 0.00342872 0.490424 0.116203 0.297343 0.313595C0.104262 0.510988 -0.00266568 0.776889 3.00297e-06 1.053V16.238C-0.00266568 16.5141 0.104262 16.78 0.297343 16.9774C0.490424 17.1748 0.7539 17.2876 1.03 17.291H12.517C12.7931 17.2876 13.0566 17.1748 13.2497 16.9774C13.4427 16.78 13.5497 16.5141 13.547 16.238V3.305ZM10.634 1.147L11.91 2.447L12.421 2.968H10.634V1.147ZM12.517 16.616H1.03C0.930454 16.6155 0.835181 16.5755 0.765071 16.5048C0.694961 16.4341 0.655739 16.3385 0.656005 16.239V1.053C0.655739 0.953451 0.694961 0.857859 0.765071 0.787187C0.835181 0.716514 0.930454 0.676529 1.03 0.676H9.978V3.3C9.97734 3.34373 9.9853 3.38717 10.0014 3.42782C10.0176 3.46847 10.0415 3.50555 10.072 3.53694C10.1024 3.56833 10.1388 3.59341 10.1789 3.61075C10.2191 3.62809 10.2623 3.63735 10.306 3.638H12.892V16.238C12.8923 16.2875 12.8828 16.3365 12.8641 16.3823C12.8453 16.4281 12.8178 16.4697 12.7829 16.5048C12.7481 16.5399 12.7067 16.5678 12.661 16.5869C12.6154 16.606 12.5665 16.6159 12.517 16.616V16.616Z" fill="white"/>
<path d="M7.35599 3.478C7.29944 3.47683 7.24323 3.48682 7.19055 3.50741C7.13787 3.528 7.08978 3.55879 7.04901 3.598C7.00897 3.63711 6.97704 3.68375 6.95508 3.73523C6.93311 3.78672 6.92152 3.84203 6.92099 3.898V7.292C6.92099 7.38137 6.95651 7.46709 7.01971 7.53029C7.08291 7.59349 7.16862 7.629 7.258 7.629H10.651C10.7075 7.62889 10.7635 7.61747 10.8155 7.59542C10.8676 7.57337 10.9147 7.54112 10.9541 7.50059C10.9935 7.46006 11.0245 7.41205 11.045 7.3594C11.0656 7.30675 11.0755 7.25051 11.074 7.194C11.0494 6.21586 10.6497 5.28461 9.95767 4.59292C9.26562 3.90124 8.33414 3.50207 7.35599 3.478V3.478ZM7.595 6.958V4.168C8.30887 4.24417 8.97511 4.5626 9.48276 5.07025C9.99041 5.5779 10.3088 6.24413 10.385 6.958H7.595Z" fill="white"/>
<path d="M10.415 14.196H3.131C3.04492 14.2007 2.96392 14.2382 2.90465 14.3008C2.84538 14.3634 2.81235 14.4463 2.81235 14.5325C2.81235 14.6187 2.84538 14.7016 2.90465 14.7642C2.96392 14.8268 3.04492 14.8643 3.131 14.869H10.415C10.5011 14.8643 10.5821 14.8268 10.6413 14.7642C10.7006 14.7016 10.7336 14.6187 10.7336 14.5325C10.7336 14.4463 10.7006 14.3634 10.6413 14.3008C10.5821 14.2382 10.5011 14.2007 10.415 14.196V14.196Z" fill="white"/>
</g>
<defs>
<clipPath id="clip0_1_132">
<rect width="13.547" height="17.291" fill="white"/>
</clipPath>
</defs>
</svg>
