<svg width="30" height="30" viewBox="0 0 30 30" fill="none" xmlns="http://www.w3.org/2000/svg">
<path d="M27.0626 12.7366L23.7253 9.98336V7.06137C23.7253 6.66059 23.4004 6.33619 23.0001 6.33619H19.3046L15.4616 3.1657C15.1933 2.94477 14.8066 2.94477 14.5382 3.1657L10.6953 6.33619H6.99975C6.59945 6.33619 6.27457 6.66059 6.27457 7.06137V9.98336L2.93729 12.7366L2.93536 12.7386C2.76417 12.8784 2.67188 13.0925 2.67188 13.2989V26.2748C2.67188 26.6725 2.99342 27 3.39706 27H26.6028C27.0198 27 27.328 26.6598 27.328 26.2748V13.2989C27.328 13.0364 27.203 12.8753 27.0626 12.7366V12.7366ZM25.8776 24.5938L19.672 18.7377C23.4598 16.2399 22.4543 16.9025 25.8776 14.6453V24.5938ZM4.61536 13.2331C5.61118 12.4117 5.24858 12.7109 6.27457 11.864V14.3272C5.36297 13.7255 4.97616 13.4713 4.61536 13.2331V13.2331ZM7.72493 7.78655H22.2749V15.2839C15.7672 19.5761 19.9099 16.8432 14.9999 20.0817C11.5055 17.7769 13.0844 18.8188 7.72493 15.2839C7.72493 14.3943 7.72493 8.66363 7.72493 7.78655ZM14.9999 4.66538L17.0251 6.33619H12.9748L14.9999 4.66538ZM25.3845 13.2331C25.0354 13.4636 24.6075 13.7449 23.7253 14.3272C23.7253 14.031 23.7253 12.1605 23.7253 11.864C24.7528 12.7122 24.3881 12.4112 25.3845 13.2331ZM4.12224 14.6453C4.12224 14.6453 10.1747 18.6367 10.3278 18.7377L4.12224 24.5938V14.6453ZM11.5713 19.5582L14.6006 21.5558C14.8429 21.715 15.1571 21.715 15.3993 21.5558L18.4286 19.5582L24.7778 25.5496H5.22209L11.5713 19.5582Z" fill="white"/>
<path d="M13.6134 12.3798C14.0147 12.3798 14.3385 12.0539 14.3385 11.6547C14.3385 11.2792 14.6474 10.9835 15.0163 10.9933C15.3635 11.0015 15.6531 11.2906 15.6613 11.6382C15.6717 12.0791 15.372 12.1384 15.0052 12.5727C14.5504 13.1082 14.2747 13.7915 14.2747 14.5689C14.2747 14.9676 14.5979 15.2941 14.9999 15.2941C15.3778 15.2941 15.7251 14.9999 15.7251 14.5462C15.7251 14.0952 15.9137 13.6523 16.3371 13.2887C16.8427 12.8748 17.1269 12.2601 17.1111 11.6039C17.0846 10.475 16.1795 9.57 15.0502 9.54341C13.8702 9.51358 12.8882 10.4623 12.8882 11.6547C12.8882 12.0549 13.2131 12.3798 13.6134 12.3798V12.3798Z" fill="white"/>
<path d="M15.0001 15.6494C14.5998 15.6494 14.2749 15.9738 14.2749 16.3746V16.7991C14.2749 17.2004 14.6005 17.5242 15.0001 17.5242C15.3999 17.5242 15.7253 17.2003 15.7253 16.7991V16.3746C15.7253 15.9738 15.4004 15.6494 15.0001 15.6494Z" fill="white"/>
</svg>
