<svg width="30" height="30" viewBox="0 0 30 30" fill="none" xmlns="http://www.w3.org/2000/svg">
<path d="M3.57422 1.75781H7.08984V0H1.81641V5.27344H3.57422V1.75781Z" fill="white"/>
<path d="M3.57422 24.7266H1.81641V30H7.08984V28.2422H3.57422V24.7266Z" fill="white"/>
<path d="M22.9102 0V1.75781H26.4258V5.27344H28.1836V0H22.9102Z" fill="white"/>
<path d="M26.4258 28.2422H22.9102V30H28.1836V24.7266H26.4258V28.2422Z" fill="white"/>
<path d="M22.9102 9.36252L17.1219 3.57422H7.08984V17.6367H1.81641V19.3945H7.08984V26.4258H22.9102V19.3945H28.1836V17.6367H22.9102V9.36252ZM17.6367 6.57492L19.9094 8.84766H17.6367V6.57492ZM8.84766 5.33203H15.8789V10.6055H21.1523V17.6367H8.84766V5.33203ZM21.1523 24.668H8.84766V19.3945H21.1523V24.668Z" fill="white"/>
<path d="M10.6055 10.6055H14.1211V12.3633H10.6055V10.6055Z" fill="white"/>
<path d="M10.6055 14.1211H19.3945V15.8789H10.6055V14.1211Z" fill="white"/>
<path d="M10.6055 21.1523H19.3945V22.9102H10.6055V21.1523Z" fill="white"/>
</svg>
