<svg width="30" height="30" viewBox="0 0 30 30" fill="none" xmlns="http://www.w3.org/2000/svg">
<g clip-path="url(#clip0_1324_784)">
<path d="M15.0586 13.3301H16.5234C17.0088 13.3301 17.4023 12.9366 17.4023 12.4512C17.4023 11.9658 17.0088 11.5723 16.5234 11.5723H15.0586C14.5732 11.5723 14.1797 11.9658 14.1797 12.4512C14.1797 12.9366 14.5732 13.3301 15.0586 13.3301Z" fill="white"/>
<path d="M11.3086 11.5723H9.84375C9.35836 11.5723 8.96484 11.9658 8.96484 12.4512C8.96484 12.9366 9.35836 13.3301 9.84375 13.3301H11.3086C11.794 13.3301 12.1875 12.9366 12.1875 12.4512C12.1875 11.9658 11.794 11.5723 11.3086 11.5723Z" fill="white"/>
<path d="M20.2734 13.3301H21.7383C22.2237 13.3301 22.6172 12.9366 22.6172 12.4512C22.6172 11.9658 22.2237 11.5723 21.7383 11.5723H20.2734C19.788 11.5723 19.3945 11.9658 19.3945 12.4512C19.3945 12.9366 19.788 13.3301 20.2734 13.3301Z" fill="white"/>
<path d="M6.09375 15.5273H4.62891C4.14352 15.5273 3.75 15.9209 3.75 16.4062C3.75 16.8916 4.14352 17.2852 4.62891 17.2852H6.09375C6.57914 17.2852 6.97266 16.8916 6.97266 16.4062C6.97266 15.9209 6.57914 15.5273 6.09375 15.5273Z" fill="white"/>
<path d="M11.3086 15.5273H9.84375C9.35836 15.5273 8.96484 15.9209 8.96484 16.4062C8.96484 16.8916 9.35836 17.2852 9.84375 17.2852H11.3086C11.794 17.2852 12.1875 16.8916 12.1875 16.4062C12.1875 15.9209 11.794 15.5273 11.3086 15.5273Z" fill="white"/>
<path d="M17.4023 16.4062C17.4023 15.9209 17.0088 15.5273 16.5234 15.5273H15.0586C14.5732 15.5273 14.1797 15.9209 14.1797 16.4062C14.1797 16.8916 14.5732 17.2852 15.0586 17.2852H16.5234C17.0088 17.2852 17.4023 16.8916 17.4023 16.4062Z" fill="white"/>
<path d="M6.09375 19.4824H4.62891C4.14352 19.4824 3.75 19.8759 3.75 20.3613C3.75 20.8467 4.14352 21.2402 4.62891 21.2402H6.09375C6.57914 21.2402 6.97266 20.8467 6.97266 20.3613C6.97266 19.8759 6.57914 19.4824 6.09375 19.4824Z" fill="white"/>
<path d="M11.3086 19.4824H9.84375C9.35836 19.4824 8.96484 19.8759 8.96484 20.3613C8.96484 20.8467 9.35836 21.2402 9.84375 21.2402H11.3086C11.794 21.2402 12.1875 20.8467 12.1875 20.3613C12.1875 19.8759 11.794 19.4824 11.3086 19.4824Z" fill="white"/>
<path d="M26.3672 16.3521V4.98047C26.3672 3.2035 24.9215 1.75781 23.1445 1.75781H21.4453V0.878906C21.4453 0.393516 21.0518 0 20.5664 0C20.081 0 19.6875 0.393516 19.6875 0.878906V1.75781H16.5234V0.878906C16.5234 0.393516 16.1299 0 15.6445 0C15.1591 0 14.7656 0.393516 14.7656 0.878906V1.75781H11.6016V0.878906C11.6016 0.393516 11.208 0 10.7227 0C10.2373 0 9.84375 0.393516 9.84375 0.878906V1.75781H6.67969V0.878906C6.67969 0.393516 6.28617 0 5.80078 0C5.31539 0 4.92188 0.393516 4.92188 0.878906V1.75781H3.22266C1.44568 1.75781 0 3.2035 0 4.98047V22.5586C0 24.0125 1.18283 25.1953 2.63672 25.1953H15.7982C16.8275 27.9964 19.5221 30 22.6758 30C26.7144 30 30 26.7144 30 22.6758C30 19.9825 28.5385 17.6245 26.3672 16.3521ZM1.75781 4.98047C1.75781 4.17275 2.41494 3.51562 3.22266 3.51562H4.92188V4.39453C4.92188 4.87992 5.31539 5.27344 5.80078 5.27344C6.28617 5.27344 6.67969 4.87992 6.67969 4.39453V3.51562H9.84375V4.39453C9.84375 4.87992 10.2373 5.27344 10.7227 5.27344C11.208 5.27344 11.6016 4.87992 11.6016 4.39453V3.51562H14.7656V4.39453C14.7656 4.87992 15.1591 5.27344 15.6445 5.27344C16.1299 5.27344 16.5234 4.87992 16.5234 4.39453V3.51562H19.6875V4.39453C19.6875 4.87992 20.081 5.27344 20.5664 5.27344C21.0518 5.27344 21.4453 4.87992 21.4453 4.39453V3.51562H23.1445C23.9522 3.51562 24.6094 4.17275 24.6094 4.98047V7.61719H1.75781V4.98047ZM2.63672 23.4375C2.15209 23.4375 1.75781 23.0432 1.75781 22.5586V9.375H24.6094V15.6111C23.9931 15.4423 23.3449 15.3516 22.6758 15.3516C18.6372 15.3516 15.3516 18.6372 15.3516 22.6758C15.3516 22.9329 15.365 23.1871 15.3911 23.4375H2.63672ZM22.6758 28.2422C19.6065 28.2422 17.1094 25.7451 17.1094 22.6758C17.1094 19.6065 19.6065 17.1094 22.6758 17.1094C25.7451 17.1094 28.2422 19.6065 28.2422 22.6758C28.2422 25.7451 25.7451 28.2422 22.6758 28.2422Z" fill="white"/>
<path d="M25.6055 21.7969H23.5547V19.7461C23.5547 19.2607 23.1612 18.8672 22.6758 18.8672C22.1904 18.8672 21.7969 19.2607 21.7969 19.7461V22.6758C21.7969 23.1612 22.1904 23.5547 22.6758 23.5547H25.6055C26.0909 23.5547 26.4844 23.1612 26.4844 22.6758C26.4844 22.1904 26.0909 21.7969 25.6055 21.7969Z" fill="white"/>
</g>
<defs>
<clipPath id="clip0_1324_784">
<rect width="30" height="30" fill="white"/>
</clipPath>
</defs>
</svg>
