<svg width="17" height="16" viewBox="0 0 17 16" fill="none" xmlns="http://www.w3.org/2000/svg">
<path d="M15.6589 3.76588H12.1899C12.0168 3.77257 11.853 3.84603 11.7329 3.97086C11.6128 4.09568 11.5458 4.26216 11.5458 4.43538C11.5458 4.60859 11.6128 4.77508 11.7329 4.8999C11.853 5.02473 12.0168 5.09819 12.1899 5.10488H14.8019L13.7689 9.23688L3.45888 9.84288L3.03188 5.10588H5.52588C5.69896 5.09919 5.86273 5.02573 5.98282 4.9009C6.10292 4.77608 6.17 4.60959 6.17 4.43638C6.17 4.26316 6.10292 4.09668 5.98282 3.97186C5.86273 3.84704 5.69896 3.77357 5.52588 3.76688H2.91188L2.72588 1.65588C2.7109 1.4893 2.63416 1.33434 2.51074 1.22146C2.38731 1.10859 2.22613 1.04596 2.05888 1.04588H0.69588C0.605783 1.0424 0.51591 1.05713 0.431644 1.08921C0.347378 1.12129 0.270454 1.17004 0.205478 1.23256C0.140503 1.29507 0.0888134 1.37005 0.0535061 1.45301C0.0181987 1.53598 0 1.62521 0 1.71538C0 1.80554 0.0181987 1.89478 0.0535061 1.97775C0.0888134 2.06071 0.140503 2.13569 0.205478 2.1982C0.270454 2.26072 0.347378 2.30947 0.431644 2.34155C0.51591 2.37363 0.605783 2.38836 0.69588 2.38488H1.44388L2.21388 10.9639C2.25095 11.3037 2.35528 11.6327 2.52078 11.9318C2.68629 12.2308 2.90966 12.494 3.17788 12.7059C2.96063 12.9841 2.81972 13.3142 2.76907 13.6635C2.71843 14.0129 2.7598 14.3694 2.8891 14.6978C3.0184 15.0263 3.23115 15.3154 3.50635 15.5364C3.78154 15.7575 4.10965 15.903 4.45826 15.9584C4.80687 16.0139 5.16392 15.9775 5.49413 15.8527C5.82435 15.728 6.11631 15.5192 6.34117 15.2471C6.56602 14.975 6.716 14.6489 6.77628 14.3011C6.83656 13.9533 6.80505 13.5958 6.68488 13.2639H10.3489C10.202 13.6697 10.1882 14.1117 10.3096 14.5259C10.431 14.94 10.6812 15.3047 11.0239 15.567C11.3666 15.8292 11.784 15.9755 12.2155 15.9844C12.6469 15.9934 13.07 15.8646 13.4234 15.6168C13.7767 15.369 14.0418 15.015 14.1803 14.6063C14.3188 14.1976 14.3234 13.7553 14.1935 13.3438C14.0636 12.9322 13.8059 12.5728 13.4578 12.3177C13.1098 12.0625 12.6894 11.9249 12.2579 11.9249H4.78088C4.53746 11.9249 4.29939 11.8535 4.09619 11.7195C3.893 11.5854 3.73364 11.3947 3.63788 11.1709L14.3379 10.5419C14.4802 10.5335 14.6161 10.48 14.7259 10.3889C14.8356 10.2979 14.9134 10.1742 14.9479 10.0359L16.3079 4.59488C16.3319 4.49642 16.3333 4.39378 16.312 4.2947C16.2906 4.19562 16.2471 4.10267 16.1846 4.02287C16.1221 3.94306 16.0423 3.87846 15.9513 3.83395C15.8602 3.78943 15.7602 3.76616 15.6589 3.76588V3.76588ZM4.77588 14.6489C4.63921 14.6489 4.50561 14.6084 4.39198 14.5324C4.27835 14.4565 4.18978 14.3486 4.13748 14.2223C4.08518 14.096 4.07149 13.9571 4.09816 13.8231C4.12482 13.689 4.19063 13.5659 4.28727 13.4693C4.38391 13.3726 4.50703 13.3068 4.64107 13.2802C4.77511 13.2535 4.91405 13.2672 5.04031 13.3195C5.16658 13.3718 5.2745 13.4603 5.35042 13.574C5.42635 13.6876 5.46688 13.8212 5.46688 13.9579C5.46661 14.1411 5.39373 14.3167 5.2642 14.4462C5.13467 14.5757 4.95906 14.6486 4.77588 14.6489V14.6489ZM12.2579 14.6489C12.1212 14.6489 11.9876 14.6084 11.874 14.5324C11.7603 14.4565 11.6718 14.3486 11.6195 14.2223C11.5672 14.096 11.5535 13.9571 11.5802 13.8231C11.6068 13.689 11.6726 13.5659 11.7693 13.4693C11.8659 13.3726 11.989 13.3068 12.1231 13.2802C12.2571 13.2535 12.3961 13.2672 12.5223 13.3195C12.6486 13.3718 12.7565 13.4603 12.8324 13.574C12.9084 13.6876 12.9489 13.8212 12.9489 13.9579C12.9486 14.1411 12.8757 14.3167 12.7462 14.4462C12.6167 14.5757 12.4411 14.6486 12.2579 14.6489Z" fill="white"/>
<path d="M8.16587 5.79688C8.16936 5.70678 8.15462 5.61691 8.12254 5.53264C8.09046 5.44838 8.04171 5.37145 7.9792 5.30648C7.91669 5.2415 7.8417 5.18981 7.75874 5.15451C7.67578 5.1192 7.58654 5.101 7.49638 5.101C7.40622 5.101 7.31698 5.1192 7.23402 5.15451C7.15106 5.18981 7.07606 5.2415 7.01355 5.30648C6.95103 5.37145 6.90228 5.44838 6.87021 5.53264C6.83813 5.61691 6.82339 5.70678 6.82687 5.79688C6.82305 6.21838 6.95251 6.63031 7.19674 6.97386C7.44098 7.31741 7.78751 7.57501 8.18687 7.70988V8.17788C8.18339 8.26798 8.19813 8.35785 8.23021 8.44212C8.26228 8.52638 8.31103 8.60331 8.37355 8.66828C8.43606 8.73326 8.51104 8.78495 8.59401 8.82025C8.67697 8.85556 8.76622 8.87376 8.85638 8.87376C8.94654 8.87376 9.03578 8.85556 9.11874 8.82025C9.2017 8.78495 9.27669 8.73326 9.3392 8.66828C9.40171 8.60331 9.45046 8.52638 9.48254 8.44212C9.51462 8.35785 9.52936 8.26798 9.52588 8.17788V7.71588C9.90427 7.58568 10.234 7.34328 10.4712 7.02096C10.7084 6.69865 10.8417 6.31172 10.8534 5.91172C10.8651 5.51173 10.7547 5.11765 10.5368 4.78199C10.319 4.44633 10.004 4.18503 9.63388 4.03288L8.59388 3.60188C8.49959 3.56415 8.41585 3.50411 8.34985 3.42692C8.28385 3.34972 8.23756 3.25767 8.21495 3.15866C8.19233 3.05965 8.19407 2.95663 8.22001 2.85844C8.24595 2.76024 8.29531 2.66981 8.36387 2.59488C8.46015 2.49742 8.58315 2.43068 8.71734 2.40309C8.85153 2.3755 8.99089 2.38831 9.11781 2.43989C9.24473 2.49147 9.35351 2.57951 9.43042 2.69288C9.50732 2.80626 9.54889 2.93989 9.54988 3.07688C9.54639 3.16698 9.56114 3.25685 9.59321 3.34111C9.62529 3.42538 9.67404 3.50231 9.73655 3.56728C9.79907 3.63226 9.87405 3.68395 9.95701 3.71925C10.04 3.75456 10.1292 3.77276 10.2194 3.77276C10.3095 3.77276 10.3988 3.75456 10.4817 3.71925C10.5647 3.68395 10.6397 3.63226 10.7022 3.56728C10.7647 3.50231 10.8135 3.42538 10.8455 3.34111C10.8776 3.25685 10.8924 3.16698 10.8889 3.07688C10.8925 2.65555 10.7629 2.24384 10.5187 1.90049C10.2745 1.55714 9.92808 1.2997 9.52888 1.16488V0.69588C9.53236 0.605783 9.51762 0.51591 9.48555 0.431644C9.45347 0.347378 9.40472 0.270454 9.34221 0.205479C9.27969 0.140503 9.20471 0.0888137 9.12175 0.0535064C9.03878 0.018199 8.94954 0 8.85937 0C8.76921 0 8.67998 0.018199 8.59701 0.0535064C8.51405 0.0888137 8.43907 0.140503 8.37655 0.205479C8.31404 0.270454 8.26529 0.347378 8.23321 0.431644C8.20114 0.51591 8.18639 0.605783 8.18988 0.69588V1.15988C7.81153 1.28955 7.48174 1.53153 7.2445 1.85353C7.00727 2.17552 6.87388 2.56221 6.86215 2.96199C6.85041 3.36177 6.96088 3.75561 7.17881 4.09097C7.39675 4.42632 7.71179 4.68724 8.08188 4.83888L9.12487 5.27088C9.2216 5.30957 9.30717 5.37175 9.37384 5.4518C9.4405 5.53185 9.48616 5.62726 9.50671 5.72939C9.52726 5.83152 9.52204 5.93716 9.49151 6.03677C9.46099 6.13637 9.40612 6.2268 9.33188 6.29988C9.23347 6.39072 9.11086 6.4511 8.97886 6.47372C8.84687 6.49634 8.71113 6.48022 8.5881 6.42733C8.46507 6.37443 8.36 6.28702 8.2856 6.17567C8.21119 6.06432 8.17066 5.93379 8.16888 5.79988L8.16587 5.79688Z" fill="white"/>
</svg>
