<svg width="30" height="30" viewBox="0 0 30 30" fill="none" xmlns="http://www.w3.org/2000/svg">
<g clip-path="url(#clip0_1324_743)">
<path d="M29.6864 11.0279L22.1862 3.52781C21.7677 3.10944 21.0893 3.10957 20.671 3.52806C20.4701 3.72895 20.3573 4.00129 20.3573 4.28537V7.49971H12.8571C12.2653 7.49971 11.7856 7.97941 11.7856 8.57118C11.7856 9.16294 12.2653 9.64264 12.8571 9.64264H21.4287C22.0205 9.64264 22.5002 9.16294 22.5002 8.57118V6.87179L27.4139 11.7855L22.5002 16.6991V14.9998C22.5002 14.408 22.0205 13.9283 21.4287 13.9283H9.64278V10.714C9.64265 10.1222 9.16282 9.64264 8.57112 9.64277C8.2871 9.64283 8.0147 9.75565 7.81381 9.95648L0.313727 17.4566C-0.104576 17.8751 -0.104576 18.5533 0.313727 18.9716L7.81387 26.4718C8.01476 26.6727 8.28723 26.7857 8.57137 26.7857C8.71219 26.7862 8.85175 26.7585 8.9817 26.7043C9.38199 26.5383 9.6429 26.1476 9.64278 25.7143V22.4999H17.1429C17.7347 22.4999 18.2144 22.0202 18.2144 21.4285C18.2144 20.8367 17.7347 20.357 17.1429 20.357H8.57137C7.97961 20.357 7.49991 20.8367 7.49991 21.4285V23.1278L2.58624 18.2141L7.49991 13.3005V14.9998C7.49991 15.5916 7.97961 16.0713 8.57137 16.0713H20.3573V19.2856C20.3574 19.8774 20.8372 20.3569 21.4289 20.3568C21.7129 20.3567 21.9853 20.2439 22.1862 20.0431L29.6864 12.543C30.1046 12.1245 30.1046 11.4463 29.6864 11.0279Z" fill="white"/>
</g>
<defs>
<clipPath id="clip0_1324_743">
<rect width="30" height="30" fill="white"/>
</clipPath>
</defs>
</svg>
