<svg width="30" height="30" viewBox="0 0 30 30" fill="none" xmlns="http://www.w3.org/2000/svg">
<path d="M13.125 1.875C10.0295 1.875 7.5 4.4045 7.5 7.5C7.5 10.5955 10.0295 13.125 13.125 13.125C16.2205 13.125 18.75 10.5955 18.75 7.5C18.75 4.4045 16.2205 1.875 13.125 1.875V1.875ZM13.125 3.75C15.2072 3.75 16.875 5.41782 16.875 7.5C16.875 9.58217 15.2072 11.25 13.125 11.25C11.0428 11.25 9.375 9.58217 9.375 7.5C9.375 5.41782 11.0428 3.75 13.125 3.75Z" fill="white"/>
<path d="M10.3125 15C5.65434 15 1.875 18.7793 1.875 23.4375V25.3125C1.87502 25.5611 1.9738 25.7995 2.14961 25.9754C2.32542 26.1512 2.56387 26.2499 2.8125 26.25H12.9822C13.1064 26.2517 13.2298 26.2288 13.3451 26.1824C13.4604 26.1361 13.5653 26.0673 13.6537 25.9801C13.7422 25.8929 13.8125 25.7889 13.8604 25.6743C13.9084 25.5597 13.9331 25.4367 13.9331 25.3125C13.9331 25.1882 13.9084 25.0652 13.8604 24.9506C13.8125 24.836 13.7422 24.7321 13.6537 24.6448C13.5653 24.5576 13.4604 24.4888 13.3451 24.4425C13.2298 24.3962 13.1064 24.3732 12.9822 24.375H3.75V23.4375C3.75 19.7856 6.66066 16.875 10.3125 16.875H14.0771C14.2014 16.8767 14.3247 16.8538 14.44 16.8074C14.5553 16.7611 14.6602 16.6923 14.7487 16.6051C14.8371 16.5179 14.9074 16.4139 14.9553 16.2993C15.0033 16.1847 15.028 16.0617 15.028 15.9375C15.028 15.8132 15.0033 15.6902 14.9553 15.5756C14.9074 15.461 14.8371 15.3571 14.7487 15.2698C14.6602 15.1826 14.5553 15.1138 14.44 15.0675C14.3247 15.0212 14.2014 14.9982 14.0771 15H10.3125Z" fill="white"/>
<path d="M21.5501 14.9999C21.0273 15.0083 20.6147 15.4332 20.6218 15.9502V16.97C20.0251 17.093 19.4692 17.3328 18.9776 17.6603L18.2579 16.9407C18.037 16.7135 17.7862 16.6278 17.5494 16.6405C16.8392 16.6783 16.2504 17.6036 16.9322 18.2664L17.6555 18.9896C17.3297 19.4819 17.0901 20.0371 16.9689 20.6338H15.9508C14.6831 20.6159 14.6831 22.5267 15.9508 22.5088H16.9725C17.0951 23.0999 17.3337 23.6502 17.6574 24.1383L16.9286 24.8671C16.0195 25.7508 17.3705 27.1018 18.2543 26.1927L18.9812 25.4658C19.4721 25.7921 20.0264 26.0316 20.6218 26.1542V27.1741C20.604 28.4418 22.5146 28.4418 22.4967 27.1741V26.1561C23.0916 26.0345 23.6448 25.7943 24.1355 25.4695L24.868 26.2019C25.2365 26.5808 25.8463 26.5808 26.2101 26.2056C26.5737 25.83 26.5646 25.2369 26.1932 24.8763L25.4645 24.1476C25.7909 23.6575 26.0297 23.1033 26.1529 22.5089H27.1746C27.7031 22.5164 28.1331 22.085 28.1249 21.5622C28.1156 21.0395 27.6916 20.6268 27.1746 20.6339H26.1566C26.0347 20.0339 25.795 19.4748 25.4664 18.9806L26.1895 18.2573C26.5685 17.8889 26.5686 17.2791 26.1895 16.9152C26.0027 16.7343 25.7621 16.6456 25.5231 16.6479C25.284 16.6526 25.0468 16.7473 24.8675 16.9317L24.1423 17.6567C23.6508 17.3307 23.0962 17.0901 22.4999 16.9683V15.9503C22.5093 15.4218 22.076 14.9918 21.5533 15L21.5501 14.9999ZM21.5633 18.7498C23.1277 18.7498 24.3757 19.9978 24.3757 21.5621C24.3757 23.1265 23.1277 24.3745 21.5633 24.3745C19.9988 24.3745 18.7508 23.1265 18.7508 21.5621C18.7508 19.9978 19.9988 18.7498 21.5633 18.7498Z" fill="white"/>
</svg>
