<?xml version="1.0" encoding="utf-8"?>
<!-- Generator: Adobe Illustrator 25.0.0, SVG Export Plug-In . SVG Version: 6.00 Build 0)  -->
<svg version="1.1" id="Layer_1" xmlns="http://www.w3.org/2000/svg" xmlns:xlink="http://www.w3.org/1999/xlink" x="0px" y="0px"
	 viewBox="0 0 151.2 139.68" style="enable-background:new 0 0 151.2 139.68;" xml:space="preserve">
<style type="text/css">
	.st0{fill-rule:evenodd;clip-rule:evenodd;fill:#00A651;}
	.st1{fill-rule:evenodd;clip-rule:evenodd;fill:none;stroke:#00A651;stroke-width:0.36;stroke-miterlimit:2.6131;}
	.st2{fill:#00A651;}
</style>
<path class="st0" d="M76.67,12.5c26.28,0,47.81,21.53,47.81,47.81c0,26.28-21.53,47.81-47.81,47.81
	c-26.35,0-47.88-21.53-47.88-47.81C28.79,34.03,50.32,12.5,76.67,12.5L76.67,12.5z M32.18,58.58c6.48,0.5,12.38-2.3,19.37-4.97
	c5.33-1.66,10.01-0.79,15.05,1.22c5.83,3.53,11.45,4.1,17.35,0c5.62-2.95,11.59-2.52,17.5,0c6.19,3.02,12.67,4.32,19.66,3.96
	c-0.72-23.83-20.45-43.13-44.42-43.13C52.7,15.67,33.04,34.89,32.18,58.58L32.18,58.58z M32.32,66c6.34,0.5,12.24-2.3,19.22-4.97
	c5.33-1.66,10.01-0.79,15.05,1.22c5.83,3.53,11.45,4.1,17.35,0c5.62-2.95,11.59-2.52,17.5,0c6.19,3.02,12.67,4.32,19.44,4.03
	c0.07-1.22,0.29-2.45,0.22-3.89c-6.98,0.36-13.46-1.01-19.66-3.96c-5.9-2.59-11.88-2.95-17.5,0c-5.9,4.1-11.52,3.53-17.35,0
	c-5.04-2.02-9.72-2.88-15.05-1.22c-6.98,2.66-12.89,5.47-19.37,5.18C32.1,63.69,32.39,64.84,32.32,66L32.32,66z M34.12,73.48
	c5.69,0,11.16-2.74,17.42-5.04c5.33-1.66,10.01-0.79,15.05,1.22c5.83,3.53,11.45,4.1,17.35,0c5.62-2.95,11.59-2.52,17.5,0
	c5.62,2.74,11.74,4.1,17.78,3.89c0.22-1.3,0.65-2.45,0.94-3.82c-6.55,0.22-12.82-1.08-18.72-3.89c-5.9-2.59-11.88-2.95-17.5,0
	c-5.9,4.1-11.52,3.53-17.35,0c-5.04-2.02-9.72-2.88-15.05-1.22c-6.55,2.52-12.24,5.04-18.43,4.97
	C33.33,70.89,33.83,72.12,34.12,73.48L34.12,73.48z M37.14,80.61c4.54-0.65,9.22-2.81,14.4-4.75c5.33-1.66,10.01-0.79,15.05,1.22
	c5.83,3.53,11.45,4.1,17.35,0c5.62-2.95,11.59-2.59,17.5,0c4.68,2.3,9.58,3.6,14.62,3.82c0.43-1.22,1.15-2.45,1.8-3.74
	c-5.62,0-11.16-1.37-16.42-3.89c-5.9-2.59-11.88-2.95-17.5,0c-5.9,4.03-11.52,3.53-17.35,0c-5.04-2.02-9.72-2.88-15.05-1.22
	c-5.9,2.16-10.94,4.68-16.2,4.97C35.99,78.16,36.71,79.46,37.14,80.61L37.14,80.61z M43.55,89.83c8.35,9.14,20.23,15.12,33.12,15.12
	c12.46,0,23.69-5.47,32.11-14.04c-2.38-0.65-4.82-1.66-7.34-2.81c-5.9-2.59-11.88-2.95-17.5,0c-5.9,4.03-11.52,3.53-17.35,0
	c-5.04-2.02-9.72-2.88-15.05-1.22C48.74,87.88,46.07,89.04,43.55,89.83L43.55,89.83z M41.18,86.95c3.31-0.79,6.7-2.3,10.37-3.67
	c5.33-1.66,10.01-0.79,15.05,1.22c5.83,3.53,11.45,4.03,17.35,0c5.62-2.95,11.59-2.59,17.5,0c3.38,1.58,6.77,2.81,10.15,3.31
	c0.65-1.22,1.51-2.38,2.45-3.46c-4.25-0.36-8.42-1.73-12.6-3.67c-5.9-2.59-11.88-2.95-17.5,0c-5.9,4.03-11.52,3.53-17.35,0
	c-5.04-2.02-9.72-2.88-15.05-1.22c-4.54,1.73-8.71,3.6-12.6,4.39C39.81,84.79,40.53,85.87,41.18,86.95z"/>
<path class="st0" d="M64.86,31.72c1.08,4.82,5.04,8.35,10.01,8.35c5.69,0,10.22-4.54,10.22-10.22c0-4.97-3.46-9.07-8.28-10.08
	c6.26,0,11.59,5.26,11.59,11.81c0,6.48-5.33,11.81-11.88,11.81C70.12,43.39,64.79,38.06,64.86,31.72L64.86,31.72z M65.58,28.92
	l4.32-0.5l1.8,3.96l0.86-4.25l4.39-0.58l-3.74-2.16l0.94-4.25l-3.24,2.88l-3.82-2.16l1.8,4.03L65.58,28.92z"/>
<path class="st1" d="M136.22,71.54l0.29-1.87 M136.07,68.08l0.14-2.45 M134.56,63.91l-0.22-2.45 M130.89,60.74l-0.29-2.23
	 M128.94,63.33l-0.14-1.87 M126.78,67.94l-0.5-1.94 M126.5,71.4l-0.65-1.8 M140.9,92.85l1.58-1.58 M142.55,89.76l1.37-2.16
	 M143.27,85.36l1.01-2.09 M141.69,80.76l0.86-2.16 M138.66,82.12l1.01-1.87 M134.56,85.08l1.15-2.52 M132.54,87.88l0.43-2.16
	 M122.03,118.12l1.8-0.43 M125.2,116.61l2.3-0.79 M128.37,113.52l2.16-1.01 M129.95,108.91l1.87-1.08 M126.71,108.12l1.73-0.65
	 M121.6,107.97l1.58-1.3 M118.36,109.05l1.37-1.3"/>
<g>
	<path class="st2" d="M84.85,125.8l-0.29-0.29c-2.55-2.48-4.99-4.12-7.87-5.3c-3.32,1.56-6.02,3.34-8.04,5.3l-0.29,0.29l-2.47-1.95
		l0.38-0.37c2.08-2,4.09-3.52,6.27-4.72c-1.37-0.52-3-0.99-4.63-1.33c-0.65,0.43-1.3,0.87-1.94,1.31
		c-5.44,3.71-11.07,7.54-17.11,1.82l0.41-0.8c1.16,0.23,2.27,0.18,3.34-0.06c-2.69,0.05-5.54-0.49-8.57-1.4
		c-1.61,2.4-4.32,3.25-8.06,2.53l-0.58-0.11l0.25-0.54c0.06-0.14,0.14-0.28,0.22-0.41c-1.57,0.14-2.97-0.31-4.26-1.34l-0.41-0.33
		l0.08-0.08c-1.08,0.04-2.07-0.33-2.98-1.03l-0.31-0.24l0.19-0.35c0.03-0.06,0.07-0.12,0.1-0.18c-1.61-0.16-2.67-1.21-3.51-2.26
		l-0.27-0.34l0.32-0.3c0.34-0.32,0.7-0.59,1.09-0.8c-1.46-0.89-2.33-1.97-2.53-3.17l-0.07-0.43l0.42-0.1
		c1.23-0.29,2.28-0.25,3.22,0.12c-0.03-0.2-0.05-0.41-0.05-0.61v-0.35l0.34-0.1c1.81-0.51,3.06-0.35,4.14,0.57
		c0.02-0.09,0.05-0.18,0.08-0.26l0.13-0.39l0.4,0.07c1.05,0.19,1.96,0.62,2.71,1.29h0.45c1.71,0,3.05,0.58,4.15,1.82
		c0.02-0.11,0.05-0.23,0.08-0.33l0.17-0.59l0.52,0.32c3.2,1.95,4.63,4.31,4.27,7.03c4.23,1.29,8.01,1.81,11.5,0.91l0.02,0.07
		c1.09-0.6,2.17-1.33,3.27-2.08c-0.03,0-0.06,0-0.09,0c-5.71,0-11.17-2.67-16.92-5.48c-6.62-3.24-13.46-6.58-20.8-5.56l-0.42-0.77
		c0.82-0.94,1.61-1.76,2.4-2.47l-0.78-1.25c-2.81,0.93-5.5-0.06-8.02-2.93l-0.39-0.45l0.53-0.28c0.11-0.06,0.23-0.11,0.35-0.16
		c-1.3-0.88-2.16-2.05-2.59-3.55l-0.14-0.49l0.28-0.05c-0.9-0.62-1.5-1.5-1.86-2.69l-0.12-0.4l0.38-0.17
		c0.04-0.02,0.08-0.04,0.13-0.05c-0.93-0.88-1.35-2.12-1.35-3.91v-0.41l0.4-0.06c0.45-0.07,0.9-0.07,1.35-0.01
		c-0.65-1.58-0.69-2.97-0.11-4.07l0.2-0.39l0.4,0.18c1.13,0.51,1.92,1.16,2.47,2.09c0.1-0.21,0.22-0.4,0.35-0.58l0.22-0.3l0.34,0.15
		c1.25,0.55,2.46,1.28,2.93,2.9c0.04-0.04,0.09-0.07,0.13-0.11l0.32-0.24l0.29,0.29c0.87,0.87,1.28,1.81,1.46,2.7l0.37,0.29
		c1.36,1.06,2.08,2.3,2.25,3.9c0.07-0.06,0.14-0.11,0.21-0.17l0.01,0c-0.82-2.43-1.27-5.22-1.52-8.3c-2.88-0.72-4.66-2.94-5.29-6.58
		l-0.1-0.57l0.58,0.03c0.12,0.01,0.23,0.02,0.35,0.04c-0.81-1.55-0.94-2.94-0.46-4.4l0.15-0.46l0.15,0.05
		c-0.43-1-0.5-2.04-0.24-3.22L16.98,68l0.42,0.05c0.05,0.01,0.09,0.01,0.14,0.02c-0.39-1.2-0.1-2.51,0.85-3.98l0.19-0.3l0.34,0.11
		c0.4,0.13,0.77,0.31,1.12,0.55c0.21-1.6,0.89-2.88,1.93-3.59l0.4-0.28l0.26,0.41c0.71,1.12,1.05,2.08,1.07,3.03
		c0.18-0.12,0.37-0.23,0.56-0.32l0.34-0.16l0.23,0.3c0.99,1.3,1.54,2.46,1.17,4.02c0.07-0.01,0.14-0.02,0.21-0.03l0.42-0.05
		l0.09,0.42c0.23,1.1,0.19,2.1-0.13,3.05l0.18,0.49c0.6,1.61,0.57,3.01-0.13,4.49c0.1-0.02,0.2-0.03,0.3-0.04l0.59-0.05l-0.09,0.59
		c-0.57,3.76-2.09,5.92-4.78,6.74c0.57,6.83,2.12,12.14,6.59,15.15c5.25-1.24,10.19,2.07,16.25,6.14c4.7,3.16,10.03,6.73,16.9,9.35
		c3.9-2.41,8.37-4.07,14.18-0.94c5.81-3.13,10.28-1.47,14.18,0.94c6.87-2.62,12.2-6.19,16.9-9.35c6.06-4.07,11-7.38,16.25-6.14
		c4.48-3.01,6.03-8.32,6.59-15.15c-2.69-0.82-4.21-2.98-4.78-6.74l-0.09-0.59l0.59,0.05c0.1,0.01,0.2,0.02,0.3,0.04
		c-0.7-1.48-0.73-2.88-0.13-4.49l0.18-0.49c-0.32-0.95-0.36-1.94-0.13-3.05l0.09-0.42l0.42,0.05c0.07,0.01,0.14,0.02,0.21,0.03
		c-0.37-1.56,0.18-2.73,1.17-4.02l0.23-0.3l0.34,0.16c0.19,0.09,0.38,0.2,0.56,0.32c0.02-0.95,0.37-1.91,1.07-3.03l0.26-0.41
		l0.4,0.28c1.04,0.72,1.72,1.99,1.93,3.59c0.34-0.24,0.72-0.43,1.12-0.56l0.34-0.11l0.19,0.3c0.96,1.47,1.24,2.78,0.85,3.98
		c0.05-0.01,0.09-0.01,0.14-0.02l0.42-0.05l0.09,0.42c0.26,1.18,0.18,2.22-0.24,3.22l0.15-0.05l0.15,0.45
		c0.49,1.46,0.35,2.84-0.46,4.4c0.12-0.02,0.24-0.03,0.35-0.04l0.58-0.03l-0.1,0.57c-0.63,3.64-2.41,5.86-5.29,6.58
		c-0.25,3.08-0.7,5.86-1.52,8.29l0.01,0.01c0.07,0.05,0.14,0.11,0.21,0.16c0.17-1.6,0.89-2.84,2.25-3.9l0.37-0.29
		c0.18-0.89,0.59-1.83,1.46-2.7l0.29-0.29l0.32,0.24c0.05,0.03,0.09,0.07,0.14,0.11c0.47-1.61,1.67-2.35,2.93-2.9l0.34-0.15
		l0.22,0.3c0.13,0.18,0.25,0.38,0.35,0.58c0.55-0.9,1.34-1.57,2.46-2.1l0.4-0.19l0.21,0.4c0.57,1.08,0.53,2.5-0.12,4.08
		c0.45-0.06,0.9-0.06,1.35,0l0.4,0.06v0.41c0,1.79-0.42,3.04-1.35,3.91c0.04,0.02,0.09,0.04,0.13,0.05l0.38,0.17l-0.12,0.4
		c-0.35,1.17-0.96,2.06-1.85,2.69l0.27,0.05l-0.14,0.49c-0.44,1.5-1.29,2.66-2.59,3.55c0.12,0.05,0.23,0.1,0.34,0.16l0.53,0.28
		l-0.39,0.45c-2.52,2.88-5.21,3.86-8.02,2.93l-0.78,1.25c0.78,0.71,1.58,1.53,2.4,2.47l-0.42,0.77c-7.34-1.03-14.18,2.32-20.8,5.56
		c-5.75,2.81-11.21,5.48-16.92,5.48c-0.03,0-0.06,0-0.08,0c1.1,0.75,2.18,1.48,3.27,2.08l0.02-0.07c3.5,0.9,7.27,0.38,11.5-0.91
		c-0.37-2.72,1.07-5.08,4.27-7.03l0.5-0.31l0.19,0.56c0.04,0.11,0.07,0.23,0.1,0.34c1.1-1.23,2.44-1.81,4.14-1.81h0.48
		c0.76-0.68,1.64-1.1,2.68-1.29l0.4-0.07l0.12,0.39c0.03,0.09,0.05,0.18,0.08,0.26c1.08-0.92,2.33-1.08,4.14-0.57l0.34,0.1v0.35
		c0,0.2-0.02,0.4-0.05,0.61c0.94-0.38,1.99-0.42,3.22-0.12l0.43,0.1l-0.07,0.43c-0.2,1.2-1.07,2.29-2.53,3.17
		c0.38,0.22,0.75,0.48,1.09,0.8l0.32,0.3l-0.27,0.34c-0.84,1.05-1.9,2.09-3.51,2.26c0.04,0.06,0.07,0.12,0.1,0.18l0.19,0.35
		l-0.31,0.24c-0.9,0.7-1.91,1.03-2.98,1.03l0.08,0.08l-0.41,0.33c-1.29,1.03-2.7,1.47-4.26,1.34c0.08,0.13,0.16,0.27,0.22,0.41
		l0.25,0.54l-0.58,0.11c-3.74,0.71-6.45-0.13-8.06-2.53c-3.03,0.92-5.87,1.46-8.57,1.4c1.08,0.25,2.18,0.3,3.34,0.06l0.41,0.8
		c-6.04,5.72-11.67,1.89-17.11-1.82c-0.65-0.44-1.29-0.88-1.95-1.31c-1.69,0.34-3.43,0.81-5.02,1.34c2.37,1.19,4.55,2.74,6.66,4.71
		l0.4,0.37L84.85,125.8z M67.31,123.78l0.99,0.78c2.1-1.95,4.85-3.73,8.18-5.28l0.18-0.08l0.19,0.08c2.97,1.19,5.47,2.83,8.06,5.29
		l0.98-0.77c-2.21-2-4.51-3.53-7.03-4.66l0.03-0.87c1.63-0.6,3.46-1.14,5.28-1.55c-0.3-0.19-0.61-0.37-0.92-0.55
		c-2.58,0.51-4.66,1.25-6.42,1.9l-0.19,0.07l-0.18-0.1c-1.65-0.86-4.42-1.49-6.51-1.88c-0.31,0.18-0.62,0.36-0.93,0.56
		c1.77,0.42,3.47,0.97,4.82,1.56l0.92,0.4l-0.9,0.45C71.55,120.27,69.46,121.76,67.31,123.78z M50.64,120.84
		c5.05,3.75,9.8,0.52,14.79-2.88c3.03-2.06,6.14-4.18,9.36-4.64c-6.02-2.53-10.4,0.48-14.64,3.41
		C57.05,118.87,54.08,120.93,50.64,120.84z M78.41,113.32c3.22,0.45,6.33,2.57,9.36,4.64c5,3.41,9.74,6.63,14.79,2.88
		c-0.05,0-0.1,0-0.16,0c-3.39,0-6.3-2-9.35-4.11C88.81,113.81,84.43,110.79,78.41,113.32z M36.82,120.01
		c2.86,0.41,4.97-0.27,6.28-2.01c-0.48-0.16-0.97-0.32-1.46-0.49C39.38,118,37.64,118.92,36.82,120.01z M110.11,117.99
		c1.31,1.75,3.42,2.42,6.28,2.01c-0.82-1.09-2.56-2-4.81-2.51C111.08,117.67,110.59,117.84,110.11,117.99z M116.52,118.68
		c1.54,0.35,2.84,0.14,4.06-0.67c-1.14-1-2.84-1.97-4.7-2.13c-0.94,0.38-1.87,0.73-2.78,1.07c1.42,0.45,2.58,1.08,3.39,1.82
		L116.52,118.68z M32.62,118.01c1.22,0.81,2.52,1.02,4.06,0.67l0.02,0.09c0.82-0.74,1.97-1.36,3.39-1.81
		c-0.91-0.34-1.84-0.7-2.78-1.07C35.46,116.04,33.76,117.01,32.62,118.01z M113.08,111.53c-2.43,1.63-3.51,3.47-3.29,5.59
		c0.53-0.17,1.07-0.36,1.62-0.55C112.34,115.09,113.27,113.14,113.08,111.53z M41.79,116.58c0.55,0.19,1.08,0.38,1.62,0.55
		c0.22-2.12-0.85-3.95-3.27-5.58C40.02,112.9,40.59,114.65,41.79,116.58z M71.26,115.46c1.86,0.38,3.99,0.93,5.44,1.65
		c1.49-0.55,3.21-1.15,5.28-1.63c-1.78-0.88-3.57-1.42-5.34-1.29l0,0.01c-0.02,0-0.04,0-0.06,0l0-0.01
		C74.8,114.06,73.02,114.6,71.26,115.46z M29.2,116.48c1,0.64,2.1,0.76,3.35,0.37c0.88-0.66,1.96-1.27,3.16-1.62
		c-0.84-0.34-1.68-0.69-2.54-1.04C31.39,114.56,29.98,115.38,29.2,116.48z M120.64,116.85c1.25,0.39,2.36,0.27,3.35-0.37
		c-0.77-1.11-2.19-1.93-3.98-2.29c-0.86,0.35-1.71,0.7-2.54,1.04C118.68,115.59,119.77,116.19,120.64,116.85z M38.08,115.18
		c0.8,0.32,1.58,0.62,2.35,0.9c-0.69-1.3-1.1-2.53-1.21-3.62c-0.94-1.46-2.05-2.2-3.54-2.34c0.02,0.09,0.04,0.19,0.06,0.29
		c0.03,0.04,0.05,0.09,0.08,0.13l-0.04,0.03c0.38,1.61,1.19,3.27,2.24,4.52L38.08,115.18z M114.02,112.4
		c-0.11,1.24-0.62,2.53-1.24,3.67c0.76-0.29,1.54-0.59,2.34-0.9l0.07-0.09c1.05-1.26,1.86-2.93,2.24-4.54l-0.04-0.03
		c0.02-0.03,0.05-0.07,0.07-0.1c0.02-0.1,0.04-0.2,0.06-0.3C116.05,110.26,114.95,110.98,114.02,112.4z M24.05,104.14
		c6.51,0,12.57,2.96,18.46,5.84c6.18,3.02,12.01,5.88,18.06,5.32c0.29-0.19,0.58-0.39,0.87-0.58c-6.66-2.63-11.85-6.11-16.45-9.2
		c-9.07-6.08-14.66-9.84-22.6-1.32C22.95,104.16,23.5,104.14,24.05,104.14z M92.63,115.3c6.05,0.56,11.89-2.3,18.06-5.32
		c6.38-3.12,12.95-6.34,20.12-5.78c-7.94-8.51-13.53-4.77-22.6,1.32c-4.6,3.09-9.79,6.57-16.45,9.2
		C92.05,114.91,92.34,115.11,92.63,115.3z M25.78,113.71c1.05,1.2,2,1.65,3.21,1.57c0.71-0.72,1.65-1.29,2.78-1.68
		c-0.75-0.31-1.52-0.62-2.29-0.94l-0.02,0.16C27.98,112.65,26.77,112.94,25.78,113.71z M124.21,115.29
		c1.22,0.08,2.17-0.37,3.21-1.57c-0.99-0.77-2.2-1.07-3.68-0.89l-0.02-0.16c-0.77,0.32-1.54,0.63-2.29,0.94
		C122.56,113.99,123.51,114.57,124.21,115.29z M118.33,110.81c-0.3,1.27-0.86,2.57-1.57,3.71c0.81-0.33,1.64-0.67,2.49-1.02
		l0.13-0.15c0.96-1.06,1.89-2.82,1.59-4.46C119.9,109.18,119.07,109.78,118.33,110.81z M33.96,113.5c0.85,0.35,1.67,0.69,2.49,1.02
		c-0.72-1.14-1.28-2.45-1.58-3.73c-0.66-0.98-1.53-1.6-2.63-1.89c-0.3,1.64,0.63,3.4,1.59,4.46L33.96,113.5z M29.81,111.79
		c0.82,0.33,1.63,0.67,2.43,1c-0.59-0.96-1.01-2.1-1.01-3.26l-0.06,0.05c-0.89-1.01-1.79-1.26-3.33-0.89
		C27.99,109.71,28.71,110.87,29.81,111.79L29.81,111.79z M121.97,109.53c0,1.16-0.42,2.3-1.01,3.26c0.8-0.33,1.61-0.66,2.43-1l0,0
		c1.1-0.92,1.83-2.07,1.97-3.1c-1.54-0.37-2.44-0.12-3.33,0.89L121.97,109.53z M124.7,111.84c0.54,0.01,1.04,0.08,1.51,0.22
		c1.35-0.69,2.25-1.54,2.59-2.43c-1.2-0.2-2.11-0.01-2.97,0.62C125.55,110.8,125.17,111.34,124.7,111.84z M24.4,109.63
		c0.34,0.9,1.23,1.74,2.59,2.43c0.47-0.13,0.98-0.21,1.51-0.22c-0.47-0.5-0.86-1.04-1.13-1.59C26.51,109.62,25.6,109.43,24.4,109.63
		z M23.24,100.21l0.75,1.2c1.42-1.17,2.79-1.97,4.14-2.46c-1.39-1.05-2.49-2.32-3.36-3.79C24.99,97.19,24.48,98.86,23.24,100.21z
		 M125.07,98.95c1.35,0.49,2.72,1.29,4.14,2.46l0.75-1.2c-1.24-1.35-1.74-3.02-1.53-5.05C127.56,96.63,126.46,97.9,125.07,98.95z
		 M131.22,99.95c2.18,0.63,4.31-0.12,6.35-2.23c-1.3-0.34-3.23,0-5.33,0.96l-0.31,0.14L131.22,99.95z M15.63,97.72
		c2.04,2.11,4.17,2.86,6.35,2.23l-0.71-1.14l-0.31-0.14C18.86,97.72,16.93,97.38,15.63,97.72z M21.68,97.71l1.04,1.67
		c1.32-1.58,1.51-3.63,0.61-6.35c-0.09,0.1-0.18,0.21-0.26,0.33c0,0.01,0,0.02,0,0.03l-0.02,0C22.36,94.36,21.89,95.82,21.68,97.71z
		 M129.87,93.03c-0.91,2.73-0.71,4.78,0.6,6.35l1.04-1.67c-0.21-1.89-0.68-3.35-1.36-4.32l-0.02,0c0-0.01,0-0.02,0-0.03
		C130.05,93.24,129.96,93.13,129.87,93.03z M134.29,95.04l-1.49,2.39c1.52-0.58,2.93-0.84,4.09-0.76c1.44-0.72,2.37-1.69,2.88-3.01
		c-1.76-0.19-3.87,0.31-5.38,1.31L134.29,95.04z M16.74,96.66c1.08,0,2.33,0.26,3.67,0.77l-1.59-2.46
		c-1.52-0.99-3.62-1.49-5.39-1.31c0.51,1.32,1.44,2.28,2.88,3.01C16.45,96.66,16.59,96.66,16.74,96.66z M19.53,94.26l1.38,2.22
		c0.22-1.2,0.6-2.44,1.23-3.43c0.06-1.65-0.4-2.84-1.5-3.86c-0.03,0.06-0.06,0.13-0.09,0.2c0,0.08,0,0.17-0.01,0.25l-0.1,0
		C19.87,90.99,19.53,92.69,19.53,94.26z M131.05,93.05c0.64,0.99,1.01,2.23,1.23,3.43l1.38-2.22c0.01-1.57-0.34-3.27-0.92-4.63
		l-0.1,0c0-0.08-0.01-0.17-0.01-0.25c-0.03-0.07-0.06-0.13-0.09-0.19C131.45,90.21,130.99,91.4,131.05,93.05z M136.72,91.14
		l-1.44,2.31c1.18-0.49,2.51-0.76,3.75-0.76c1.23-0.44,2.04-1.19,2.5-2.37C140.17,89.91,138.44,90.2,136.72,91.14z M14.25,92.69
		c1.22,0.01,2.52,0.28,3.68,0.76l-1.44-2.31c-1.73-0.94-3.45-1.23-4.81-0.82C12.14,91.52,12.95,92.26,14.25,92.69z M17.22,90.56
		l1.44,2.32c0.14-1.3,0.47-2.59,0.95-3.7c0-1.3-0.32-2.26-1.02-3.09C17.66,87.03,17.13,88.72,17.22,90.56z M133.58,89.18
		c0.48,1.1,0.82,2.39,0.95,3.7l1.45-2.32c0.09-1.84-0.43-3.53-1.38-4.47C133.9,86.92,133.58,87.88,133.58,89.18z M139.01,87.46
		l-1.4,2.25c1.2-0.44,2.38-0.59,3.43-0.44c0.99-0.64,1.46-1.61,1.53-3.18c-1.22-0.05-2.35,0.46-3.45,1.5L139.01,87.46z M12.97,89.21
		c0.83,0,1.72,0.17,2.61,0.5l-1.41-2.26l-0.12,0.12c-1.02-1.02-2.23-1.54-3.44-1.49c0.07,1.57,0.54,2.54,1.53,3.18
		C12.42,89.22,12.69,89.21,12.97,89.21z M14.99,86.98l1.35,2.16c0.14-1.2,0.53-2.29,1.11-3.12c-0.17-1.28-0.77-2.05-2.16-2.72
		C14.79,84.21,14.68,85.53,14.99,86.98z M135.75,86.02c0.58,0.83,0.97,1.92,1.11,3.12l1.35-2.16c0.31-1.45,0.2-2.77-0.3-3.68
		C136.53,83.97,135.93,84.74,135.75,86.02z M139.23,84.31c0.1,0.6,0.12,1.25,0.05,1.93c0.43-0.31,0.87-0.56,1.32-0.74
		c0.7-1.36,0.92-2.59,0.64-3.52C140.24,82.55,139.62,83.26,139.23,84.31z M12.59,85.48c0.46,0.18,0.9,0.42,1.33,0.73
		c-0.07-0.68-0.05-1.32,0.05-1.91c-0.41-1.1-1-1.79-2-2.33C11.69,82.9,11.9,84.12,12.59,85.48z M131.63,80.96
		c-0.03,0.53-0.06,1.06-0.09,1.58c2.14-0.66,3.54-2.37,4.16-5.09C134.44,77.82,132.91,79.13,131.63,80.96L131.63,80.96z M17.5,77.45
		c0.62,2.72,2.02,4.43,4.16,5.09c-0.04-0.52-0.07-1.04-0.09-1.58l0-0.01C20.29,79.13,18.76,77.82,17.5,77.45z M126.79,77.25
		c0.56,2.85,1.78,4.54,3.81,5.24c0.04-0.58,0.07-1.17,0.1-1.77C129.27,78.83,127.93,77.64,126.79,77.25z M22.5,80.73
		c0.03,0.6,0.06,1.19,0.1,1.77c2.03-0.71,3.25-2.4,3.81-5.24C25.26,77.64,23.93,78.83,22.5,80.73z M131.77,76.25
		c-0.02,1.05-0.04,2.08-0.08,3.09c0.95-1.13,1.98-1.98,2.96-2.47l-0.05-0.04c0.98-1.51,1.3-2.74,1.02-4.01
		c-0.12,0.05-0.23,0.11-0.34,0.16c-0.02,0.02-0.04,0.05-0.06,0.07l-0.03-0.03C133.78,73.75,132.52,74.93,131.77,76.25z M18.55,76.86
		c0.98,0.49,2.01,1.34,2.96,2.47c-0.03-1-0.06-2.04-0.08-3.09c-0.75-1.31-2.01-2.5-3.41-3.22l-0.03,0.03
		c-0.02-0.02-0.04-0.05-0.06-0.07c-0.11-0.06-0.23-0.11-0.34-0.16c-0.28,1.28,0.04,2.51,1.02,4.01L18.55,76.86z M22.37,76.7
		c0.02,0.88,0.04,1.75,0.07,2.6c0.99-1.19,1.94-2.04,2.85-2.55c0.96-1.47,1.2-2.67,0.8-4.13c-1.48,1-2.85,2.48-3.65,3.97L22.37,76.7
		z M127.91,76.74c0.9,0.51,1.86,1.36,2.85,2.55c0.03-0.85,0.05-1.71,0.07-2.59l-0.06-0.11c-0.8-1.49-2.17-2.97-3.65-3.97
		C126.71,74.07,126.95,75.27,127.91,76.74z M22.32,72.28c0.01,0.91,0.01,1.81,0.03,2.69c0.75-1.04,1.71-2.02,2.75-2.8
		c0.71-1.05,0.96-2.09,0.79-3.33c-1.6,0.4-2.85,1.94-3.52,3.33L22.32,72.28z M128.1,72.17c1.04,0.78,2,1.76,2.75,2.8
		c0.01-0.88,0.02-1.78,0.03-2.69l-0.05-0.1c-0.67-1.39-1.92-2.93-3.52-3.33C127.14,70.08,127.39,71.12,128.1,72.17z M131.81,71.95
		c-0.01,0.89-0.01,1.76-0.02,2.63c0.78-0.94,1.77-1.76,2.86-2.33c0.73-1.03,0.99-2.01,0.83-3.19
		C134.14,69.38,132.84,70.4,131.81,71.95z M18.55,72.24c1.09,0.58,2.08,1.39,2.86,2.34c-0.01-0.86-0.02-1.74-0.02-2.63
		c-1.02-1.55-2.33-2.58-3.66-2.89C17.56,70.23,17.82,71.22,18.55,72.24z M22.28,67.71c0.01,0.93,0.02,1.85,0.03,2.75
		c0.67-0.93,1.56-1.79,2.62-2.26c0.47-1.25,0.32-2.17-0.6-3.46C23.39,65.31,22.63,66.4,22.28,67.71z M128.27,68.19
		c1.06,0.47,1.96,1.33,2.62,2.26c0.01-0.9,0.02-1.82,0.03-2.75c-0.36-1.31-1.11-2.39-2.06-2.98
		C127.95,66.02,127.8,66.94,128.27,68.19z M131.86,67.82c-0.01,0.87-0.02,1.72-0.03,2.57c0.82-0.94,1.75-1.63,2.72-2.01l-0.03-0.02
		c0.58-1,0.49-2.1-0.29-3.44c-1.03,0.46-1.81,1.49-2.24,2.94L131.86,67.82z M18.65,68.37c0.97,0.39,1.91,1.08,2.72,2.01
		c-0.01-0.85-0.02-1.7-0.03-2.57l-0.13,0.04c-0.42-1.45-1.21-2.48-2.24-2.94c-0.78,1.33-0.88,2.43-0.29,3.44L18.65,68.37z
		 M20.91,65.25c0.3,0.36,0.57,0.78,0.79,1.26c0.25-0.58,0.58-1.1,0.96-1.55c0.25-0.99,0.09-1.87-0.55-3.01
		C21.4,62.67,20.97,63.83,20.91,65.25z M130.54,64.96c0.38,0.45,0.71,0.97,0.96,1.55c0.22-0.47,0.49-0.9,0.79-1.26
		c-0.05-1.42-0.48-2.58-1.2-3.3C130.44,63.09,130.29,63.97,130.54,64.96z M99.25,113.61l-0.23-0.91c3.38-0.85,7-3.04,10.49-5.15
		c4.75-2.87,9.24-5.58,12.96-4.94l-0.16,0.92c-3.39-0.58-7.72,2.04-12.31,4.81C106.45,110.5,102.77,112.72,99.25,113.61z
		 M53.95,113.61c-3.52-0.89-7.19-3.11-10.75-5.26c-4.59-2.78-8.94-5.4-12.31-4.82l-0.16-0.92c3.73-0.65,8.21,2.07,12.96,4.94
		c3.49,2.11,7.11,4.3,10.49,5.15L53.95,113.61z"/>
</g>
<path class="st1" d="M16.98,71.54l-0.29-1.87 M17.13,68.08l-0.14-2.45 M18.64,63.91l0.22-2.45 M22.31,60.74l0.29-2.23 M24.26,63.33
	l0.14-1.87 M26.42,67.94l0.5-1.94 M26.7,71.4l0.65-1.8 M12.3,92.85l-1.58-1.58 M10.65,89.76L9.28,87.6 M9.93,85.36l-1.01-2.09
	 M11.51,80.76l-0.86-2.16 M14.54,82.12l-1.01-1.87 M18.64,85.08l-1.15-2.52 M20.66,87.88l-0.43-2.16 M31.17,118.12l-1.8-0.43
	 M28,116.61l-2.3-0.79 M24.83,113.52l-2.16-1.01 M23.25,108.91l-1.87-1.08 M26.49,108.12l-1.73-0.65 M31.6,107.97l-1.58-1.3
	 M34.84,109.05l-1.37-1.3"/>
<path class="st0" d="M94.02,89.83l2.02-0.86c0.29-0.29,0.58-0.43,0.72-0.5c0.29-0.14,0.58-0.29,0.72-0.5h0.07l0,0
	c0,0.22-0.07,0.29-0.14,0.36c0,0.07-0.22,0.22-0.22,0.29c-0.29,0.43-0.79,0.79-1.51,1.15c-0.29,0.14-0.65,0.29-1.01,0.5
	c-0.5,0.22-0.94,0.36-1.15,0.43c-0.36,0.29-0.79,0.5-1.01,0.72c0,0.07-0.14,0.22-0.14,0.36c-0.07,0.14-0.07,0.22-0.07,0.29
	c0,0.43,0,0.79,0,1.15c0,0.43,0.07,0.79,0.07,1.15c0,0.22,0.14,0.36,0.22,0.5c0.14,0.22,0.22,0.36,0.43,0.43h0.14
	c0.14-0.5,0.36-0.86,0.43-1.15c0.29-0.43,0.5-0.79,0.79-1.01c0,0,0.14,0,0.22,0c0.07-0.07,0.22-0.07,0.22-0.07
	c0.22,0,0.43,0.07,0.58,0.07c0.29,0.14,0.58,0.22,0.86,0.29l0.65,0.22c0.07,0.07,0.07,0.07,0,0.22c-0.22,0.14-0.72,0.65-1.22,1.3
	c-0.43,0.58-0.94,0.94-1.3,1.15c-0.43,0.36-1.01,0.58-1.66,0.58c-0.14-0.14-0.36-0.22-0.43-0.43c-0.14-0.14-0.22-0.36-0.22-0.58
	c-0.14,0.36-0.29,0.65-0.43,0.86c-0.14,0.22-0.29,0.5-0.5,0.72c-0.14,0.5-0.22,0.86-0.29,1.08c-0.07,0.29-0.22,0.65-0.43,0.94
	c-0.22,0.07-0.43,0.14-0.65,0.22c-0.36,0.14-0.65,0.22-1.08,0.29c0,0-0.07,0-0.22,0c-0.14,0.07-0.29,0.07-0.36,0.07
	c-0.07-0.07-0.07-0.14,0-0.22c0.22-0.14,0.43-0.29,0.65-0.43c0.29-0.14,0.58-0.22,0.72-0.43c0.29-0.07,0.43-0.22,0.65-0.29
	c0.29-0.14,0.43-0.36,0.5-0.5c0-0.07,0-0.14,0-0.14c0-0.14,0-0.36-0.07-0.43c-0.07,0-0.14-0.07-0.14-0.07c-0.22,0-0.29,0-0.43,0
	c-0.07,0-0.22,0-0.36-0.07c-0.07,0-0.14-0.14-0.14-0.22c-0.07-0.07-0.07-0.14-0.07-0.36c0-0.14,0.07-0.36,0.14-0.65
	c0.07-0.29,0.22-0.5,0.22-0.72c0.07-0.07,0.14-0.14,0.14-0.22c0-0.07,0.07-0.07,0.14-0.14c0.07,0,0.14,0,0.22,0
	c0.22,0,0.29,0,0.43,0.14c0.07,0.14,0.22,0.29,0.22,0.43c0.07,0.22,0.22,0.36,0.22,0.58c0.07,0,0.07,0,0.07,0
	c0.07,0,0.07-0.07,0.14-0.07c0.14-0.14,0.29-0.29,0.29-0.43c0.14-0.22,0.22-0.5,0.22-0.72c0-0.07,0-0.22,0-0.36
	c0-0.07,0-0.14,0-0.22c0-0.14,0-0.43,0-0.65c0-0.36,0-0.58,0-0.72c0-0.07,0-0.36,0-0.5c0-0.07,0-0.22,0-0.29
	c0.14-0.58,0.29-1.01,0.5-1.3c0.14-0.29,0.36-0.5,0.58-0.65L94.02,89.83L94.02,89.83z M95.9,94.15L95.54,94l-0.79-0.22
	c-0.07,0-0.22,0-0.22,0c-0.14,0-0.22,0.07-0.29,0.07c-0.07,0.14-0.14,0.29-0.29,0.5c-0.07,0.07-0.22,0.29-0.29,0.36
	c0,0.14-0.07,0.36-0.14,0.43c0,0.07,0,0.14,0,0.14c0.36,0,0.65,0,1.01-0.14c0.29-0.07,0.58-0.29,0.94-0.5
	c0.07-0.07,0.14-0.22,0.22-0.22C95.75,94.36,95.9,94.22,95.9,94.15L95.9,94.15z M77.82,96.16l0.72-1.01h0.22
	c0.22,0.14,0.36,0.29,0.43,0.36c0.22,0.22,0.43,0.29,0.58,0.36h0.07c0.14-0.29,0.43-0.5,0.65-0.72h0.07
	c0.22,0.07,0.36,0.22,0.5,0.36c0.07,0.07,0.29,0.22,0.58,0.36c0,0.07,0,0.14,0,0.14c-0.07,0.07-0.14,0.14-0.36,0.29
	c-0.07,0.22-0.14,0.36-0.22,0.43c-0.14,0.14-0.22,0.22-0.29,0.36c-0.14,0-0.22-0.14-0.36-0.14c0,0-0.07-0.07-0.22-0.14
	c-0.07-0.07-0.22-0.14-0.36-0.22c-0.07-0.07-0.14-0.29-0.22-0.36c-0.07,0.22-0.14,0.29-0.36,0.43c-0.14,0.14-0.29,0.29-0.29,0.43
	H78.9c-0.07,0-0.14,0-0.29-0.14c-0.07-0.07-0.14-0.07-0.22-0.07c-0.14-0.14-0.22-0.22-0.29-0.29c-0.22-0.07-0.29-0.29-0.36-0.36
	L77.82,96.16L77.82,96.16z M87.9,94c-0.14,0.07-0.36,0.36-0.43,0.43c0,0.14-0.14,0.29-0.14,0.58c-0.14,0.07-0.22,0.22-0.36,0.29
	c-0.14,0.07-0.22,0.14-0.29,0.29c-0.5,0.58-0.79,1.01-0.94,1.15c-0.43,0.43-0.79,0.65-1.22,0.72c0,0-0.07,0-0.14,0
	c-0.14,0-0.29,0-0.29,0s0-0.07,0.14-0.22c0.07-0.07,0.07-0.29,0-0.36c0,0-0.14,0-0.22,0.07c-0.07,0.22-0.22,0.36-0.29,0.5
	c-0.14,0.14-0.29,0.22-0.43,0.36c-0.58,0.29-1.15,0.5-2.02,0.65c-0.5,0.14-1.37,0.14-2.16,0.14c-0.72,0-1.44,0-1.94-0.07
	c-0.5,0-1.01-0.22-1.44-0.36c-0.14,0-0.22-0.14-0.22-0.22c-0.07-0.07-0.07-0.29-0.07-0.36c0-0.07,0-0.14,0-0.22
	c0-0.07,0-0.14,0-0.22c0-0.07-0.07-0.22-0.14-0.22c0,0-0.14,0-0.22,0.14c0,0.29-0.07,0.58-0.14,0.79c0,0.14,0,0.36,0,0.65
	c0,0.14,0,0.29,0,0.43c0,0.07,0.07,0.29,0.07,0.36c0.07,0.22,0.29,0.36,0.58,0.5c0,0.07,0.22,0.07,0.65,0.22
	c0.5,0,1.01,0.07,1.51,0.07c0.58,0,1.08,0,1.66-0.07c0.43-0.07,1.01-0.14,1.51-0.22c0.72-0.22,1.3-0.36,1.73-0.58
	c0.58-0.36,1.01-0.79,1.3-1.37c0.07,0.07,0.14,0.14,0.29,0.14c0.14,0,0.22,0,0.29,0.07c0.07,0,0.14,0,0.14,0
	c0.14,0,0.43-0.07,0.5-0.14c0.14-0.07,0.29-0.14,0.5-0.36c0.14-0.22,0.36-0.43,0.5-0.72c0.29-0.29,0.5-0.58,0.79-0.65
	c0.07-0.07,0.14-0.07,0.22-0.07c0.14,0,0.22,0.07,0.5,0.14c0.14,0,0.22,0.14,0.29,0.14c0.14,0,0.36-0.14,0.5-0.22
	c0.07-0.14,0.14-0.29,0.29-0.36c0-0.07,0.07-0.14,0.14-0.29c0-0.14,0-0.22,0-0.29c-0.14-0.22-0.29-0.43-0.5-0.65
	c-0.22-0.22-0.36-0.5-0.43-0.65H87.9L87.9,94z M66.02,101.49l1.01-0.86h0.07c0.07,0.14,0.22,0.29,0.36,0.43
	c0.14,0.22,0.36,0.29,0.5,0.43c0,0,0,0.07-0.07,0.14l-0.79,0.72c0,0.07-0.07,0.07-0.07,0.07c-0.14,0-0.22,0-0.22-0.07
	c-0.07,0-0.14,0-0.14-0.07c-0.14-0.14-0.22-0.22-0.29-0.29c-0.22-0.22-0.29-0.29-0.36-0.43V101.49L66.02,101.49z M72.42,98.61h0.14
	c0.07,0.07,0.22,0.22,0.36,0.36c0.14,0.22,0.36,0.29,0.5,0.36c-0.07,0.14-0.14,0.22-0.22,0.29c-0.14,0.07-0.22,0.29-0.29,0.36
	c-0.07,0-0.07,0.07-0.14,0.14c-0.07,0.07-0.22,0.14-0.36,0.07c-0.14,0-0.29-0.14-0.36-0.22c-0.14-0.14-0.36-0.36-0.43-0.5
	L72.42,98.61L72.42,98.61z M72.42,97.68c-0.22,0.29-0.43,0.5-0.72,0.79c-0.14,0-0.29-0.14-0.43-0.29c-0.22-0.07-0.29-0.14-0.36-0.29
	c-0.07-0.07-0.14-0.22-0.14-0.29c0.14-0.14,0.29-0.29,0.43-0.43c0.14-0.29,0.29-0.43,0.36-0.5h0.07c0.36,0.29,0.58,0.5,0.58,0.5
	c0.07,0.07,0.22,0.14,0.43,0.29l0,0l0,0l0.65-0.72h0.14c0.14,0.14,0.29,0.36,0.36,0.43c0.22,0.14,0.36,0.22,0.5,0.29
	c0,0.07,0,0.07,0,0.14c0,0,0,0.07-0.07,0.07l-0.72,0.79l-0.07,0.07c-0.07,0-0.14-0.07-0.22-0.07c-0.14,0-0.14-0.14-0.22-0.14
	c-0.14-0.14-0.22-0.22-0.29-0.29C72.64,97.96,72.57,97.89,72.42,97.68L72.42,97.68z M65.8,97.68c0,0.86,0.07,1.3,0.14,1.37
	c0.07,0.5,0.43,0.86,0.72,1.01c0.14,0,0.22,0.07,0.43,0.07c0.29,0,0.65-0.07,0.86-0.29c0.29-0.22,0.58-0.43,0.79-0.79l1.37-1.94
	v-0.29c0-0.07-0.07-0.07-0.07-0.14c-0.79,0-1.51-0.07-2.23-0.14c0,0,0-0.07,0.14-0.22c0.22-0.29,0.58-0.43,0.86-0.58
	c0.36-0.22,0.72-0.29,1.08-0.29c0.07,0,0.22,0.07,0.43,0.29c0.22,0.07,0.36,0.14,0.43,0.14c0,0,0.07,0,0.14,0
	c0.29-0.07,0.5-0.29,0.72-0.58c0.22-0.22,0.43-0.5,0.58-0.72c0.07-0.14,0.07-0.22,0-0.22c-0.07,0-0.07,0-0.14,0
	c-0.07,0.07-0.22,0.22-0.43,0.36c-0.22,0.29-0.43,0.43-0.72,0.43c-0.07,0-0.07,0-0.14,0c-0.14-0.14-0.29-0.29-0.5-0.43
	c-0.22,0-0.43,0.07-0.72,0.14c-0.14,0-0.58,0.29-0.94,0.43c-0.43,0.29-0.72,0.58-1.01,0.72c-0.22,0.29-0.36,0.65-0.5,1.08
	c0,0,0.07,0.07,0.14,0.07c0,0,0.07,0,0.14,0c0.65,0.07,1.3,0.07,1.94,0.14l0,0c-0.07,0.14-0.14,0.29-0.36,0.36
	c0,0.14-0.14,0.22-0.36,0.43c-0.14,0.07-0.43,0.22-0.58,0.36c-0.22,0-0.43,0.07-0.65,0.07c-0.22,0-0.5-0.07-0.65-0.29
	c-0.22-0.14-0.29-0.36-0.36-0.65c0-0.29,0-0.65-0.14-1.01v-2.02c0-0.72,0.14-1.44,0.22-2.16c0-0.07-0.07-0.14-0.07-0.14
	c-0.14,0-0.14,0.07-0.22,0.07c0,0-0.07,0.29-0.22,0.79c-0.07,0.14-0.14,0.29-0.14,0.5c0,0.14,0,0.36,0,0.5c0,0.22,0,0.36,0,0.5v1.08
	V97.68L65.8,97.68z M68.68,92.56l0.86-0.94h0.07c0.29,0.22,0.5,0.43,0.65,0.65c0,0.07,0.07,0.07,0.22,0.14
	c0.07,0.07,0.07,0.14,0.07,0.14c-0.29,0.29-0.58,0.58-0.94,0.86c0,0-0.07,0-0.14-0.07c-0.07,0-0.14-0.07-0.22-0.07
	c-0.14-0.14-0.29-0.22-0.36-0.29C68.82,92.78,68.68,92.71,68.68,92.56L68.68,92.56z M57.74,98.76l0.14-0.07
	c0.29-0.22,0.72-0.5,1.08-0.72h0.07c0.14,0.29,0.58,0.72,0.72,1.08v0.14c-0.14,0-0.29,0.22-0.5,0.29c-0.22,0.07-0.36,0.22-0.58,0.36
	c-0.14,0-0.29,0-0.29-0.14c-0.07-0.07-0.22-0.22-0.22-0.22c-0.07-0.14-0.22-0.43-0.29-0.5C57.81,98.9,57.74,98.83,57.74,98.76
	L57.74,98.76L57.74,98.76z M65.15,96.24c0.07-0.07,0.07-0.07,0-0.07c0,0-0.07,0-0.14,0.07c-0.22,0-0.5,0.36-0.65,0.43
	c-0.29,0.07-0.5,0.14-0.72,0.14c-0.58,0-1.22-0.07-1.8-0.14c-0.58-0.07-1.3-0.22-1.94-0.5c-0.79-0.22-1.44-0.43-2.02-0.65
	c-0.29-0.22-0.86-0.5-1.15-0.79c0-0.07-0.14-0.14-0.22-0.29c0-0.07,0.07-0.29,0.07-0.43l0.14-0.29c0,0,0-0.07,0.07-0.22
	c0-0.07-0.07-0.07-0.07-0.07h-0.14c0,0,0,0-0.07,0c-0.14,0.36-0.22,0.58-0.43,0.79c0,0.22-0.07,0.43-0.22,0.65
	c0,0.14-0.07,0.22-0.07,0.36c0,0.07-0.07,0.22-0.07,0.36c0.07,0.14,0.07,0.29,0.14,0.43c0.22,0.22,0.36,0.29,0.58,0.5
	c0.5,0.22,1.22,0.58,1.87,0.72c0.65,0.22,1.37,0.36,2.09,0.43c0.65,0.22,1.37,0.22,1.94,0.29c0.58,0,1.08-0.14,1.66-0.5
	C64.5,97.17,64.86,96.81,65.15,96.24z"/>
</svg>
